<?xml version='1.0' encoding='utf-8'?>
<svg xmlns="http://www.w3.org/2000/svg" version="1.1" width="600px" height="976px" viewBox="0 0 600 976"> <g id="layer1"> <g> <g style="fill:rgb(255,161,98); fill-opacity:1.0; stroke-linejoin: miter"> <path d="M173.35597,67.49056C174.34665,67.49056,175.32196,68.7279,175.6431,70.85205C176.41211,73.76715,175.59872,78.053406,173.7157,80.091C172.78622,81.096466,172.06119,81.60077,171.5075,81.60513C171.50508,81.605156,171.50267,81.60516,171.50024,81.60516C170.56305,81.60516,170.11894,80.16517,170.00592,77.29141C169.8519,73.37079,170.67795,69.41101,172.26016,68.04016C172.60175,67.67053,172.9751,67.49353,173.34659,67.4906C173.34972,67.49058,173.35284,67.49056,173.35597,67.49056 Z M228.84993,28.765951C247.24112,28.765951,271.67972,37.80534,299.37885,55.188698C307.09906,60.1211,322.12363,67.71113,332.43222,71.88737C342.8475,76.308586,347.91003,78.08764,358.2323,78.08764C358.47537,78.08764,358.72134,78.086655,358.97037,78.084694C366.0555,78.02885,375.61343,77.18369,390.83508,75.80869C406.33942,74.22608,416.14502,73.33988,423.21582,73.28419C423.45236,73.282326,423.68585,73.28139,423.9164,73.28139C433.0199,73.28139,437.52368,74.73856,444.26044,77.9622C457.2597,83.99572,475.25763,100.63186,475.502,106.83987C475.539,107.78145,476.08575,108.250114,477.03378,108.250114C477.04138,108.250114,477.04898,108.250084,477.05664,108.25002C478.0818,108.241936,479.5688,107.69314,481.38318,106.60894C482.92297,105.69988,484.65973,105.23214,486.7602,105.2156C486.7987,105.215294,486.83734,105.21514,486.8761,105.21514C490.4306,105.21514,495.0219,106.49167,501.44214,109.09252C509.99002,112.36476,517.7552,113.72265,533.72754,113.72265C534.514,113.72265,535.3203,113.71935,536.14764,113.71284C541.37634,113.67164,547.4428,113.501564,554.61774,113.21949C561.62177,112.9441,567.92535,112.758736,573.6043,112.714C574.48334,112.70707,575.34735,112.703514,576.1967,112.703514C618.49744,112.703514,624.3759,121.52502,628.54224,162.34442C631.25494,189.72601,633.15826,196.52339,644.76276,217.01064C652.8688,231.74525,659.0909,248.5167,661.9821,263.78342C666.9047,289.11478,665.75946,301.59494,651.86487,381.00635C648.42676,401.75745,644.3682,431.69614,643.3634,447.77048C641.95026,470.07852,639.70886,479.6566,632.6693,492.04126C618.5244,517.16327,596.0112,530.5756,573.22144,530.7552C573.06683,530.7564,572.91223,530.757,572.7576,530.757C557.7522,530.757,542.6507,525.0174,529.7618,513.1037C522.31213,506.53198,516.2051,500.8874,515.8656,500.8874L515.8645,500.8874C515.53796,500.90045,515.44244,506.7943,515.4113,514.32245C515.3744,530.03156,503.54358,553.7306,490.5327,564.0595C475.08524,575.8473,452.09232,582.56354,430.77795,582.73145C430.50507,582.7336,430.23245,582.7347,429.96014,582.7347C419.13025,582.7347,408.7662,581.03217,400.0854,577.4322C385.12567,571.47577,372.08005,555.95386,371.57913,543.21136C371.4268,539.33685,370.02322,536.15027,368.09818,536.15027C368.09357,536.15027,368.089,536.15027,368.08438,536.1503C368.066,536.15045,368.04758,536.1509,368.02914,536.1516C364.76193,536.2801,363.47507,545.1661,364.9045,556.5634C365.78958,562.4189,348.68533,576.83527,325.30875,589.86273C308.79248,599.0684,291.5869,603.5571,275.34506,603.6851C275.1066,603.687,274.86838,603.6879,274.63034,603.6879C245.8158,603.6879,220.12204,589.9306,206.82846,564.4145C199.72876,550.29504,198.12662,542.83124,197.03468,515.0586C196.18283,493.3926,195.20157,486.0262,193.23747,486.0262C193.23541,486.0262,193.23335,486.0262,193.23128,486.02625C192.8571,486.02917,192.44731,486.29865,191.996,486.78687C189.48492,489.5036,188.288,500.67657,188.87897,515.70654C189.3999,537.28424,188.88785,540.90405,181.65576,548.3877C170.98985,560.1838,132.36041,569.15424,100.71443,569.40356C100.26421,569.4071,99.81541,569.4089,99.36812,569.4089C89.65671,569.4089,80.659035,568.5688,73.40499,566.7149C47.950775,560.18896,35.206387,544.0008,9.317813,484.80652C-5.439974,450.6992,-14.24506,426.50223,-14.944599,417.03958C-16.489063,393.65558,-16.914902,391.13022,-21.50674,391.13022C-21.54099,391.13022,-21.575474,391.13037,-21.61019,391.13065C-21.79354,391.1321,-21.983404,391.1373,-22.180136,391.14505C-22.341497,391.1514,-22.501669,391.15518,-22.660254,391.15646C-22.698936,391.15677,-22.737526,391.15692,-22.77601,391.15692C-25.13586,391.15692,-27.110872,390.5838,-27.15833,389.37704C-27.440863,382.1888,-17.412617,337.61703,-12.333423,325.30954C-4.608857,305.3714,-5.695374,269.41763,-14.570131,251.76834C-20.965319,238.9302,-22.273897,222.29233,-17.617144,215.8917C-16.387117,213.87985,-15.004702,199.09958,-14.653948,183.05098C-14.316225,166.67595,-12.120424,147.60905,-9.789247,140.31837L-5.402161,127.05638L-2.7681735,135.78853C-1.0570697,141.55894,0.97642595,144.11548,2.951083,144.11548C2.9570897,144.11548,2.9630957,144.11545,2.9691012,144.1154C7.5183268,144.07954,11.748994,130.48036,10.997193,111.3586C10.534745,99.59621,11.937257,93.650246,16.959414,88.21723C27.688965,76.60953,45.171906,70.589294,67.3114,70.41489C67.64164,70.412285,67.97291,70.41098,68.30521,70.41098C80.237114,70.41098,93.495865,72.08904,107.75925,75.48477C144.73886,83.84805,147.45558,86.35914,148.3419,108.903946C149.06133,127.20116,155.72783,163.58965,159.54024,169.00313C159.91504,169.46391,160.49701,169.70065,161.20718,169.70065C161.21559,169.70065,161.22401,169.7006,161.23247,169.70055C162.47386,169.69075,164.10085,168.96342,165.69704,167.45241C168.86156,164.70998,169.83455,156.1632,169.14098,138.51967C168.13899,113.034164,172.8144,98.778824,181.96278,98.41899C186.21034,98.25215,189.50186,82.08807,189.10889,63.778168C188.97333,52.00244,196.07715,41.251556,209.19095,33.53693C214.45389,30.400517,220.92429,28.826664,228.41132,28.767673C228.55714,28.766525,228.70334,28.765951,228.84993,28.765951 Z M-33.65776,418.00974C-30.739967,418.00974,-14.950405,456.11526,-11.16547,471.54047C-6.469194,491.28232,22.892542,549.51184,28.19595,549.51184L28.201624,549.51184C28.209024,549.5118,28.21641,549.51154,28.223719,549.5113C28.228952,549.51105,28.234247,549.51086,28.239573,549.51086L28.243694,549.51086C29.575499,549.51086,34.00308,554.5498,37.809036,560.2607C41.97403,566.31415,53.494205,576.3331,63.565872,582.80914C74.2386,589.3337,79.5253,592.38605,91.119286,592.38605C91.295876,592.38605,91.47393,592.3853,91.65349,592.3839C101.90715,592.30316,117.06713,589.91797,144.82759,585.5048C149.08247,584.84125,152.93776,584.4875,156.42543,584.46C156.57214,584.45886,156.71822,584.4583,156.86365,584.4583C171.49432,584.4583,179.56323,590.3168,183.48703,603.292L186.51193,613.6447L225.79741,614.06366C286.37173,614.95447,302.63895,620.85986,303.51242,643.0778C304.10333,658.1077,297.6273,668.1796,281.93835,676.9773C270.41998,683.648,263.27026,684.91095,214.75366,691.07227L194.23364,693.5153L193.59131,677.17865C193.11165,664.9789,191.69246,661.03076,188.23364,661.03076C188.22163,661.03076,188.2096,661.03076,188.19754,661.0309C188.14798,661.03125,188.09805,661.03235,188.04767,661.03436C185.43378,661.13715,182.62189,664.5199,182.12271,668.4666C181.63583,672.7398,180.06123,682.6189,178.74828,690.85187C177.01726,703.086,176.52495,705.2252,169.29454,705.2822C169.19308,705.283,169.09029,705.2834,168.98615,705.2834C167.72867,705.2834,166.27448,705.22687,164.58475,705.1528C164.28195,705.1405,163.97133,705.13434,163.65276,705.13434C163.58885,705.13434,163.52464,705.1346,163.46011,705.1351C155.13858,705.2007,141.45535,709.42834,119.329994,719.3672C93.96398,731.05066,85.20815,733.73376,72.796814,733.83154C72.55543,733.83344,72.31265,733.83435,72.06835,733.83435C71.02637,733.83435,69.95653,733.8175,68.84725,733.78723C46.552284,732.7,34.417282,723.68744,-0.26594555,682.1821C-27.753569,648.90265,-62.846184,613.63135,-69.7847,611.9405C-72.0976,611.37726,-80.65871,593.3883,-89.02126,572.1192C-102.10701,538.92755,-103.73504,530.8106,-103.48707,512.14813C-103.29612,500.36017,-100.30577,484.8625,-97.32103,477.54572C-90.134575,460.57376,-53.67187,422.48892,-42.62718,420.41873C-38.078484,419.58548,-33.8695,418.43832,-33.882362,418.11148C-33.819847,418.0438,-33.745644,418.0104,-33.660393,418.00974 Z M224.2569,19.039474C224.0096,19.039474,223.76443,19.040413,223.5213,19.04233C207.14297,19.171358,200.00711,23.734772,176.88956,44.296875C161.22806,57.961517,151.58292,63.346436,132.7604,63.49472C132.49275,63.49683,132.22324,63.49788,131.95181,63.49788C123.547935,63.49788,113.322975,62.491055,99.98001,60.737152C86.77319,58.998146,74.116135,58.139217,64.59322,58.139217C64.18893,58.139217,63.79028,58.140766,63.397476,58.14386C58.293945,58.184082,54.177414,58.48535,51.48169,59.04416C21.288025,65.14035,-9.768601,90.90464,-19.811327,118.459915C-28.387638,141.70406,-47.298603,218.3677,-52.51008,252.27835C-56.71019,278.62253,-57.573166,298.29102,-55.615,339.77335C-52.770542,403.80112,-54.224262,408.43918,-85.47203,445.9919C-113.58064,480.14844,-118.68553,491.80206,-119.3487,524.8796C-120.143974,579.5602,-97.67849,618.273,-23.232937,688.97546C24.316793,734.09454,41.046356,745.3212,65.83042,745.3212C66.04907,745.3212,66.26836,745.3203,66.48829,745.3186C68.249306,745.3047,70.05221,745.2357,71.91077,745.1199C94.44283,743.9071,270.3447,698.3767,285.71945,689.9182C307.4881,677.609,317.17282,657.5941,315.9783,627.20764C315.23294,608.257,315.53375,607.5906,325.2592,605.24493C330.77512,604.046,341.90256,595.7548,351.03098,586.5603L366.7513,570.23486L377.6177,580.27924C388.89706,590.7055,404.255,595.60175,425.28195,595.60175C425.64136,595.60175,426.0024,595.60034,426.3651,595.5975C430.9756,595.5611,435.8549,595.2942,441.01938,594.80316C463.17288,592.2957,473.4872,588.29114,509.93878,566.5688C514.0771,564.076,522.5853,561.13727,531.86176,558.6929L531.8671,558.6929Q531.9955,558.6527,532.1233,558.62274L532.1286,558.62274C537.1023,557.3193,542.28625,556.16003,547.1279,555.2893C599.12305,546.046,626.3306,530.5778,641.5495,501.50928C651.5743,481.8079,654.8524,465.317,657.91656,418.4012C660.731,373.45825,664.31036,356.3012,676.05133,330.3148C681.78375,317.98123,686.11993,303.4125,685.91437,298.18466C685.3493,283.80804,649.83124,162.81644,640.55286,143.21971C631.65204,124.91664,608.1951,102.60502,594.34375,99.87711C592.7097,99.509346,589.6228,99.34127,585.58734,99.34127C585.1845,99.34127,584.7722,99.34294,584.35095,99.34626C576.20276,99.41044,564.70544,100.08955,553.489,101.15598C543.72675,102.131355,536.0451,102.76307,529.4266,102.81522C529.1316,102.81755,528.8387,102.81872,528.5478,102.81872C510.0887,102.81872,499.7738,98.097374,474.5771,83.31481C445.30588,66.265594,437.20483,62.224915,411.18448,62.224915C410.47766,62.224915,409.7576,62.227898,409.02356,62.23368C402.76965,62.282967,395.49915,62.53559,386.72736,62.88044C377.04398,63.194313,369.6846,63.53974,363.4805,63.58863C362.9906,63.59249,362.50793,63.5945,362.03186,63.5945C339.03165,63.5945,331.50168,58.90119,274.55084,31.29404C257.21362,23.140352,245.62363,19.669283,231.53555,19.241426C228.896,19.116085,226.49002,19.039474,224.2569,19.039474 Z"/> </g> <g style="fill:rgb(255,203,170); fill-opacity:1.0; stroke-linejoin: miter"> <path d="M228.84993,28.765951C228.70334,28.765951,228.55714,28.766525,228.41132,28.767673C220.92429,28.826664,214.45389,30.400517,209.19095,33.53693C196.07715,41.251556,188.97333,52.00244,189.10889,63.778168C189.50186,82.08807,186.21034,98.25215,181.96278,98.41899C172.8144,98.778824,168.13899,113.034164,169.14098,138.51967C169.83455,156.1632,168.86156,164.70998,165.69704,167.45241C164.10085,168.96342,162.47386,169.69075,161.23247,169.70055C161.22401,169.7006,161.21559,169.70065,161.20718,169.70065C160.49701,169.70065,159.91504,169.46391,159.54024,169.00313C155.72783,163.58965,149.06133,127.20116,148.3419,108.903946C147.45558,86.35914,144.73886,83.84805,107.75925,75.48477C93.495865,72.08904,80.237114,70.41098,68.30521,70.41098C67.97291,70.41098,67.64164,70.412285,67.3114,70.41489C45.171906,70.589294,27.688965,76.60953,16.959414,88.21723C11.937257,93.650246,10.534745,99.59621,10.997193,111.3586C11.748994,130.48036,7.5183268,144.07954,2.9691012,144.1154C2.9630957,144.11545,2.9570897,144.11548,2.951083,144.11548C0.97642595,144.11548,-1.0570697,141.55894,-2.7681735,135.78853L-5.402161,127.05638L-9.789247,140.31837C-12.120424,147.60905,-14.316225,166.67595,-14.653948,183.05098C-15.004702,199.09958,-16.387117,213.87985,-17.617144,215.8917C-22.273897,222.29233,-20.965319,238.9302,-14.570131,251.76834C-5.695374,269.41763,-4.608857,305.3714,-12.333423,325.30954C-17.412617,337.61703,-27.440863,382.1888,-27.15833,389.37704C-27.110872,390.5838,-25.13586,391.15692,-22.77601,391.15692C-22.737526,391.15692,-22.698936,391.15677,-22.660254,391.15646C-22.501669,391.15518,-22.341497,391.1514,-22.180136,391.14505C-21.983404,391.1373,-21.79354,391.1321,-21.61019,391.13065C-21.575474,391.13037,-21.54099,391.13022,-21.50674,391.13022C-16.914902,391.13022,-16.489063,393.65558,-14.944599,417.03958C-14.24506,426.50223,-5.439974,450.6992,9.317813,484.80652C35.206387,544.0008,47.950775,560.18896,73.40499,566.7149C80.659035,568.5688,89.65671,569.4089,99.36812,569.4089C99.81541,569.4089,100.26421,569.4071,100.71443,569.40356C132.36041,569.15424,170.98985,560.1838,181.65576,548.3877C188.88785,540.90405,189.3999,537.28424,188.87897,515.70654C188.288,500.67657,189.48492,489.5036,191.996,486.78687C192.44731,486.29865,192.8571,486.02917,193.23128,486.02625C193.23335,486.0262,193.23541,486.0262,193.23747,486.0262C195.20157,486.0262,196.18283,493.3926,197.03468,515.0586C198.12662,542.83124,199.72876,550.29504,206.82846,564.4145C220.12204,589.9306,245.8158,603.6879,274.63034,603.6879C274.86838,603.6879,275.1066,603.687,275.34506,603.6851C291.5869,603.5571,308.79248,599.0684,325.30875,589.86273C348.68533,576.83527,365.78958,562.4189,364.9045,556.5634C363.47507,545.1661,364.76193,536.2801,368.02914,536.1516C368.04758,536.1509,368.066,536.15045,368.08438,536.1503C368.089,536.15027,368.09357,536.15027,368.09818,536.15027C370.02322,536.15027,371.4268,539.33685,371.57913,543.21136C372.08005,555.95386,385.12567,571.47577,400.0854,577.4322C408.7662,581.03217,419.13025,582.7347,429.96014,582.7347C430.23245,582.7347,430.50507,582.7336,430.77795,582.73145C452.09232,582.56354,475.08524,575.8473,490.5327,564.0595C503.54358,553.7306,515.3744,530.03156,515.4113,514.32245C515.44244,506.7943,515.53796,500.90045,515.8645,500.8874L515.8656,500.8874C516.2051,500.8874,522.31213,506.53198,529.7618,513.1037C542.6507,525.0174,557.7522,530.757,572.7576,530.757C572.91223,530.757,573.06683,530.7564,573.22144,530.7552C596.0112,530.5756,618.5244,517.16327,632.6693,492.04126C639.70886,479.6566,641.95026,470.07852,643.3634,447.77048C644.3682,431.69614,648.42676,401.75745,651.86487,381.00635C665.75946,301.59494,666.9047,289.11478,661.9821,263.78342C659.0909,248.5167,652.8688,231.74525,644.76276,217.01064C633.15826,196.52339,631.25494,189.72601,628.54224,162.34442C624.3759,121.52502,618.49744,112.703514,576.1967,112.703514C575.34735,112.703514,574.48334,112.70707,573.6043,112.714C567.92535,112.758736,561.62177,112.9441,554.61774,113.21949C547.4428,113.501564,541.37634,113.67164,536.14764,113.71284C535.3203,113.71935,534.514,113.72265,533.72754,113.72265C517.7552,113.72265,509.99002,112.36476,501.44214,109.09252C495.0219,106.49167,490.4306,105.21514,486.8761,105.21514C486.83734,105.21514,486.7987,105.215294,486.7602,105.2156C484.65973,105.23214,482.92297,105.69988,481.38318,106.60894C479.5688,107.69314,478.0818,108.241936,477.05664,108.25002C477.04898,108.250084,477.04138,108.250114,477.03378,108.250114C476.08575,108.250114,475.539,107.78145,475.502,106.83987C475.25763,100.63186,457.2597,83.99572,444.26044,77.9622C437.52368,74.73856,433.0199,73.28139,423.9164,73.28139C423.68585,73.28139,423.45236,73.282326,423.21582,73.28419C416.14502,73.33988,406.33942,74.22608,390.83508,75.80869C375.61343,77.18369,366.0555,78.02885,358.97037,78.084694C358.72134,78.086655,358.47537,78.08764,358.2323,78.08764C347.91003,78.08764,342.8475,76.308586,332.43222,71.88737C322.12363,67.71113,307.09906,60.1211,299.37885,55.188698C271.67972,37.80534,247.24112,28.765951,228.84993,28.765951 Z"/> </g> <g style="fill:rgb(255,203,170); fill-opacity:1.0; stroke-linejoin: miter"> <path d="M-33.660393,418.00974C-33.745644,418.0104,-33.819847,418.0438,-33.882362,418.11148C-33.8695,418.43832,-38.078484,419.58548,-42.62718,420.41873C-53.67187,422.48892,-90.134575,460.57376,-97.32103,477.54572C-100.30577,484.8625,-103.29612,500.36017,-103.48707,512.14813C-103.73504,530.8106,-102.10701,538.92755,-89.02126,572.1192C-80.65871,593.3883,-72.0976,611.37726,-69.7847,611.9405C-62.846184,613.63135,-27.753569,648.90265,-0.26594555,682.1821C34.417282,723.68744,46.552284,732.7,68.84725,733.78723C69.95653,733.8175,71.02637,733.83435,72.06835,733.83435C72.31265,733.83435,72.55543,733.83344,72.796814,733.83154C85.20815,733.73376,93.96398,731.05066,119.329994,719.3672C141.45535,709.42834,155.13858,705.2007,163.46011,705.1351C163.52464,705.1346,163.58885,705.13434,163.65276,705.13434C163.97133,705.13434,164.28195,705.1405,164.58475,705.1528C166.27448,705.22687,167.72867,705.2834,168.98615,705.2834C169.09029,705.2834,169.19308,705.283,169.29454,705.2822C176.52495,705.2252,177.01726,703.086,178.74828,690.85187C180.06123,682.6189,181.63583,672.7398,182.12271,668.4666C182.62189,664.5199,185.43378,661.13715,188.04767,661.03436C188.09805,661.03235,188.14798,661.03125,188.19754,661.0309C188.2096,661.03076,188.22163,661.03076,188.23364,661.03076C191.69246,661.03076,193.11165,664.9789,193.59131,677.17865L194.23364,693.5153L214.75366,691.07227C263.27026,684.91095,270.41998,683.648,281.93835,676.9773C297.6273,668.1796,304.10333,658.1077,303.51242,643.0778C302.63895,620.85986,286.37173,614.95447,225.79741,614.06366L186.51193,613.6447L183.48703,603.292C179.56323,590.3168,171.49432,584.4583,156.86365,584.4583C156.71822,584.4583,156.57214,584.45886,156.42543,584.46C152.93776,584.4875,149.08247,584.84125,144.82759,585.5048C117.06713,589.91797,101.90715,592.30316,91.65349,592.3839C91.47393,592.3853,91.295876,592.38605,91.119286,592.38605C79.5253,592.38605,74.2386,589.3337,63.565872,582.80914C53.494205,576.3331,41.97403,566.31415,37.809036,560.2607C34.00308,554.5498,29.575499,549.51086,28.243694,549.51086L28.239573,549.51086C28.234247,549.51086,28.228952,549.51105,28.223719,549.5113C28.21641,549.51154,28.209024,549.5118,28.201624,549.51184L28.19595,549.51184C22.892542,549.51184,-6.469194,491.28232,-11.16547,471.54047C-14.950405,456.11526,-30.739967,418.00974,-33.65776,418.00974 Z"/> </g> <g style="fill:rgb(255,161,98); fill-opacity:1.0; stroke-linejoin: miter"> <path d="M163.92555,142.60878L163.91862,142.60881Q163.21883,142.61537,163.08229,143.18657L163.12093,145.43217Q162.66484,150.80162,162.4211,159.56367Q161.977,176.49443,162.27043,204.42613Q162.90935,262.82813,166.06914,351.89804Q190.71426,539.0868,198.38055,558.9777Q200.64038,554.73236,200.09569,497.40802Q199.44392,437.77878,196.28532,349.1428Q171.15388,158.46346,163.92555,142.60878 Z"/> </g> <g style="fill:rgb(255,161,98); fill-opacity:1.0; stroke-linejoin: miter"> <path d="M358.08957,73.85102Q355.31192,79.60691,352.5463,147.56311Q349.77615,218.0095,348.0423,324.0962Q354.49078,413.31003,360.80524,482.52466Q363.52716,512.14856,365.9299,533.66345Q368.54807,557.1312,370.73666,569.37494Q370.9222,570.8551,370.7549,572.1417Q370.81552,572.38654,370.8818,572.4518Q371.72217,572.9884,372.40652,572.9884Q373.18756,572.9884,373.7654,572.2895Q373.29605,570.9003,373.36624,568.6795Q375.26816,554.1925,377.05334,515.0138Q380.1845,444.9127,382.2016,323.58374Q365.53848,97.51324,358.09927,73.86356L358.08957,73.85102 Z"/> </g> <g style="fill:rgb(255,161,98); fill-opacity:1.0; stroke-linejoin: miter"> <path d="M487.91937,104.57986Q485.66125,109.66448,487.38348,173.13637Q489.2923,239.26956,494.39252,335.92865Q506.30713,418.19553,516.2675,479.00797L520.4038,503.60956L524.1958,524.9466Q528.40735,547.8314,531.2444,558.94543L531.2444,558.94543Q531.34766,558.89343,531.44147,558.853Q532.0175,558.5998,532.58105,558.5477Q532.80383,558.5238,533.0999,558.5238Q533.443,558.5238,533.8844,558.5559L533.8844,558.5559Q534.6718,544.0868,533.93243,510.38446Q532.4638,445.43307,526.5716,332.455Q496.38074,125.45764,487.96588,104.66515L487.91937,104.57986 Z"/> </g> <g style="fill:rgb(255,161,98); fill-opacity:1.0; stroke-linejoin: miter"> <path d="M174.33725,60.433514Q171.0544,60.433514,168.14435,63.382965Q164.0802,68.47232,163.83582,72.21442Q163.06946,82.961365,172.44736,83.786285L174.69055,83.89752Q175.2413,83.88086,175.69022,83.72641Q177.15103,83.194305,178.22913,81.85892Q181.96066,77.05966,182.5597,71.81375Q182.7619,69.9863,182.31384,68.13544Q182.03738,66.917786,181.3844,65.09613Q181.11725,64.378815,180.70123,63.77594Q178.62112,60.92917,174.7302,60.44507L174.69968,60.442444Q174.5179,60.433514,174.33725,60.433514 Z"/> </g> <g style="fill:rgb(255,203,170); fill-opacity:1.0; stroke-linejoin: miter"> <path d="M23.960585,109.405205Q8.764909,131.66098,3.7293096,149.35497L1.2740785,158.69963L-2.9554598,177.3145Q-8.275529,197.27963,-8.145967,198.0344Q-8.721726,201.16672,-9.053819,204.44946Q-9.773454,215.49734,-10.266282,218.97525L-13.243166,242.04898Q-13.7894,247.8613,-13.591463,257.27628Q-13.324633,272.01236,-12.265384,284.59808Q-12.17055,284.99512,-12.239703,299.88428L-11.773837,318.06757Q-11.41196,323.25266,-7.3779774,333.946Q-5.4645,339.3116,-4.238612,339.3116Q-3.942131,339.3116,-3.6858683,338.99777L-4.60933,330.9257Q-4.73578,329.69284,-4.7939005,328.43375Q-4.9232035,319.1457,-4.6457376,318.42157Q-2.4366612,302.0404,0.09129336,286.22052Q0.33683786,285.57013,2.1244357,263.7076Q2.5556948,259.39133,3.8430333,251.08548Q4.958863,243.59409,8.886109,230.0538Q9.390199,227.83524,9.665071,225.41153Q10.008085,222.20618,9.985597,219.14394L9.985697,219.14394Q9.985891,219.14403,9.986082,219.14403Q10.064915,219.14403,9.569901,204.8182Q9.545777,200.3634,9.706712,197.85431Q9.8104105,196.24698,9.9839945,194.83365Q11.251679,186.16933,12.106585,177.7238L13.693621,156.87135Q13.895418,154.3178,14.264772,151.19902Q14.944887,145.54405,15.784029,142.11708L18.706026,131.59908Q22.02028,121.84212,22.178804,120.39586Q23.402208,114.755295,23.931597,109.71535L23.960825,109.405205 Z"/> </g> <g style="fill:rgb(255,203,170); fill-opacity:1.0; stroke-linejoin: miter"> <path d="M40.12029,87.11698L40.044086,87.13471Q34.759434,89.730354,28.26537,100.0013L16.912539,120.90947Q-4.4379735,155.3102,-8.294129,163.77312Q-17.219622,178.55522,-25.068989,215.98679Q-26.613789,225.42142,-26.821033,236.54282L-27.349125,265.9191Q-27.294651,271.78085,-26.385975,279.0012Q-24.276434,296.06323,-23.429754,300.1192Q-23.537985,300.72864,-18.789478,320.70145Q-12.866839,345.37527,-8.048632,356.6331Q-7.605913,347.65176,-7.997072,338.59335L-10.656375,296.46637Q-10.625659,283.0138,-10.108415,273.59775Q-8.730271,258.3539,-5.7987065,238.9133L-1.7172244,216.9661Q1.2717286,197.60944,1.760895,195.24365Q5.177048,177.37697,8.818543,167.6462L11.973741,159.6595Q24.39626,131.97987,26.975101,124.94017Q28.556614,121.19029,32.96239,106.2198L36.34461,96.72673Q37.773518,92.29719,40.863834,88.59455Q41.117435,87.15177,40.12029,87.11698 Z"/> </g> <g style="fill:rgb(255,203,170); fill-opacity:1.0; stroke-linejoin: miter"> <path d="M-1.0008718,206.36792Q-4.3877573,259.69632,-5.5652633,295.0152Q-5.523027,287.4292,-7.6530466,250.38724Q-7.943696,242.61679,-7.602662,235.89334Q-6.9176035,220.19528,-1.0456086,206.48074L-1.0008818,206.36792 Z M-6.2301497,315.00183L-6.3866286,318.9287Q-6.789247,317.40985,-6.258989,315.22296L-6.2301497,315.00183 Z M16.354874,93.46283Q15.623007,93.46283,14.86368,93.70896L14.805468,93.72733Q6.406358,97.23909,-1.415558,121.28172Q-7.0760965,142.04472,-20.464876,195.92447Q-24.024433,210.91959,-25.00632,222.46951Q-26.102894,234.77914,-24.234592,245.86191Q-13.856418,299.29486,-6.4568343,320.38602Q-6.9857802,333.3165,-5.8932815,333.47775Q3.1861732,296.92664,11.665299,252.60287Q18.367647,217.81894,26.994999,168.9362Q29.258991,156.25111,29.87212,148.61543Q31.658634,128.34004,26.47469,109.86827Q22.329931,93.46283,16.354874,93.46283 Z"/> </g> <g style="fill:rgb(255,203,170); fill-opacity:1.0; stroke-linejoin: miter"> <path d="M-3.062514,147.66577Q-3.1972,147.66577,-3.35109,147.68687L-3.3831944,147.6964Q-9.234834,168.60625,-22.17029,267.43045Q-22.994436,318.08917,-22.560202,352.6086Q-22.047827,386.39102,-20.484549,389.04092Q-15.586109,378.8679,-1.1397249,268.90152Q-0.24792483,212.36087,-0.83958447,178.52867Q-1.0171357,168.632,-1.3586885,161.12889Q-1.5127871,157.85463,-1.6633608,155.66893Q-1.85553,152.68156,-2.2153475,149.58107L-2.2537997,148.06581Q-2.4761953,147.66577,-3.062514,147.66577 Z"/> </g> <g style="fill:rgb(255,161,98); fill-opacity:1.0; stroke-linejoin: miter"> <path d="M173.35597,67.49056C174.34665,67.49056,175.32196,68.7279,175.6431,70.85208C176.41211,73.76715,175.59872,78.053406,173.7157,80.091C172.78622,81.0965,172.06119,81.60077,171.5075,81.60513C171.50508,81.605156,171.50267,81.60516,171.50024,81.60516C170.56305,81.60516,170.11894,80.1652,170.00592,77.29141C169.8519,73.37079,170.67795,69.41104,172.26016,68.04019C172.60175,67.67053,172.9751,67.49353,173.34659,67.4906C173.34972,67.49058,173.35284,67.49056,173.35597,67.49056 Z M228.84993,28.765951C247.24112,28.765951,271.67972,37.80534,299.37885,55.18873C307.09906,60.1211,322.12363,67.71116,332.43222,71.8874C342.8475,76.30859,347.91003,78.08764,358.2323,78.08764C358.47537,78.08764,358.72134,78.086655,358.97037,78.084694C366.0555,78.02885,375.61343,77.18369,390.83508,75.80869C406.33942,74.22611,416.14502,73.33988,423.21582,73.28419C423.45236,73.282326,423.68585,73.28139,423.9164,73.28139C433.0199,73.28139,437.52368,74.73856,444.26044,77.9622C457.2597,83.99572,475.25763,100.63186,475.502,106.83987C475.539,107.78145,476.08575,108.250114,477.03378,108.250114C477.04138,108.250114,477.04898,108.250084,477.05664,108.25002C478.0818,108.241936,479.5688,107.69314,481.38318,106.60894C482.92297,105.69988,484.65973,105.23214,486.7602,105.2156C486.7987,105.215294,486.83734,105.21514,486.8761,105.21514C490.4306,105.21514,495.0219,106.49167,501.44214,109.09252C509.99002,112.36476,517.7552,113.72265,533.72754,113.72265C534.514,113.72265,535.3203,113.71935,536.14764,113.71284C541.37634,113.67164,547.4428,113.501564,554.61774,113.21949C561.62177,112.9441,567.92535,112.758736,573.6043,112.714C574.48334,112.70707,575.34735,112.703514,576.1967,112.703514C618.49744,112.703514,624.3759,121.52502,628.54224,162.34442C631.25494,189.72601,633.15826,196.52339,644.76276,217.01064C652.8688,231.74525,659.0909,248.5167,661.9821,263.78342C666.9047,289.11478,665.75946,301.59494,651.86487,381.00635C648.42676,401.75745,644.3682,431.69614,643.3634,447.77048C641.95026,470.07852,639.70886,479.6566,632.6693,492.04126C618.5244,517.16327,596.0112,530.5756,573.22144,530.7552C573.06683,530.7564,572.91223,530.757,572.7576,530.757C557.7522,530.757,542.6507,525.0174,529.7618,513.1037C522.31213,506.53198,516.2051,500.8874,515.8656,500.8874L515.8645,500.8874C515.53796,500.90045,515.44244,506.7943,515.4113,514.32245C515.3744,530.03156,503.54358,553.7306,490.5327,564.0595C475.08524,575.8473,452.09232,582.56354,430.77795,582.73145C430.50507,582.7336,430.23245,582.7347,429.96014,582.7347C419.13025,582.7347,408.7662,581.03217,400.0854,577.4322C385.12567,571.47577,372.08005,555.95386,371.57913,543.21136C371.4268,539.33685,370.02322,536.15027,368.09818,536.15027C368.09357,536.15027,368.089,536.15027,368.08438,536.1503C368.066,536.15045,368.04758,536.1509,368.02914,536.1516C364.76193,536.2801,363.47507,545.1661,364.9045,556.5634C365.78958,562.4189,348.68533,576.83527,325.30875,589.86273C308.79248,599.0684,291.5869,603.5571,275.34506,603.6851C275.1066,603.687,274.86838,603.6879,274.63034,603.6879C245.8158,603.6879,220.12204,589.9306,206.82846,564.4145C199.72876,550.29504,198.12662,542.83124,197.03468,515.0586C196.18283,493.3926,195.20157,486.0262,193.23747,486.0262C193.23541,486.0262,193.23335,486.0262,193.23128,486.02625C192.8571,486.02917,192.44731,486.29865,191.996,486.78687C189.48492,489.5036,188.288,500.67657,188.87897,515.70654C189.3999,537.28424,188.88785,540.90405,181.65576,548.3877C170.98985,560.1838,132.36041,569.15424,100.71443,569.40356C100.26421,569.4071,99.81541,569.4089,99.36812,569.4089C89.65671,569.4089,80.659035,568.5688,73.40499,566.7149C47.950775,560.18896,35.206387,544.0008,9.317813,484.80652C-5.439974,450.6992,-14.24506,426.50223,-14.944599,417.03958C-16.489063,393.65558,-16.914902,391.13022,-21.50674,391.13022C-21.54099,391.13022,-21.575474,391.13037,-21.61019,391.13065C-21.79354,391.1321,-21.983404,391.1373,-22.180136,391.14505C-22.341497,391.1514,-22.501669,391.15518,-22.660254,391.15646C-22.698936,391.15677,-22.737526,391.15692,-22.77601,391.15692C-25.13586,391.15692,-27.110872,390.5838,-27.15833,389.37704C-27.440863,382.1888,-17.412617,337.61703,-12.333423,325.30954C-4.608857,305.3714,-5.695374,269.41763,-14.570131,251.76834C-20.965319,238.9302,-22.273897,222.29233,-17.617144,215.8917C-16.387117,213.87985,-15.004702,199.09958,-14.653948,183.05098C-14.316225,166.67595,-12.120424,147.60905,-9.789247,140.31837L-5.402161,127.05638L-2.7681735,135.78853C-1.0570697,141.55894,0.97642595,144.11548,2.951083,144.11548C2.9570897,144.11548,2.9630957,144.11545,2.9691012,144.1154C7.5183268,144.07954,11.748994,130.48036,10.997193,111.3586C10.534745,99.59621,11.937257,93.650246,16.959414,88.21723C27.688965,76.60956,45.171906,70.589325,67.3114,70.41492C67.64164,70.412315,67.97292,70.41101,68.30523,70.41101C80.23713,70.41101,93.49587,72.08905,107.75925,75.48477C144.73886,83.84805,147.45558,86.35914,148.3419,108.903946C149.06133,127.20116,155.72783,163.58965,159.54024,169.00313C159.91504,169.46391,160.49701,169.70065,161.20718,169.70065C161.21559,169.70065,161.22401,169.7006,161.23247,169.70055C162.47386,169.69075,164.10085,168.96342,165.69704,167.45241C168.86156,164.70998,169.83455,156.1632,169.14098,138.51967C168.13899,113.034164,172.8144,98.778824,181.96278,98.41899C186.21034,98.25215,189.50186,82.08807,189.10889,63.7782C188.97333,52.002472,196.07715,41.251556,209.19095,33.53696C214.45389,30.400517,220.92429,28.826664,228.41132,28.767673C228.55714,28.766525,228.70334,28.765951,228.84993,28.765951 Z M-33.65776,418.00974C-30.739967,418.00974,-14.950405,456.11526,-11.16547,471.54047C-6.469194,491.28232,22.892542,549.51184,28.19595,549.51184L28.201624,549.51184C28.209024,549.5118,28.21641,549.51154,28.223719,549.5113C28.228952,549.51105,28.234247,549.51086,28.239573,549.51086L28.243694,549.51086C29.575499,549.51086,34.00308,554.5498,37.809036,560.2607C41.97403,566.31415,53.494205,576.3331,63.565872,582.80914C74.2386,589.3337,79.5253,592.38605,91.119286,592.38605C91.295876,592.38605,91.47393,592.3853,91.65349,592.3839C101.90715,592.30316,117.06713,589.91797,144.82759,585.5048C149.08247,584.84125,152.93776,584.4875,156.42543,584.46C156.57214,584.45886,156.71822,584.4583,156.86365,584.4583C171.49432,584.4583,179.56323,590.3168,183.48703,603.292L186.51193,613.6447L225.79741,614.06366C286.37173,614.95447,302.63895,620.85986,303.51242,643.0778C304.10333,658.1077,297.6273,668.1796,281.93835,676.9773C270.41998,683.648,263.27026,684.91095,214.75366,691.07227L194.23364,693.5153L193.59131,677.17865C193.11165,664.9789,191.69246,661.03076,188.23364,661.03076C188.22163,661.03076,188.2096,661.03076,188.19754,661.0309C188.14798,661.03125,188.09805,661.03235,188.04767,661.03436C185.43378,661.13715,182.62189,664.5199,182.12271,668.4666C181.63583,672.7398,180.06123,682.6189,178.74828,690.85187C177.01726,703.086,176.52495,705.2252,169.29454,705.2822C169.19308,705.283,169.09029,705.2834,168.98615,705.2834C167.72867,705.2834,166.27448,705.22687,164.58475,705.1528C164.28195,705.1405,163.97133,705.13434,163.65276,705.13434C163.58885,705.13434,163.52464,705.1346,163.46011,705.1351C155.13858,705.2007,141.45535,709.42834,119.329994,719.3672C93.96398,731.05066,85.20815,733.73376,72.796814,733.83154C72.55543,733.83344,72.31265,733.83435,72.06835,733.83435C71.02637,733.83435,69.95653,733.8175,68.84725,733.78723C46.552284,732.7,34.417282,723.68744,-0.26594555,682.1821C-27.753569,648.90265,-62.846184,613.63135,-69.78469,611.9405C-72.097595,611.37726,-80.65871,593.3883,-89.021255,572.1192C-102.10701,538.92755,-103.73503,530.8106,-103.48706,512.14813C-103.29611,500.36017,-100.30576,484.8625,-97.32102,477.54572C-90.13457,460.57376,-53.67187,422.48892,-42.62718,420.41873C-38.078484,419.58548,-33.8695,418.43832,-33.882362,418.11148C-33.819847,418.0438,-33.745644,418.0104,-33.660393,418.00974 Z M224.25688,19.039474C224.0096,19.039474,223.76443,19.040413,223.5213,19.04233C207.14297,19.171358,200.00711,23.734802,176.88956,44.296875C161.22806,57.961548,151.58292,63.346436,132.7604,63.49472C132.49275,63.49683,132.22324,63.49788,131.95181,63.49788C123.547935,63.49788,113.322975,62.491055,99.98001,60.737183C86.77319,58.998146,74.11613,58.139217,64.59322,58.139217C64.18893,58.139217,63.790276,58.140766,63.397476,58.14386C58.293945,58.184082,54.177414,58.485382,51.48169,59.04419C21.288025,65.14038,-9.768601,90.90464,-19.811327,118.459915C-28.387638,141.70406,-47.298603,218.3677,-52.51008,252.27835C-56.71019,278.62253,-57.573166,298.29102,-55.615,339.77335C-52.770542,403.80112,-54.224262,408.43918,-85.47202,445.9919C-113.58064,480.14844,-118.68553,491.80206,-119.348694,524.8796C-120.14397,579.5602,-97.67849,618.273,-23.232937,688.97546C24.316793,734.09454,41.046356,745.3212,65.83042,745.3212C66.04907,745.3212,66.26836,745.3203,66.48829,745.3186C68.249306,745.3047,70.05221,745.2357,71.91077,745.1199C94.44283,743.9071,270.3447,698.3767,285.71945,689.9182C307.4881,677.609,317.17282,657.5941,315.9783,627.20764C315.23294,608.257,315.53375,607.5906,325.2592,605.24493C330.77512,604.046,341.90256,595.7548,351.03098,586.5603L366.7513,570.23486L377.6177,580.27924C388.89706,590.7055,404.255,595.60175,425.28195,595.60175C425.64136,595.60175,426.0024,595.60034,426.3651,595.5975C430.9756,595.5611,435.8549,595.2942,441.01938,594.80316C463.17288,592.2957,473.4872,588.29114,509.93878,566.5688C514.0771,564.076,522.5853,561.13727,531.86176,558.6929L531.8671,558.6929Q531.9955,558.6527,532.1233,558.62274L532.1286,558.62274C537.1023,557.3193,542.28625,556.16003,547.1279,555.2893C599.12305,546.046,626.3306,530.5778,641.5495,501.50928C651.5743,481.8079,654.8524,465.317,657.91656,418.4012C660.731,373.45825,664.31036,356.3012,676.05133,330.3148C681.78375,317.98123,686.11993,303.4125,685.91437,298.18466C685.3493,283.80804,649.83124,162.81644,640.55286,143.21971C631.65204,124.91664,608.1951,102.60502,594.34375,99.87711C592.7097,99.509346,589.6228,99.34127,585.58734,99.34127C585.1845,99.34127,584.7722,99.34294,584.35095,99.34626C576.20276,99.41044,564.70544,100.08955,553.489,101.15598C543.72675,102.131355,536.0451,102.76307,529.4266,102.81522C529.1316,102.81755,528.8387,102.81872,528.5478,102.81872C510.0887,102.81872,499.7738,98.097374,474.5771,83.31481C445.30588,66.265594,437.20483,62.224915,411.18448,62.224915C410.47766,62.224915,409.7576,62.227898,409.02356,62.23368C402.76965,62.282967,395.49915,62.53559,386.72736,62.88047C377.04398,63.194313,369.6846,63.53974,363.4805,63.58863C362.9906,63.59249,362.50793,63.5945,362.03186,63.5945C339.03165,63.5945,331.50168,58.90119,274.55084,31.294071C257.21362,23.140383,245.62363,19.669313,231.53555,19.241457C228.896,19.116089,226.49,19.039474,224.25688,19.039474 Z"/> </g> <g style="fill:rgb(255,203,170); fill-opacity:1.0; stroke-linejoin: miter"> <path d="M228.84993,28.765951C228.70334,28.765951,228.55714,28.766525,228.41132,28.767673C220.92429,28.826664,214.45389,30.400517,209.19095,33.53696C196.07715,41.251556,188.97333,52.002472,189.10889,63.7782C189.50186,82.08807,186.21034,98.25215,181.96278,98.41899C172.8144,98.778824,168.13899,113.034164,169.14098,138.51967C169.83455,156.1632,168.86156,164.70998,165.69704,167.45241C164.10085,168.96342,162.47386,169.69075,161.23247,169.70055C161.22401,169.7006,161.21559,169.70065,161.20718,169.70065C160.49701,169.70065,159.91504,169.46391,159.54024,169.00313C155.72783,163.58965,149.06133,127.20116,148.3419,108.903946C147.45558,86.35914,144.73886,83.84805,107.75925,75.48477C93.49587,72.08905,80.23713,70.41101,68.30523,70.41101C67.97292,70.41101,67.64164,70.412315,67.3114,70.41492C45.171906,70.589325,27.688965,76.60956,16.959414,88.21723C11.937257,93.650246,10.534745,99.59621,10.997193,111.3586C11.748994,130.48036,7.5183268,144.07954,2.9691012,144.1154C2.9630957,144.11545,2.9570897,144.11548,2.951083,144.11548C0.97642595,144.11548,-1.0570697,141.55894,-2.7681735,135.78853L-5.402161,127.05638L-9.789247,140.31837C-12.120424,147.60905,-14.316225,166.67595,-14.653948,183.05098C-15.004702,199.09958,-16.387117,213.87985,-17.617144,215.8917C-22.273897,222.29233,-20.965319,238.9302,-14.570131,251.76834C-5.695374,269.41763,-4.608857,305.3714,-12.333423,325.30954C-17.412617,337.61703,-27.440863,382.1888,-27.15833,389.37704C-27.110872,390.5838,-25.13586,391.15692,-22.77601,391.15692C-22.737526,391.15692,-22.698936,391.15677,-22.660254,391.15646C-22.501669,391.15518,-22.341497,391.1514,-22.180136,391.14505C-21.983404,391.1373,-21.79354,391.1321,-21.61019,391.13065C-21.575474,391.13037,-21.54099,391.13022,-21.50674,391.13022C-16.914902,391.13022,-16.489063,393.65558,-14.944599,417.03958C-14.24506,426.50223,-5.439974,450.6992,9.317813,484.80652C35.206387,544.0008,47.950775,560.18896,73.40499,566.7149C80.659035,568.5688,89.65671,569.4089,99.36812,569.4089C99.81541,569.4089,100.26421,569.4071,100.71443,569.40356C132.36041,569.15424,170.98985,560.1838,181.65576,548.3877C188.88785,540.90405,189.3999,537.28424,188.87897,515.70654C188.288,500.67657,189.48492,489.5036,191.996,486.78687C192.44731,486.29865,192.8571,486.02917,193.23128,486.02625C193.23335,486.0262,193.23541,486.0262,193.23747,486.0262C195.20157,486.0262,196.18283,493.3926,197.03468,515.0586C198.12662,542.83124,199.72876,550.29504,206.82846,564.4145C220.12204,589.9306,245.8158,603.6879,274.63034,603.6879C274.86838,603.6879,275.1066,603.687,275.34506,603.6851C291.5869,603.5571,308.79248,599.0684,325.30875,589.86273C348.68533,576.83527,365.78958,562.4189,364.9045,556.5634C363.47507,545.1661,364.76193,536.2801,368.02914,536.1516C368.04758,536.1509,368.066,536.15045,368.08438,536.1503C368.089,536.15027,368.09357,536.15027,368.09818,536.15027C370.02322,536.15027,371.4268,539.33685,371.57913,543.21136C372.08005,555.95386,385.12567,571.47577,400.0854,577.4322C408.7662,581.03217,419.13025,582.7347,429.96014,582.7347C430.23245,582.7347,430.50507,582.7336,430.77795,582.73145C452.09232,582.56354,475.08524,575.8473,490.5327,564.0595C503.54358,553.7306,515.3744,530.03156,515.4113,514.32245C515.44244,506.7943,515.53796,500.90045,515.8645,500.8874L515.8656,500.8874C516.2051,500.8874,522.31213,506.53198,529.7618,513.1037C542.6507,525.0174,557.7522,530.757,572.7576,530.757C572.91223,530.757,573.06683,530.7564,573.22144,530.7552C596.0112,530.5756,618.5244,517.16327,632.6693,492.04126C639.70886,479.6566,641.95026,470.07852,643.3634,447.77048C644.3682,431.69614,648.42676,401.75745,651.86487,381.00635C665.75946,301.59494,666.9047,289.11478,661.9821,263.78342C659.0909,248.5167,652.8688,231.74525,644.76276,217.01064C633.15826,196.52339,631.25494,189.72601,628.54224,162.34442C624.3759,121.52502,618.49744,112.703514,576.1967,112.703514C575.34735,112.703514,574.48334,112.70707,573.6043,112.714C567.92535,112.758736,561.62177,112.9441,554.61774,113.21949C547.4428,113.501564,541.37634,113.67164,536.14764,113.71284C535.3203,113.71935,534.514,113.72265,533.72754,113.72265C517.7552,113.72265,509.99002,112.36476,501.44214,109.09252C495.0219,106.49167,490.4306,105.21514,486.8761,105.21514C486.83734,105.21514,486.7987,105.215294,486.7602,105.2156C484.65973,105.23214,482.92297,105.69988,481.38318,106.60894C479.5688,107.69314,478.0818,108.241936,477.05664,108.25002C477.04898,108.250084,477.04138,108.250114,477.03378,108.250114C476.08575,108.250114,475.539,107.78145,475.502,106.83987C475.25763,100.63186,457.2597,83.99572,444.26044,77.9622C437.52368,74.73856,433.0199,73.28139,423.9164,73.28139C423.68585,73.28139,423.45236,73.282326,423.21582,73.28419C416.14502,73.33988,406.33942,74.22611,390.83508,75.80869C375.61343,77.18369,366.0555,78.02885,358.97037,78.084694C358.72134,78.086655,358.47537,78.08764,358.2323,78.08764C347.91003,78.08764,342.8475,76.30859,332.43222,71.8874C322.12363,67.71116,307.09906,60.1211,299.37885,55.18873C271.67972,37.80534,247.24112,28.765951,228.84993,28.765951 Z"/> </g> <g style="fill:rgb(255,203,170); fill-opacity:1.0; stroke-linejoin: miter"> <path d="M-33.660393,418.00974C-33.745644,418.0104,-33.819847,418.0438,-33.882362,418.11148C-33.8695,418.43832,-38.078484,419.58548,-42.62718,420.41873C-53.67187,422.48892,-90.13457,460.57376,-97.32102,477.54572C-100.30576,484.8625,-103.29611,500.36017,-103.48706,512.14813C-103.73503,530.8106,-102.10701,538.92755,-89.021255,572.1192C-80.65871,593.3883,-72.097595,611.37726,-69.78469,611.9405C-62.846184,613.63135,-27.753569,648.90265,-0.26594555,682.1821C34.417282,723.68744,46.552284,732.7,68.84725,733.78723C69.95653,733.8175,71.02637,733.83435,72.06835,733.83435C72.31265,733.83435,72.55543,733.83344,72.796814,733.83154C85.20815,733.73376,93.96398,731.05066,119.329994,719.3672C141.45535,709.42834,155.13858,705.2007,163.46011,705.1351C163.52464,705.1346,163.58885,705.13434,163.65276,705.13434C163.97133,705.13434,164.28195,705.1405,164.58475,705.1528C166.27448,705.22687,167.72867,705.2834,168.98615,705.2834C169.09029,705.2834,169.19308,705.283,169.29454,705.2822C176.52495,705.2252,177.01726,703.086,178.74828,690.85187C180.06123,682.6189,181.63583,672.7398,182.12271,668.4666C182.62189,664.5199,185.43378,661.13715,188.04767,661.03436C188.09805,661.03235,188.14798,661.03125,188.19754,661.0309C188.2096,661.03076,188.22163,661.03076,188.23364,661.03076C191.69246,661.03076,193.11165,664.9789,193.59131,677.17865L194.23364,693.5153L214.75366,691.07227C263.27026,684.91095,270.41998,683.648,281.93835,676.9773C297.6273,668.1796,304.10333,658.1077,303.51242,643.0778C302.63895,620.85986,286.37173,614.95447,225.79741,614.06366L186.51193,613.6447L183.48703,603.292C179.56323,590.3168,171.49432,584.4583,156.86365,584.4583C156.71822,584.4583,156.57214,584.45886,156.42543,584.46C152.93776,584.4875,149.08247,584.84125,144.82759,585.5048C117.06713,589.91797,101.90715,592.30316,91.65349,592.3839C91.47393,592.3853,91.295876,592.38605,91.119286,592.38605C79.5253,592.38605,74.2386,589.3337,63.565872,582.80914C53.494205,576.3331,41.97403,566.31415,37.809036,560.2607C34.00308,554.5498,29.575499,549.51086,28.243694,549.51086L28.239573,549.51086C28.234247,549.51086,28.228952,549.51105,28.223719,549.5113C28.21641,549.51154,28.209024,549.5118,28.201624,549.51184L28.19595,549.51184C22.892542,549.51184,-6.469194,491.28232,-11.16547,471.54047C-14.950405,456.11526,-30.739967,418.00974,-33.65776,418.00974 Z"/> </g> <g style="fill:rgb(255,161,98); fill-opacity:1.0; stroke-linejoin: miter"> <path d="M163.92555,142.60878L163.91862,142.60881Q163.21883,142.61537,163.08229,143.18657L163.12093,145.43217Q162.66484,150.80162,162.4211,159.56367Q161.977,176.49443,162.27043,204.42613Q162.90935,262.82813,166.06914,351.89804Q190.71426,539.0868,198.38055,558.9777Q200.64038,554.73236,200.09569,497.40802Q199.44392,437.77878,196.28532,349.1428Q171.15388,158.46346,163.92555,142.60878 Z"/> </g> <g style="fill:rgb(255,161,98); fill-opacity:1.0; stroke-linejoin: miter"> <path d="M358.08957,73.85105Q355.31192,79.60691,352.5463,147.56311Q349.77615,218.0095,348.0423,324.0962Q354.49078,413.31003,360.80524,482.52466Q363.52716,512.14856,365.9299,533.66345Q368.54807,557.1312,370.73666,569.37494Q370.9222,570.8551,370.7549,572.1417Q370.81552,572.38654,370.8818,572.4518Q371.72217,572.9884,372.40652,572.9884Q373.18756,572.9884,373.7654,572.2895Q373.29605,570.9003,373.36624,568.6795Q375.26816,554.1925,377.05334,515.0138Q380.1845,444.9127,382.2016,323.58374Q365.53848,97.51324,358.09927,73.863594L358.08957,73.85105 Z"/> </g> <g style="fill:rgb(255,161,98); fill-opacity:1.0; stroke-linejoin: miter"> <path d="M487.91937,104.57986Q485.66125,109.66448,487.38348,173.13637Q489.2923,239.26956,494.39252,335.92865Q506.30713,418.19553,516.2675,479.00797L520.4038,503.60956L524.1958,524.9466Q528.40735,547.8314,531.2444,558.94543L531.2444,558.94543Q531.34766,558.89343,531.44147,558.853Q532.0175,558.5998,532.58105,558.5477Q532.80383,558.5238,533.0999,558.5238Q533.443,558.5238,533.8844,558.5559L533.8844,558.5559Q534.6718,544.0868,533.93243,510.38446Q532.4638,445.43307,526.5716,332.455Q496.38074,125.45764,487.96588,104.66515L487.91937,104.57986 Z"/> </g> <g style="fill:rgb(255,161,98); fill-opacity:1.0; stroke-linejoin: miter"> <path d="M174.33719,60.43354Q171.05438,60.43354,168.14435,63.382965Q164.0802,68.47235,163.83582,72.21445Q163.06946,82.961395,172.44736,83.786285L174.69055,83.89752Q175.2413,83.88086,175.69022,83.72641Q177.15103,83.194305,178.22913,81.85895Q181.96066,77.05969,182.5597,71.81378Q182.7619,69.9863,182.31384,68.13544Q182.03738,66.917816,181.3844,65.09613Q181.11725,64.378815,180.70123,63.77597Q178.62112,60.9292,174.7302,60.44507L174.69968,60.442474Q174.51787,60.43354,174.33719,60.43354 Z"/> </g> <g style="fill:rgb(255,203,170); fill-opacity:1.0; stroke-linejoin: miter"> <path d="M23.960585,109.405205Q8.764909,131.66098,3.7293096,149.35497L1.2740785,158.69963L-2.9554598,177.3145Q-8.275529,197.27963,-8.145967,198.0344Q-8.721726,201.16672,-9.053819,204.44946Q-9.773454,215.49734,-10.266282,218.97525L-13.243166,242.04898Q-13.7894,247.8613,-13.591463,257.27628Q-13.324633,272.01236,-12.265384,284.59808Q-12.17055,284.99512,-12.239703,299.88428L-11.773837,318.06757Q-11.41196,323.25266,-7.3779774,333.946Q-5.4645,339.3116,-4.238612,339.3116Q-3.942131,339.3116,-3.6858683,338.99777L-4.60933,330.9257Q-4.73578,329.69284,-4.7939005,328.43375Q-4.9232035,319.1457,-4.6457376,318.42157Q-2.4366612,302.0404,0.09129336,286.22052Q0.33683786,285.57013,2.1244357,263.7076Q2.5556948,259.39133,3.8430333,251.08548Q4.958863,243.59409,8.886109,230.0538Q9.390199,227.83524,9.665071,225.41153Q10.008085,222.20618,9.985597,219.14394L9.985697,219.14394Q9.985891,219.14403,9.986082,219.14403Q10.064915,219.14403,9.569901,204.8182Q9.545777,200.3634,9.706712,197.85431Q9.8104105,196.24698,9.9839945,194.83365Q11.251679,186.16933,12.106585,177.7238L13.693621,156.87135Q13.895418,154.3178,14.264772,151.19902Q14.944887,145.54405,15.784029,142.11708L18.706026,131.59908Q22.02028,121.84212,22.178804,120.39586Q23.402208,114.755295,23.931597,109.71535L23.960825,109.405205 Z"/> </g> <g style="fill:rgb(255,203,170); fill-opacity:1.0; stroke-linejoin: miter"> <path d="M40.12029,87.11698L40.044086,87.13471Q34.759434,89.730354,28.26537,100.0013L16.912539,120.90947Q-4.4379735,155.3102,-8.294129,163.77312Q-17.219622,178.55522,-25.068989,215.98679Q-26.613789,225.42142,-26.821033,236.54282L-27.349125,265.9191Q-27.294651,271.78085,-26.385975,279.0012Q-24.276434,296.06323,-23.429754,300.1192Q-23.537985,300.72864,-18.789478,320.70145Q-12.866839,345.37527,-8.048632,356.6331Q-7.605913,347.65176,-7.997072,338.59335L-10.656375,296.46637Q-10.625659,283.0138,-10.108415,273.59775Q-8.730271,258.3539,-5.7987065,238.9133L-1.7172244,216.9661Q1.2717286,197.60944,1.760895,195.24365Q5.177048,177.37697,8.818543,167.6462L11.973741,159.6595Q24.39626,131.97987,26.975101,124.94017Q28.556614,121.19029,32.96239,106.2198L36.34461,96.72673Q37.773518,92.29719,40.863834,88.59455Q41.117435,87.15177,40.12029,87.11698 Z"/> </g> <g style="fill:rgb(255,203,170); fill-opacity:1.0; stroke-linejoin: miter"> <path d="M-1.0008718,206.36792Q-4.3877573,259.69632,-5.5652633,295.0152Q-5.523027,287.4292,-7.6530466,250.38724Q-7.943696,242.61679,-7.602662,235.89334Q-6.9176035,220.19528,-1.0456086,206.48074L-1.0008818,206.36792 Z M-6.2301497,315.00183L-6.3866286,318.9287Q-6.789247,317.40985,-6.258989,315.22296L-6.2301497,315.00183 Z M16.354874,93.46283Q15.623007,93.46283,14.86368,93.70896L14.805468,93.72733Q6.406358,97.23909,-1.415558,121.28172Q-7.0760965,142.04472,-20.464876,195.92447Q-24.024433,210.91959,-25.00632,222.46951Q-26.102894,234.77914,-24.234592,245.86191Q-13.856418,299.29486,-6.4568343,320.38602Q-6.9857802,333.3165,-5.8932815,333.47775Q3.1861732,296.92664,11.665299,252.60287Q18.367647,217.81894,26.994999,168.9362Q29.258991,156.25111,29.87212,148.61543Q31.658634,128.34004,26.47469,109.86827Q22.329931,93.46283,16.354874,93.46283 Z"/> </g> <g style="fill:rgb(255,203,170); fill-opacity:1.0; stroke-linejoin: miter"> <path d="M-3.062514,147.66577Q-3.1972,147.66577,-3.35109,147.68687L-3.3831944,147.6964Q-9.234834,168.60625,-22.17029,267.43045Q-22.994436,318.08917,-22.560202,352.6086Q-22.047827,386.39102,-20.484549,389.04092Q-15.586109,378.8679,-1.1397249,268.90152Q-0.24792483,212.36087,-0.83958447,178.52867Q-1.0171357,168.632,-1.3586885,161.12889Q-1.5127871,157.85463,-1.6633608,155.66893Q-1.85553,152.68156,-2.2153475,149.58107L-2.2537997,148.06581Q-2.4761953,147.66577,-3.062514,147.66577 Z"/> </g> </g> </g> </svg>