<?xml version="1.0" encoding="UTF-8"?>
<svg width="225.78mm" height="51.182mm" version="1.1" viewBox="0 0 799.99998 181.35236" xmlns="http://www.w3.org/2000/svg">
 <g transform="translate(334.02 957.92)" stroke="#000" stroke-width="2.4229">
  <path d="m-148.54-899.32c4.384-5.3437 31.418 11.538 44.106 11.538s515.35 0.60723 523.86 0.60723c8.4104 0 42.825 17.003 45.242 18.825 2.4168 1.8217-39.248 20.039-45.29 20.039-6.0419 0-519.03 10.93-524.44 12.752-5.4378 1.8218-38.064 13.36-41.689 12.145-3.6251-1.2145-30.21-41.293-1.8126-75.906z" fill="#fff"/>
  <path d="m-175.94-882.57c-2.1046-1.7899-103.57 9.5183-118.66-2.0176-13.298-10.162-30.118-7.595-36.397 7.13-6.9959 16.406 6.6584 61.9 36.885 39.73 14.776-10.838 114.39 5.1155 117.97-8.4929" fill="#ffc726"/>
  <path d="m-185.39-956.71h30.21c5.7374 0 1.5128 12.752-1.2084 13.967v60.725s8.4588 4.858 8.4588 19.432-7.8546 17.003-8.4588 21.254c-0.60423 4.2506 0 34.312 0 46.151 2.1172 4.2508 5.5151 8.2926 3.0983 17.401h-31.495c-2.117-5.4652 0.60423-14.972 2.4168-17.401 0-11.844 0.60423-37.955 0.60423-46.758-4.534-6.0724-6.6462-12.752-6.6462-21.254s4.2295-17.382 6.6462-19.811v-58.748c-3.9248-1.8217-6.9458-14.958-3.6252-14.958z" fill="#ffc726"/>
 </g>
</svg>
