<?xml version="1.0" encoding="UTF-8"?>
<svg viewBox="0 0 500 500" xmlns="http://www.w3.org/2000/svg" xmlns:xlink="http://www.w3.org/1999/xlink">
 <defs>
  <linearGradient id="b">
   <stop stop-color="#9c7858" offset="0"/>
   <stop stop-color="#9c7858" stop-opacity="0" offset="1"/>
  </linearGradient>
  <linearGradient id="a">
   <stop stop-color="#7d5736" offset="0"/>
   <stop stop-color="#392b1e" offset="1"/>
  </linearGradient>
  <radialGradient id="x" cx="168.15" cy="140.65" r="8.7045" gradientTransform="matrix(1 0 0 3.7575 0 -387.83)" gradientUnits="userSpaceOnUse">
   <stop stop-color="#331e16" offset="0"/>
   <stop stop-color="#0c0604" offset="1"/>
  </radialGradient>
  <radialGradient id="e" cx="171.17" cy="116.18" r="5.4554" gradientTransform="matrix(1 0 0 .43094 0 66.114)" gradientUnits="userSpaceOnUse">
   <stop offset="0"/>
   <stop stop-opacity="0" offset="1"/>
  </radialGradient>
  <radialGradient id="c" cx="164.97" cy="178.88" r="12.579" gradientTransform="matrix(1 0 0 .57121 0 76.703)" gradientUnits="userSpaceOnUse">
   <stop stop-color="#663f11" offset="0"/>
   <stop stop-color="#bf7416" offset="1"/>
  </radialGradient>
  <radialGradient id="w" cx="166.62" cy="168.33" r="5.4554" gradientTransform="matrix(1 0 0 .43094 0 95.79)" gradientUnits="userSpaceOnUse" xlink:href="#b"/>
  <radialGradient id="v" cx="166.62" cy="168.33" r="5.4554" gradientTransform="matrix(1 0 0 .43094 0 95.79)" gradientUnits="userSpaceOnUse" xlink:href="#a"/>
  <radialGradient id="u" cx="167.25" cy="162.9" r="5.4554" gradientTransform="matrix(1 0 0 .43094 0 92.701)" gradientUnits="userSpaceOnUse" xlink:href="#b"/>
  <radialGradient id="t" cx="167.25" cy="162.9" r="5.4554" gradientTransform="matrix(1 0 0 .43094 0 92.701)" gradientUnits="userSpaceOnUse" xlink:href="#a"/>
  <radialGradient id="s" cx="168.14" cy="156.33" r="5.4554" gradientTransform="matrix(1 0 0 .43094 0 88.964)" gradientUnits="userSpaceOnUse" xlink:href="#b"/>
  <radialGradient id="r" cx="168.14" cy="156.33" r="5.4554" gradientTransform="matrix(1 0 0 .43094 0 88.964)" gradientUnits="userSpaceOnUse" xlink:href="#a"/>
  <radialGradient id="q" cx="169.4" cy="150.65" r="5.4554" gradientTransform="matrix(1 0 0 .43094 0 85.731)" gradientUnits="userSpaceOnUse" xlink:href="#b"/>
  <radialGradient id="p" cx="169.4" cy="150.65" r="5.4554" gradientTransform="matrix(1 0 0 .43094 0 85.731)" gradientUnits="userSpaceOnUse" xlink:href="#a"/>
  <radialGradient id="o" cx="170.29" cy="144.46" r="5.4554" gradientTransform="matrix(1 0 0 .43094 0 82.21)" gradientUnits="userSpaceOnUse" xlink:href="#b"/>
  <radialGradient id="n" cx="170.29" cy="144.46" r="5.4554" gradientTransform="matrix(1 0 0 .43094 0 82.21)" gradientUnits="userSpaceOnUse" xlink:href="#a"/>
  <radialGradient id="m" cx="170.54" cy="138.78" r="5.4554" gradientTransform="matrix(1 0 0 .43094 0 78.976)" gradientUnits="userSpaceOnUse" xlink:href="#b"/>
  <radialGradient id="l" cx="170.54" cy="138.78" r="5.4554" gradientTransform="matrix(1 0 0 .43094 0 78.976)" gradientUnits="userSpaceOnUse" xlink:href="#a"/>
  <radialGradient id="k" cx="170.79" cy="132.47" r="5.4554" gradientTransform="matrix(1 0 0 .43094 0 75.384)" gradientUnits="userSpaceOnUse" xlink:href="#b"/>
  <radialGradient id="j" cx="170.79" cy="132.47" r="5.4554" gradientTransform="matrix(1 0 0 .43094 0 75.384)" gradientUnits="userSpaceOnUse" xlink:href="#a"/>
  <radialGradient id="i" cx="171.04" cy="127.04" r="5.4554" gradientTransform="matrix(1 0 0 .43094 0 72.294)" gradientUnits="userSpaceOnUse" xlink:href="#b"/>
  <radialGradient id="h" cx="171.04" cy="127.04" r="5.4554" gradientTransform="matrix(1 0 0 .43094 0 72.294)" gradientUnits="userSpaceOnUse" xlink:href="#a"/>
  <radialGradient id="g" cx="171.3" cy="121.61" r="5.4554" gradientTransform="matrix(1 0 0 .43094 0 69.204)" gradientUnits="userSpaceOnUse" xlink:href="#b"/>
  <radialGradient id="f" cx="171.3" cy="121.61" r="5.4554" gradientTransform="matrix(1 0 0 .43094 0 69.204)" gradientUnits="userSpaceOnUse" xlink:href="#a"/>
  <radialGradient id="d" cx="171.17" cy="116.18" r="5.4554" gradientTransform="matrix(1 0 0 .43094 0 66.114)" gradientUnits="userSpaceOnUse" xlink:href="#a"/>
 </defs>
 <g transform="matrix(1.768 .81864 -.81864 1.768 238.45 -301.35)">
  <path d="m169.93 172.51c-2.5729-1.1367-5.8364-1.8784-8.2932-1.8849l-2.0081-5e-3 0.68753-2.9464c1.19-5.0995 3.0644-16.236 4.0125-23.839 1.624-13.023 1.776-21.408 0.5381-29.694-0.41269-2.7623-0.39921-3.1815 0.1282-3.9864 0.7687-1.1732 4.4211-2.0338 8.631-2.0338h3.0545v7.4139c0 7.7982-0.80897 26.454-1.4363 33.122-0.32178 3.4204-3.0884 23.925-3.3052 24.496-0.0439 0.1158-0.94804-0.17301-2.0091-0.64179z" fill="url(#x)" stroke="#000" stroke-linecap="round" stroke-linejoin="round" stroke-width=".35714"/>
  <path d="m162.97036,167.74899c.36513-.0204.73079-.0306 1.09632-.0412 .46566-.0105.93127-.029 1.39708-.0285 .39209-.004.7828.0227 1.17265.0612 .41628.0495.82544.14021 1.23485.22781 .35757.0805.7117.17223 1.06159.28116 .29727.0929.58623.20837.86907.33824 .19779.0984.38961.20798.57706.32472l-.10594.0683c-.18719-.11623-.37856-.22568-.57615-.32341-.28262-.12928-.57121-.24449-.86815-.33692-.34963-.10868-.70361-.1999-1.06088-.28026-.40909-.0875-.81802-.17783-1.23407-.22663-.3896-.0383-.78009-.0641-1.17188-.0603-.46573,0-.93125.0181-1.39682.0288-.36571.0107-.73148.0215-1.09683.0411l.1021-.0742z" fill="url(#w)" stroke="url(#v)" stroke-linecap="round" stroke-linejoin="round" stroke-width="3.4"/>
  <path d="m163.60171,162.31942c.36513-.0204.73079-.0306 1.09632-.0412 .46566-.0105.93127-.029 1.39708-.0285 .39209-.004.7828.0227 1.17265.0612 .41628.0495.82544.14021 1.23485.22781 .35757.0805.7117.17223 1.06159.28116 .29727.0929.58623.20837.86907.33824 .19779.0984.38961.20798.57706.32472l-.10594.0683c-.18719-.11623-.37856-.22568-.57615-.32341-.28262-.12928-.57121-.24449-.86815-.33692-.34963-.10868-.70361-.1999-1.06088-.28026-.40909-.0875-.81802-.17783-1.23407-.22663-.3896-.0383-.78009-.0641-1.17188-.0603-.46573,0-.93125.0181-1.39682.0288-.36571.0107-.73148.0215-1.09683.0411l.1021-.0742z" fill="url(#u)" stroke="url(#t)" stroke-linecap="round" stroke-linejoin="round" stroke-width="3.4"/>
  <path d="m164.48559,155.75343c.36513-.0204.73079-.0306 1.09632-.0412 .46566-.0105.93127-.029 1.39708-.0285 .39209-.004.7828.0227 1.17265.0612 .41628.0495.82544.14021 1.23485.22781 .35757.0805.7117.17223 1.06159.28116 .29727.0929.58623.20837.86907.33824 .19779.0984.38961.20798.57706.32472l-.10594.0683c-.18719-.11623-.37856-.22568-.57615-.32341-.28262-.12928-.57121-.24449-.86815-.33692-.34963-.10868-.70361-.1999-1.06088-.28026-.40909-.0875-.81802-.17783-1.23407-.22663-.3896-.0383-.78009-.0641-1.17188-.0603-.46573,0-.93125.0181-1.39682.0288-.36571.0107-.73148.0215-1.09683.0411l.1021-.0742z" fill="url(#s)" stroke="url(#r)" stroke-linecap="round" stroke-linejoin="round" stroke-width="3.4"/>
  <path d="m165.74828,150.07132c.36513-.0204.73079-.0306 1.09632-.0412 .46566-.0105.93127-.029 1.39708-.0285 .39209-.004.7828.0227 1.17265.0612 .41628.0495.82544.14021 1.23485.22781 .35757.0805.7117.17223 1.06159.28116 .29727.0929.58623.20837.86907.33824 .19779.0984.38961.20798.57706.32472l-.10594.0683c-.18719-.11623-.37856-.22568-.57615-.32341-.28262-.12928-.57121-.24449-.86815-.33692-.34963-.10868-.70361-.1999-1.06088-.28026-.40909-.0875-.81802-.17783-1.23407-.22663-.3896-.0383-.78009-.0641-1.17188-.0603-.46573,0-.93125.0181-1.39682.0288-.36571.0107-.73148.0215-1.09683.0411l.1021-.0742z" fill="url(#q)" stroke="url(#p)" stroke-linecap="round" stroke-linejoin="round" stroke-width="3.4"/>
  <path d="m166.63216,143.88414c.36513-.0204.73079-.0306 1.09632-.0412 .46566-.0105.93127-.029 1.39708-.0285 .39209-.004.7828.0227 1.17265.0612 .41628.0495.82544.14021 1.23485.22781 .35757.0805.7117.17223 1.06159.28116 .29727.0929.58623.20837.86907.33824 .19779.0984.38961.20798.57706.32472l-.10594.0683c-.18719-.11623-.37856-.22568-.57615-.32341-.28262-.12928-.57121-.24449-.86815-.33692-.34963-.10868-.70361-.1999-1.06088-.28026-.40909-.0875-.81802-.17783-1.23407-.22663-.3896-.0383-.78009-.0641-1.17188-.0603-.46573,0-.93125.0181-1.39682.0288-.36571.0107-.73148.0215-1.09683.0411l.1021-.0742z" fill="url(#o)" stroke="url(#n)" stroke-linecap="round" stroke-linejoin="round" stroke-width="3.4"/>
  <path d="m166.8847,138.20202c.36513-.0204.73079-.0306 1.09632-.0412 .46566-.0105.93127-.029 1.39708-.0285 .39209-.004.7828.0227 1.17265.0612 .41628.0495.82544.14021 1.23485.22781 .35757.0805.7117.17223 1.06159.28116 .29727.0929.58623.20837.86907.33824 .19779.0984.38961.20798.57706.32472l-.10594.0683c-.18719-.11623-.37856-.22568-.57615-.32341-.28262-.12928-.57121-.24449-.86815-.33692-.34963-.10868-.70361-.1999-1.06088-.28026-.40909-.0875-.81802-.17783-1.23407-.22663-.3896-.0383-.78009-.0641-1.17188-.0603-.46573,0-.93125.0181-1.39682.0288-.36571.0107-.73148.0215-1.09683.0411l.1021-.0742z" fill="url(#m)" stroke="url(#l)" stroke-linecap="round" stroke-linejoin="round" stroke-width="3.4"/>
  <path d="m167.13724,131.88857c.36513-.0204.73079-.0306 1.09632-.0412 .46566-.0105.93127-.029 1.39708-.0285 .39209-.004.7828.0227 1.17265.0612 .41628.0495.82544.14021 1.23485.22781 .35757.0805.7117.17223 1.06159.28116 .29727.0929.58623.20837.86907.33824 .19779.0984.38961.20798.57706.32472l-.10594.0683c-.18719-.11623-.37856-.22568-.57615-.32341-.28262-.12928-.57121-.24449-.86815-.33692-.34963-.10868-.70361-.1999-1.06088-.28026-.40909-.0875-.81802-.17783-1.23407-.22663-.3896-.0383-.78009-.0641-1.17188-.0603-.46573,0-.93125.0181-1.39682.0288-.36571.0107-.73148.0215-1.09683.0411l.1021-.0742z" fill="url(#k)" stroke="url(#j)" stroke-linecap="round" stroke-linejoin="round" stroke-width="3.4"/>
  <path d="m167.38978,126.459c.36513-.0204.73079-.0306 1.09632-.0412 .46566-.0105.93127-.029 1.39708-.0285 .39209-.004.7828.0227 1.17265.0612 .41628.0495.82544.14021 1.23485.22781 .35757.0805.7117.17223 1.06159.28116 .29727.0929.58623.20837.86907.33824 .19779.0984.38961.20798.57706.32472l-.10594.0683c-.18719-.11623-.37856-.22568-.57615-.32341-.28262-.12928-.57121-.24449-.86815-.33692-.34963-.10868-.70361-.1999-1.06088-.28026-.40909-.0875-.81802-.17783-1.23407-.22663-.3896-.0383-.78009-.0641-1.17188-.0603-.46573,0-.93125.0181-1.39682.0288-.36571.0107-.73148.0215-1.09683.0411l.1021-.0742z" fill="url(#i)" stroke="url(#h)" stroke-linecap="round" stroke-linejoin="round" stroke-width="3.4"/>
  <path d="m167.64232,121.02943c.36513-.0204.73079-.0306 1.09632-.0412 .46566-.0105.93127-.029 1.39708-.0285 .39209-.004.7828.0227 1.17265.0612 .41628.0495.82544.14021 1.23485.22781 .35757.0805.7117.17223 1.06159.28116 .29727.0929.58623.20837.86907.33824 .19779.0984.38961.20798.57706.32472l-.10594.0683c-.18719-.11623-.37856-.22568-.57615-.32341-.28262-.12928-.57121-.24449-.86815-.33692-.34963-.10868-.70361-.1999-1.06088-.28026-.40909-.0875-.81802-.17783-1.23407-.22663-.3896-.0383-.78009-.0641-1.17188-.0603-.46573,0-.93125.0181-1.39682.0288-.36571.0107-.73148.0215-1.09683.0411l.1021-.0742z" fill="url(#g)" stroke="url(#f)" stroke-linecap="round" stroke-linejoin="round" stroke-width="3.4"/>
  <path d="m167.51605,115.59987c.36513-.0204.73079-.0306 1.09632-.0412 .46566-.0105.93127-.029 1.39708-.0285 .39209-.004.7828.0227 1.17265.0612 .41628.0495.82544.14021 1.23485.22781 .35757.0805.7117.17223 1.06159.28116 .29727.0929.58623.20837.86907.33824 .19779.0984.38961.20798.57706.32472l-.10594.0683c-.18719-.11623-.37856-.22568-.57615-.32341-.28262-.12928-.57121-.24449-.86815-.33692-.34963-.10868-.70361-.1999-1.06088-.28026-.40909-.0875-.81802-.17783-1.23407-.22663-.3896-.0383-.78009-.0641-1.17188-.0603-.46573,0-.93125.0181-1.39682.0288-.36571.0107-.73148.0215-1.09683.0411l.1021-.0742z" fill="url(#e)" stroke="url(#d)" stroke-linecap="round" stroke-linejoin="round" stroke-width="3.4"/>
  <path d="m158.54989,181.37544c.15164-.0449.30233-.0901.4578-.12002 .26411-.0452.53094-.0721.79762-.0967 .33242-.0277.66566-.0438.99882-.0594 .32105-.0162.64196-.0287.96342-.0246 .30849.00045.61604.0199.92371.0398 .33451.0149.66598.0626.99715.10915 .30661.0464.6155.075.92271.11648 .28346.0384.5666.0778.84662.13677 .2608.056.52014.11916.7777.18858 .2437.0652.48326.14512.7212.22872 .22506.0823.45357.15455.67972.23353l.6559.24593c.20637.0748.406.16617.60278.26302l.18732.10449-.10565.0688c-.12444-.0696-.0621-.035-.18694-.10393-.19666-.0965-.39613-.18746-.60221-.26217-.2171-.0856-.43559-.1677-.65561-.24551-.2263-.0786-.45457-.15158-.67973-.23356-.23773-.0835-.47716-.1629-.72066-.22795-.25749-.069-.51659-.13228-.77729-.188-.27991-.0583-.56283-.0977-.84607-.13603-.30729-.041-.6161-.0703-.92273-.11656-.33098-.0465-.6623-.0935-.99661-.10838-.30753-.0199-.61499-.0388-.92334-.0393-.3213-.004-.64206.009-.96296.0252-.33306.0157-.66622.0318-.99851.0599-.26647.0248-.53313.0517-.79691.0978-.1551.0309-.30565.0764-.45725.12095l.1-.077z" fill="none" stroke="#000" stroke-dasharray="1, 1" stroke-linecap="round" stroke-linejoin="round"/>
  <path d="m168.35614,185.83969c0-.45633.52363-2.55782.62217-2.49693 .19006.11747.64052-.33059.64052-.63709 0-.22205-.12493-.38648-.43067-.56687-.23687-.13976-.46571-.34543-.50855-.45707-.0709-.18484-.0917-.1842-.23225.007s-.19076.19066-.63938-.0502c-.26676-.1432-.80656-.31955-1.19955-.39189s-.77136-.17758-.84081-.23387c-.16614-.13467-2.22406-.38584-3.68559-.44984-1.60313-.0702-3.5388.12492-3.82702.38576-.12821.11603-.29403.55908-.38024,1.01598l-.15288.81022-1.09293-.74856c-1.85655-1.27158-3.40367-3.00138-3.9459-4.41182-.89023-2.31569.30264-4.23273 3.25961-5.23846 1.13389-.38566 1.8991-.51425 2.09534-.3521 .0844.0697.36654.16662.62697.21529 .38431.0718.47351.051.47351-.11053 0-.3836.47527-.48935 1.81446-.40374 5.39465.34486 10.24118,2.1133 13.64345,4.97833 3.441,2.89764 3.92267,6.01265 1.20986,7.8242-1.41783.94679-3.07349,1.37657-5.77312,1.49859-1.6383.0741-1.677.0697-1.677-.18667z" fill="url(#c)"/>
  <path d="m91.893 385.03c29.027-58.528 49.294-117.89 64.039-187.58 1.734-8.1949 3.3295-15.099 3.5454-15.341 0.43457-0.48895 6.4517 0.0217 7.4379 0.63128 0.47471 0.29338-0.15318 3.991-2.6325 15.503-13.193 61.255-24.931 99.418-43.878 142.65-4.8038 10.961-18.104 37.725-24.443 49.187-4.2337 7.6552-4.5422 8.0686-6.7182 9.0022-1.2544 0.53819-2.912 1.1051-3.6835 1.2599-1.3514 0.27105-1.1195-0.28993 6.3327-15.316z" fill="#e6e6e6"/>
  <path d="m89.398 399.99c8.5384-21.25 18.043-36.24 27.293-55.044 6.0191-12.235 11.931-27.832 17.398-41.835 13.333-34.148 23.913-77.339 32.585-120.81" fill="none" stroke="#f2f2f2"/>
  <path d="m91.307 397.15c0-0.27071 2.2074-5.3512 4.4055-10.139 2.0046-4.3668 6.679-13.507 12.14-23.739 10.319-19.332 13.472-26.162 21.632-46.846 7.4244-18.82 8.6741-22.204 12.618-34.167 1.2956-3.93 2.3933-7.0323 2.4394-6.8941 0.18345 0.55035-5.5653 17.995-9.4949 28.813-4.6872 12.903-12.456 31.788-17.794 43.251-7.5362 16.186-21.008 42.519-24.87 48.61-0.81534 1.2863-1.0774 1.5565-1.0774 1.111z" fill="#e6e6e6" stroke="#f2f2f2" stroke-dasharray="0.25253814, 0.25253814" stroke-linecap="round" stroke-linejoin="round" stroke-width=".25254"/>
  <path d="m91.81183,396.21291c0-.0763.16593-.45968.36874-.85186s.29751-.78429.21045-.87135-.04853-.15828.08561-.15828c.22759,0 1.00166-1.77643.86804-1.99207-.03341-.0539.03733-.16756.1572-.25254 .28259-.20033 1.23342-2.35771 1.15102-2.61161-.03472-.107.05051-.19454.1894-.19454s.25254-.10673.25254-.23717c0-.43953 5.20247-10.93995 9.5168-19.20827 2.35543-4.51412 4.50975-8.66206 4.78738-9.21764s1.08416-2.06134 1.79228-3.34613 1.21153-2.33772 1.11868-2.33985-.0478-.0874.10013-.1894c.39662-.27361 4.38946-8.3224 4.21508-8.49677-.0818-.0818-.0239-.1488.12883-.1488s.35729-.25569.45468-.56821 .78521-1.79536 1.52848-3.29521 1.7007-3.54541 2.12763-4.54568 .87594-2.04597.99781-2.32377c2.60404-5.93541 8.06252-19.24861 8.17981-19.95051 .0232-.13889.35354-1.01885.73406-1.95546s.96422-2.41396 1.2971-3.283 .9277-2.37389 1.32182-3.34411 .71827-1.82254.72035-1.89404c.0145-.4986 1.23289-3.00203 1.4083-2.89363 .12074.0746.1085.32853-.0273.56564s-1.65939,4.1236-3.38646,8.63772-3.78217,9.79676-4.56688,11.73919-1.44186,3.7323-1.46033,3.97748-.1076.44577-.19807.44577c-.19246,0-1.12477,2.30953-1.04492,2.58852 .0298.10417-.0366.1894-.1476.1894-.17478,0-.80363,1.4073-.9592,2.14658-.0292.13889-.62256,1.52179-1.31851,3.0731s-1.19932,2.8866-1.1186,2.96732 .0142.14676-.14787.14676-.27189.0852-.24411.1894-.25784.78526-.63473,1.51352-.68679,1.38028-.68867,1.44893-.51175,1.22005-1.13304,2.55866-1.12961,2.47154-1.12961,2.51765c0,.1943-6.33294,13.31087-8.98239,18.60402-1.58166,3.15988-2.79303,5.74698-2.69192,5.74911s.0549.0873-.10256.1894-.56394.75375-.90319,1.44823-2.47279,4.7856-4.74121,9.09137l-4.78458,9.09137c-.96274,1.84141-3.07505,5.42957-3.19633,5.42957-.05729,0-.10417-.0625-.10417-.13881z" fill="#e6e6e6" stroke="#f2f2f2" stroke-dasharray="0.25253814, 0.25253814" stroke-linecap="round" stroke-linejoin="round" stroke-width=".25254"/>
  <path d="m92.61068,394.73663c0-.11974.13843-.46567.30763-.76873s.37802-.79698.46405-1.09759 .19787-.60339.24853-.67284c.29267-.40119.87095-1.59571 1.00861-2.08344 .08821-.31251.25386-.65344.36812-.75761s.31373-.4451.44327-.75762c.82177-1.98258 5.74051-11.8461 9.69705-19.44543l1.606-3.0936c2.03123-3.92124 2.51395-4.84879 3.12142-5.99778 .34882-.65975.74959-1.4049.8906-1.65588 .3291-.58575 1.46565-2.81946 1.72736-3.39488 .11056-.24307.36814-.72605.57241-1.07329 .57843-.98329 2.93886-5.70784 3.34351-6.69226 .19984-.48613.43406-.94368.52051-1.01678s.32548-.49925.53118-.94701 .71408-1.52439 1.12972-2.39249 .93779-1.97611 1.16033-2.46225c.61287-1.3388.92507-1.95717.98811-1.95717 .1243,0-.12662.67781-.71008,1.91815-.60645,1.2892-.68952,1.47133-1.34229,2.94321-1.27428,2.87325-1.70312,3.7953-4.16966,8.96511-.61671,1.29259-2.85879,5.90626-4.38743,9.02823-3.49939,7.14693-4.63951,9.52592-4.63951,9.68088 0,.0363-.10699.21682-.23775.40116-.3208.45223-.61723.98919-1.70741,3.09282-.50964.98342-1.22529,2.35624-1.59034,3.05072s-1.0644,2.02978-1.55412,2.96732-1.21978,2.32967-1.62235,3.0936-.97477,1.87193-1.27157,2.46224-.56813,1.1017-.60298,1.13642-.3137.54612-.61966,1.13643c-1.08757,2.09827-1.57105,2.98919-2.56963,4.73509-1.15575,2.02068-1.10363,1.94252-1.10363,1.65527z" fill="#e6e6e6" stroke="#f2f2f2" stroke-dasharray="0.12626907, 0.12626907" stroke-linecap="round" stroke-linejoin="round" stroke-width=".12627"/>
  <path d="m157.85 180.72s-15.964 72.931-19.229 82.893-3.2653 10.673-3.2653 10.673" fill="none" stroke="#666" stroke-width="1.006"/>
  <path d="m102.14 380.71s-8.5714 17.857-10.357 18.929-9.2857 2.8571-9.2857 2.8571" fill="none" stroke="#b3b3b3"/>
  <path d="m82.5 401.79 29.286-62.5-29.286 63.929" fill="none" stroke="#999" stroke-width=".75"/>
  <path d="m158.57 172.14c3.7757-15.044 7.3976-40.268 6.4286-52.5-1.4286-8.9286-2.1429-10.357 1.7857-11.429s10.357-1.4286 10.714 0-0.71429 37.143-2.1429 46.071-2.8571 20.357-2.8571 20.357v-0.35715" fill="none" stroke="#000"/>
  <path transform="matrix(-.51752 .24845 -.88716 -.57233 415.04 242.97)" d="m182.74 183.04c1.0768 6.362-5.1121 12.157-13.823 12.943s-16.646-3.7336-17.722-10.096 5.1121-12.157 13.823-12.943c4.1442-0.37411 8.3234 0.45796 11.634 2.3163" fill="none" stroke="#bc7216" stroke-width="1.3913"/>
  <path d="m158.57 181.43c-16.738 84.665-40.376 152.33-76.071 220.71 0 0 7.8571-2.1429 9.6429-3.5714 41.915-73.844 59.384-133.41 76.071-215 0.35714-1.4286 0.35714-0.71429 0.35714-0.71429" fill="none" stroke="#e6e6e6"/>
 </g>
</svg>
