<?xml version="1.0" encoding="UTF-8"?>
<svg version="1.1" viewBox="0 0 699.65 693.22" xmlns="http://www.w3.org/2000/svg">
 <defs>
  <radialGradient id="a" cx="235.18" cy="563.8" r="61.993" gradientTransform="matrix(1 0 0 .92857 0 40.271)" gradientUnits="userSpaceOnUse">
   <stop stop-color="#fff" offset="0"/>
   <stop stop-color="#fff" stop-opacity="0" offset="1"/>
  </radialGradient>
 </defs>
 <g transform="translate(-5.4643 -162.89)">
  <g transform="translate(396.85 7.8745)">
   <path d="m-208.88 641.94 184.78-216.52 78.394-96.125 11.199 4.6663 5.5995-26.131 60.662-58.795 128.79-58.795 44.796-22.398-78.394 135.32-20.532 44.796-182.92 158.65-117.59 114.79-74.661 64.395-10.266 0.93326-23.331-27.998z" fill="#e6e6e6" stroke="#000" stroke-width="5"/>
   <path d="m-190.22 669.94 39.197-32.664 42.93-49.463 91.459-101.72 64.395-66.261 50.396-53.196 50.396-47.596 52.262-53.196 42.93-41.997 53.196-50.396-88.659 173.59-105.46 90.526-140.92 128.79-119.46 110.12-17.732 11.199z" fill-opacity=".10702" stroke="#000" stroke-width="5"/>
   <path d="m-225.89 679.69c-1.8823-1.2548-6.9016-5.9605-6.9016-5.9605l3.7645-10.98 5.6468-4.392 9.4113-0.94113 6.2742 2.196 3.4508 5.3331-1.5686 11.294 8.1565 5.6468 6.5879 7.5291 4.392 7.5291s-0.31371 6.2742-1.8823 6.5879c-1.5686 0.31371-5.9605 2.5097-7.5291 2.5097s-8.4702-2.8234-8.4702-2.8234l-3.4508-8.1565-3.1371-6.2742-5.3331-6.9016z" fill="#fff" stroke-width="5"/>
   <path d="m-222.13 694.12-4.0782-8.4702 4.0782-5.6468 5.9605 4.7057 5.0194 6.9016s4.7057 5.9605 3.4508 5.9605c-1.2548 0-6.5879 1.2548-6.5879 1.2548l-4.392-1.2548z" fill="#fc0" stroke="#000" stroke-width="5"/>
   <path d="m-274.02 706.39s15.993 11.255 27.248 11.847c11.255 0.59234 43.834-0.59235 40.872-1.777-2.9617-1.1847-28.433-3.5541-28.433-3.5541s-23.102-5.3311-25.471-5.9235c-2.3694-0.59235-14.216-0.59235-14.216-0.59235z" fill-opacity=".11037" stroke-width="5"/>
   <path d="m-371.96 752.35c-0.94113-1.2548-0.94113-15.999-0.94113-15.999l10.98-16.313 24.783-5.0194 9.4113 10.039 10.352 12.862 64.938 66.193s7.8428 11.294 6.2742 12.548c-1.5686 1.2548-7.8428 12.548-9.0976 12.862-1.2548 0.31371-19.764 7.5291-19.764 7.5291l-8.4702-4.392 10.039-16.627-37.018-18.509s-10.039-7.2154-12.235-9.0976c-2.196-1.8823-15.372-16.94-15.372-16.94s-4.392-11.294-5.0194-12.548c-0.62742-1.2548-13.176-17.254-13.176-17.254l-8.4702 0.94113z" fill="#333" stroke="#000" stroke-width="5"/>
   <path d="m-227.97 689.92-33.881-50.821-30.116-27.293-15.372-14.744 25.411-1.2548 60.86-13.49-2.196 18.823 8.4702 35.136 18.823 24.156 17.568 19.136 13.176 11.921 26.352 10.666 21.332-8.4702s3.1371 14.431 1.5686 16.627c-1.5686 2.196-14.744 39.214-14.744 39.214l-5.6468 23.215s-0.94113 10.98-2.5097 10.039c-1.5686-0.94114-20.391-24.156-20.391-24.156l-25.72-24.5-26.98-24.15z" fill="#333" stroke="#000" stroke-width="5"/>
   <path d="m-325.22 733.53 24.156-5.6468s13.803-13.49 14.431-14.744c0.62742-1.2548 13.49-13.803 13.49-13.803l15.058-12.235 16.313-17.568 29.489 37.018 10.666 15.058-12.548 18.195-15.058 13.49-24.156 21.019-7.2154 14.431s-1.2548 9.725-3.1371 10.352c-1.8823 0.62742-16.313-4.7057-16.313-4.7057l-20.086-17.57s-12.235-15.999-12.862-17.254c-0.62742-1.2548-8.1565-8.7839-8.7839-10.666-0.62742-1.8823-3.4508-15.372-3.4508-15.372z" fill="#666" stroke="#000" stroke-width="5"/>
   <path d="m-220.12 698.69s31.394 23.694 56.865 18.955c25.471-4.7388 28.433-1.777 36.133-10.07 7.7005-8.2929 9.4776-5.9235 9.4776-5.9235l-6.5158 33.171-13.032 46.795s-20.14-21.324-21.917-24.286c-1.777-2.9617-21.917-18.955-23.694-21.325-1.777-2.3694-21.325-16.586-21.325-16.586z" fill-opacity=".11037" stroke-width="5"/>
   <path d="m-249.37 662.19c0.59235-4.7388 8.2929-25.471-5.3311-37.91s-54.496-23.102-54.496-23.102l43.241 36.726z" fill-opacity=".11037" stroke-width="5"/>
   <path d="m-290.61 725.35c2.3694 1.1847 26.656 11.255 40.28 11.255s34.948-3.5541 34.948-3.5541-27.248-2.9617-30.802-2.9617c-3.5541 0-18.955-2.3694-21.325-2.3694-2.3694 0-24.879-7.7005-24.879-7.7005z" fill-opacity=".11037" stroke-width="5"/>
   <path d="m-306.6 739.56s25.471 14.809 35.541 14.809 34.356-0.59235 34.356-0.59235-21.917-5.3311-24.879-5.3311c-2.9617 0-22.509-3.5541-22.509-3.5541l-20.732-9.4776z" fill-opacity=".11037" stroke-width="5"/>
   <path d="m-312.53 758.52 55.681 15.993-5.9235 7.1082s-5.3311-0.59234-24.879-7.1082c-19.547-6.5158-23.102-8.2929-23.102-8.2929z" fill-opacity=".11037" stroke-width="5"/>
   <path d="m-342.74 765.03s11.847 14.216 39.095 20.732c27.248 6.5158 50.942 15.401 50.942 15.401l5.3311 18.363s-9.4776 13.032-12.439 13.032c-2.9617 0-27.248-1.1847-27.248-1.1847l13.032-13.032s-6.5158-14.216-18.363-14.216-30.802-13.624-30.802-13.624l-16.589-14.81z" fill-opacity=".11037" stroke-width="5"/>
   <path d="m-348.66 753.19s42.649 8.2929 85.298-8.8852 56.273-29.025 56.273-29.025l7.7005 10.07-21.324 18.955-23.102 23.694-16.586 17.178-1.777 14.216 11.847 7.1082-4.1464 24.879s-20.14 2.9617-22.509 2.9617c-2.3694 0-10.662-2.9617-10.662-2.9617s15.401-17.178 11.847-17.178c-3.5541 0-40.28-18.955-40.28-18.955s-18.955-18.955-20.732-21.917c-1.777-2.9617-11.847-20.14-11.847-20.14z" fill-opacity=".11037" stroke-width="5"/>
   <path transform="matrix(1.2381 0 0 1.2381 -92.87 -476.73)" d="m297.17 563.8c0 31.792-27.755 57.565-61.993 57.565s-61.993-25.773-61.993-57.565 27.755-57.565 61.993-57.565 61.993 25.773 61.993 57.565z" fill="url(#a)" stroke-width="4.0384"/>
  </g>
 </g>
</svg>
