<?xml version="1.0" encoding="UTF-8"?>
<svg viewBox="0 0 193.46901 26.453674" xmlns="http://www.w3.org/2000/svg">
 <g transform="translate(536.56 -563.81)">
  <path d="m-366.03125,563.82812c-.62967.10729-1.55647.62555-2.4375,1.53125-1.95911,2.01398-2.57553,3.10324-3.75,6.46875l-.90625,2.5c-2.16745.12843-4.15657.25728-6.25.375-.03088-.00685-.1024-.02396-.125-.03125-2.09435-.05469-3.56619.06639-4.5625.28125-70.41298,3.79466-99.20616,1.51142-152.09375,1.1875l-.40625,1.125c54.03411,1.03095 83.13742,3.82933 157.15625.65625 .27248.02116.52517.0483.8125.0625 .19743.06076 1.39057.06567 2.625.03125s2.39996.06308 2.625.21875c.40152.2777 1.26635,2.69692 1.125,3.15625-.12071.39225 3.34377,5.64123 4.1875,6.34375 2.56375,2.13461 5.6614,2.92027 9.1875,2.34375 4.44858-.72737 8.5294-4.77751 9.8125-9.75 .22895-.88726.55024-1.64357.71875-1.6875s.91454.04565 1.65625.1875c1.66606.31871 2.175.22437 2.9375-.53125 .4802-.47585.61792-.82941.625-1.78125 .00756-1.01532-.1461-1.3049-1.0625-1.96875-.58861-.42641-1.28066-.7352-1.53125-.6875s-1.03503-.0121-1.75-.125-2.38661-.18527-3.71875-.1875-4.471-.02686-6.96875-.03125-5.09127.0269-5.75.0625c-1.39962.07567-1.53826-.02643-1.46875-1.125 .10009-1.5816.07192-5.97882-.03125-6.53125-.05732-.30695-.02906-.79629.0625-1.09375 .24538-.79741-.08908-1.10729-.71875-1zm-2.0625,4.5625c.09936-.01664.00789.26494-.3125.90625-.75086,1.50301-1.68246,4.50301-1.78125,5.75-.04187.52857-.18949.91288-.3125.875s-.19828-.21092-.15625-.40625 .21318-1.09261.34375-1.96875c.25516-1.71223 1.35972-4.39956 2.0625-5.03125 .07806-.07016.12313-.11945.15625-.125zm10.21875,10.03125c.36099-.01335.69239-.03073.875,0 .3652.06149.87101.10702 1.125.09375 .70173-.03663 2.19498.04629 2.75.15625 .27197.05388.73312-.00098 1.03125-.125 .87015-.36194.97479.33505.40625,2.5625-.53937,2.11328-1.08597,2.89309-3,4.21875-1.78259,1.23464-4.46661,1.37339-6.5625.34375-2.12818-1.0455-3.24742-2.57838-3.78125-5.15625-.25968-1.25389-.0729-2.01046.46875-1.84375 .55173.16979 3.90347.07555 5.5625-.15625 .3651-.05101.76401-.0804 1.125-.09375z"/>
 </g>
</svg>
