<?xml version="1.0" encoding="UTF-8"?>
<svg viewBox="0 0 744.09448 350" xmlns="http://www.w3.org/2000/svg">
 <defs>
  <filter id="j">
   <feGaussianBlur stdDeviation=".9784"/>
  </filter>
  <filter id="i">
   <feGaussianBlur stdDeviation="2.8924"/>
  </filter>
  <filter id="f" x="-.15876" y="-.97636" width="1.3175" height="2.9527">
   <feGaussianBlur stdDeviation=".5434"/>
  </filter>
  <filter id="e" x="-.15215" y="-.62515" width="1.3043" height="2.2503">
   <feGaussianBlur stdDeviation=".5434"/>
  </filter>
  <filter id="d" x="-.31752" y="-.80272" width="1.635" height="2.6054">
   <feGaussianBlur stdDeviation=".5434"/>
  </filter>
  <filter id="c" x="-.13779" y="-.94254" width="1.2756" height="2.8851">
   <feGaussianBlur stdDeviation=".5434"/>
  </filter>
  <filter id="b" x="-.18969" y="-.88778" width="1.3794" height="2.7756">
   <feGaussianBlur stdDeviation=".5434"/>
  </filter>
  <filter id="a" x="-.04338" y="-.16167" width="1.0868" height="1.3234">
   <feGaussianBlur stdDeviation="1.4555"/>
  </filter>
  <linearGradient id="h" x1="246.34" x2="249.29" y1="421.44" y2="406.08" gradientUnits="userSpaceOnUse">
   <stop stop-color="#b3b3b3" offset="0"/>
   <stop stop-color="#ccc" offset=".264"/>
   <stop stop-color="#666" offset=".4461"/>
   <stop stop-color="#757575" offset=".6014"/>
   <stop stop-color="#333" offset=".7755"/>
   <stop stop-color="#4d4d4d" offset="1"/>
  </linearGradient>
  <radialGradient id="g" cx="477.98" cy="467.19" r="5.7339" gradientTransform="matrix(.92697 .34974 -.89719 2.378 453.86 -810.05)" gradientUnits="userSpaceOnUse">
   <stop stop-color="#666" offset="0"/>
   <stop offset="1"/>
  </radialGradient>
 </defs>
 <g transform="matrix(1.4974 0 0 2.3122 -116.44 -836.45)">
  <g transform="translate(-26.429 125.71)" filter="url(#i)">
   <path d="m181.79 294.86c40.668-3.0338 125.85 12.437 125.85 12.437l6.2904-2.871 4.0134 5.1974 5.905-3.8021 3.7683 6.085 6.1161-3.9312 3.4352 6.2649 5.9881-4.2191 2.4141 6.3269 6.3292-4.1558 2.6707 6.4597 6.3346-4.5351 2.9501 6.9505 5.7289-4.6983 2.8812 6.963 6.089-4.4608 2.7992 6.7266s54.849 5.2144 38.941 17.744c5.1897 8.7232 25.021-1.1828 34.816 1.0566 11.078 2.5327 22.12 4.8619 33.109 6.8905 2.2024-2.4405 3.631-5.5357 4.2857-9.2857-88.249-26.021-177.52-49.741-271.84-62.106-4.5359-17.326 21.446-13.545 28.054-12.218 5.4563 1.0951-25.369-11.316-41.237 10.569-8.3909-0.99942-16.823-1.9066-25.298-2.7152-18.137 0.89784-53.232-8.7347-68.488-3.8018-6.8928 0.53737 51.407 0.69951 68.093 23.13z"/>
   <path d="m493.22 340.12c-0.89612 5.3888-3.2746 9.6658-6.0609 13.637l14.489 3.7046c4.1268-1.4267 8.3786-3.298 10.427 2.6659 9.5577-3.192 10.606 1.2138 13.952 3.5674 3.8214-2.3598 6.3516-0.66108 8.5188 2.1781 7.2455-3.7326 12.034 1.1875 17.498 4.4738 4.1583-2.0478 7.2916 1.3706 10.805 2.7626l13.204 3.3759c3.0204-2.6171 4.8184-6.151 4.0406-11.617l-13.274-3.7817c-4.1379 0.10752-8.1102-0.14362-10.84-3.088-7.2816 1.7917-12.988-0.43225-17.586-5.0101-4.4403 1.804-5.9653-0.27898-7.6313-2.174-5.727 1.8027-10.372 1.0813-13.246-3.7736-4.7315 1.5442-8.7216 1.7117-10.144-2.8898z"/>
   <path d="m497.22 336.29c-1.4291 0-3.42 2.2467-5.2812 5.5938l1.625 0.46875c-0.80615 3.249-1.6156 6.4971-4.2812 9.2812l-1.0938-0.21875c-1.2706 5.0638-1.0054 8.8125 0.84375 8.8125 2.219 0 5.8567-5.3611 8.125-11.969s2.2815-11.969 0.0625-11.969z"/>
   <path d="m496.15 335.93c-1.4291 0-3.42 2.2467-5.2812 5.5938l1.625 0.46875c-0.80615 3.249-1.6156 6.4971-4.2812 9.2812l-1.0938-0.21875c-1.2706 5.0638-1.0054 8.8125 0.84375 8.8125 2.219 0 5.8567-5.3611 8.125-11.969s2.2815-11.969 0.0625-11.969z"/>
   <path d="m496.15 335.93c-1.4291 0-3.42 2.2467-5.2812 5.5938l1.625 0.46875c-0.80615 3.249-1.6156 6.4971-4.2812 9.2812l-1.0938-0.21875c-1.2706 5.0638-1.0054 8.8125 0.84375 8.8125 2.219 0 5.8567-5.3611 8.125-11.969s2.2815-11.969 0.0625-11.969z"/>
   <path d="m508.66 348.79c2.7381 1.3765 5.4762 1.7654 8.2143-0.17857" filter="url(#f)" opacity=".3222" stroke="#fff"/>
   <path d="m521.7 353.34c3.4773 1.1192 6.7391 1.715 8.5714-1.1607" filter="url(#e)" opacity=".3222" stroke="#fff"/>
   <path d="m534.29 355.4c1.7498 0.66268 3.5175 1.3717 4.1072-0.98214" filter="url(#d)" opacity=".3222" stroke="#fff"/>
   <path d="m546.07 359.59c5.2768 1.4744 8.7078 1.5885 9.4643-0.26786" filter="url(#c)" opacity=".3222" stroke="#fff"/>
   <path d="m559.46 362.18c3.3294 1.4673 5.9186 1.8244 6.875-0.26785" filter="url(#b)" opacity=".3222" stroke="#fff"/>
   <path d="m497.5 349.68 80.536 21.607" filter="url(#a)" opacity=".255" stroke="#fff" stroke-width="4"/>
  </g>
  <path d="m165.36 414.15c40.668-3.0338 125.85 12.437 125.85 12.437l6.2904-2.871 4.0134 5.1974 5.905-3.8021 3.7683 6.085 6.1161-3.9312 3.4352 6.2649 5.9881-4.2191 2.4141 6.3269 6.3292-4.1558 2.6707 6.4597 6.3346-4.5351 2.9501 6.9505 5.7289-4.6983 2.8812 6.963 6.089-4.4608 2.7992 6.7266s54.849 5.2144 38.941 17.744c5.1897 8.7232 25.021-1.1828 34.816 1.0566 11.078 2.5327 22.12 4.8619 33.109 6.8905 2.2024-2.4405 3.631-5.5357 4.2857-9.2857-88.249-26.021-177.52-49.741-271.84-62.106-4.5359-17.326 21.446-13.545 28.054-12.218 5.4563 1.0951-25.369-11.316-41.237 10.569-8.3909-0.99942-16.823-1.9066-25.298-2.7152-18.137 0.89784-53.232-8.7347-68.488-3.8018-6.8928 0.53737 51.407 0.69951 68.093 23.13z" fill="url(#h)"/>
  <path d="m105.18 391.47c24.446 0.72624 45.632 6.3442 61.518 19.911 42.044-0.67626 83.179 6.3704 124.29 13.614l7.7656-3.1567 3.4093 4.8614 6.2503-3.6618 3.5355 5.9978 6.124-3.6618 3.283 5.8715 6.3134-3.5987 2.3991 5.8084 6.3766-3.5355 2.1466 5.7452 6.6291-4.4194 2.7148 6.6291 5.9978-4.1669 2.6516 6.1872 6.8185-4.4826 3.5355 7.4499c12.973 1.0766 25.326 3.3904 36.618 7.8287 5.3007 3.572 8.3598 7.4642 4.2932 12.374 1.9907 2.4071 7.5347 2.5934 14.9 1.6415" fill="none" filter="url(#j)" opacity=".6259" stroke="#fff"/>
  <path d="m105.18 391.47c24.446 0.72624 45.632 6.3442 61.518 19.911 42.044-0.67626 83.179 6.3704 124.29 13.614l7.7656-3.1567 3.4093 4.8614 6.2503-3.6618 3.5355 5.9978 6.124-3.6618 3.283 5.8715 6.3134-3.5987 2.3991 5.8084 6.3766-3.5355 2.1466 5.7452 6.6291-4.4194 2.7148 6.6291 5.9978-4.1669 2.6516 6.1872 6.8185-4.4826 3.5355 7.4499c12.973 1.0766 25.326 3.3904 36.618 7.8287 5.3007 3.572 8.3598 7.4642 4.2932 12.374 1.9907 2.4071 7.5347 2.5934 14.9 1.6415" fill="none" stroke="#fff"/>
  <path d="m476.79 459.4c-0.89612 5.3888-3.2746 9.6658-6.0609 13.637l14.489 3.7046c4.1268-1.4267 8.3786-3.298 10.427 2.6659 9.5577-3.192 10.606 1.2138 13.952 3.5674 3.8214-2.3598 6.3516-0.66108 8.5188 2.1781 7.2455-3.7326 12.034 1.1875 17.498 4.4738 4.1583-2.0478 7.2916 1.3706 10.805 2.7626l13.204 3.3759c3.0204-2.6171 4.8184-6.151 4.0406-11.617l-13.274-3.7817c-4.1379 0.10752-8.1102-0.14362-10.84-3.088-7.2816 1.7917-12.988-0.43225-17.586-5.0101-4.4403 1.804-5.9653-0.27898-7.6313-2.174-5.727 1.8027-10.372 1.0813-13.246-3.7736-4.7315 1.5442-8.7216 1.7117-10.144-2.8898z"/>
  <path d="m480.79 455.58c-1.4291 0-3.42 2.2467-5.2812 5.5938l1.625 0.46875c-0.80615 3.249-1.6156 6.4971-4.2812 9.2812l-1.0938-0.21875c-1.2706 5.0638-1.0054 8.8125 0.84375 8.8125 2.219 0 5.8567-5.3611 8.125-11.969s2.2815-11.969 0.0625-11.969z"/>
  <path d="m479.72 455.22c-1.4291 0-3.42 2.2467-5.2812 5.5938l1.625 0.46875c-0.80615 3.249-1.6156 6.4971-4.2812 9.2812l-1.0938-0.21875c-1.2706 5.0638-1.0054 8.8125 0.84375 8.8125 2.219 0 5.8567-5.3611 8.125-11.969s2.2815-11.969 0.0625-11.969z" fill="#2b1100"/>
  <path d="m479.72 455.22c-1.4291 0-3.42 2.2467-5.2812 5.5938l1.625 0.46875c-0.80615 3.249-1.6156 6.4971-4.2812 9.2812l-1.0938-0.21875c-1.2706 5.0638-1.0054 8.8125 0.84375 8.8125 2.219 0 5.8567-5.3611 8.125-11.969s2.2815-11.969 0.0625-11.969z" fill="url(#g)"/>
  <path d="m492.23 468.08c2.7381 1.3765 5.4762 1.7654 8.2143-0.17857" fill="none" filter="url(#f)" opacity=".3222" stroke="#fff"/>
  <path d="m505.27 472.63c3.4773 1.1192 6.7391 1.715 8.5714-1.1607" fill="#fff" filter="url(#e)" opacity=".3222" stroke="#fff"/>
  <path d="m517.86 474.68c1.7498 0.66268 3.5175 1.3717 4.1072-0.98214" fill="none" filter="url(#d)" opacity=".3222" stroke="#fff"/>
  <path d="m529.64 478.88c5.2768 1.4744 8.7078 1.5885 9.4643-0.26786" fill="none" filter="url(#c)" opacity=".3222" stroke="#fff"/>
  <path d="m543.04 481.47c3.3294 1.4673 5.9186 1.8244 6.875-0.26785" fill="none" filter="url(#b)" opacity=".3222" stroke="#fff"/>
  <path d="m481.07 468.97 80.536 21.607" fill="none" filter="url(#a)" opacity=".255" stroke="#fff" stroke-width="4"/>
 </g>
</svg>
