<?xml version="1.0" encoding="UTF-8"?>
<svg viewBox="0 0 1052.4 744.09" xmlns="http://www.w3.org/2000/svg" xmlns:xlink="http://www.w3.org/1999/xlink">
 <defs>
  <clipPath id="bj">
   <path d="m85.41 841.43l84.57 10s42.285-10 84.57-10 84.57 10 84.57 10l84.57-10-20 65.606c-97.566 6.5134-195.36 12.237-298.28 0l-20-65.606z" fill="#5e5e5e" stroke-width="10"/>
  </clipPath>
  <clipPath id="ak">
   <path d="m1031.4 1224.2a64.423 51.923 0 1 1 -2.44e-4 -0.16223" fill="url(#aq)" stroke-width="9"/>
  </clipPath>
  <filter id="bo">
   <feGaussianBlur stdDeviation="3.406858"/>
  </filter>
  <filter id="bm">
   <feGaussianBlur stdDeviation="1.95538"/>
  </filter>
  <filter id="bn">
   <feGaussianBlur stdDeviation="16.229403"/>
  </filter>
  <filter id="bl">
   <feGaussianBlur stdDeviation="1.123343"/>
  </filter>
  <filter id="bk" x="-.68" y="-.048189" width="2.36" height="1.0964">
   <feGaussianBlur stdDeviation="11.769232"/>
  </filter>
  <linearGradient id="ap" x1=".74743" x2="1.0525" y1=".27675" y2=".60221" spreadMethod="reflect">
   <stop stop-color="#f8f5ec" offset="0"/>
   <stop offset="1"/>
  </linearGradient>
  <linearGradient id="bs" x1="2.5e-5" x2=".50001" y1=".57319" y2=".57319" xlink:href="#ao" spreadMethod="reflect"/>
  <linearGradient id="br" x1="1" y1=".37644" y2=".99998" spreadMethod="reflect">
   <stop stop-color="#fff" offset="0"/>
   <stop stop-color="#fff" stop-opacity="0" offset=".5"/>
   <stop stop-color="#fff" stop-opacity="0" offset="1"/>
  </linearGradient>
  <linearGradient id="bq" x1=".65188" x2=".83296" y1=".10693" y2="1.7184" xlink:href="#ao" spreadMethod="reflect"/>
  <linearGradient id="bp" x1=".5" x2=".5" y1=".96123" y2=".16518" spreadMethod="reflect">
   <stop stop-color="#5e5e5e" offset="0"/>
   <stop stop-color="#c5c5c5" offset="1"/>
  </linearGradient>
  <linearGradient id="an">
   <stop stop-color="#fff" offset="0"/>
   <stop stop-color="#fff" stop-opacity="0" offset="1"/>
  </linearGradient>
  <linearGradient id="a">
   <stop stop-color="#b09957" offset="0"/>
   <stop stop-color="#2b281e" offset="1"/>
  </linearGradient>
  <linearGradient id="al">
   <stop stop-color="#e80d0d" offset="0"/>
   <stop offset="1"/>
  </linearGradient>
  <linearGradient id="ao">
   <stop stop-color="#292920" offset="0"/>
   <stop stop-color="#b6bbb8" offset=".76786"/>
   <stop offset="1"/>
  </linearGradient>
  <radialGradient id="bd" cx="241.41" cy="786.46" r="90.721" gradientTransform="matrix(.48171 .66042 -.37991 .27711 502.84 127.77)" gradientUnits="userSpaceOnUse">
   <stop offset="0"/>
   <stop stop-opacity=".196" offset="1"/>
  </radialGradient>
  <radialGradient id="am" cx="345.19" cy="254.29" r="68.923" gradientTransform="matrix(1 0 0 .81864 0 46.118)" gradientUnits="userSpaceOnUse">
   <stop stop-color="#cac45e" offset="0"/>
   <stop stop-color="#747134" offset=".76786"/>
   <stop stop-color="#1f1e0a" offset="1"/>
  </radialGradient>
  <radialGradient id="bh" cx="345.19" cy="274.29" r="64.423" gradientTransform="matrix(9.546 0 0 5.9383 -246.96 -1135.4)" gradientUnits="userSpaceOnUse" xlink:href="#an"/>
  <radialGradient id="bc" cx="-38.954" cy="684.35" r="77.656" gradientTransform="matrix(.19805 -.23634 .042868 .26459 372.66 1403.7)" gradientUnits="userSpaceOnUse" xlink:href="#a"/>
  <radialGradient id="bg" cx="345.19" cy="254.29" r="64.423" gradientTransform="matrix(9.546 0 0 9.6587 -246.96 -1584.5)" gradientUnits="userSpaceOnUse" xlink:href="#al"/>
  <radialGradient id="be" cx="345.19" cy="254.29" r="64.423" gradientTransform="matrix(9.546 0 0 9.6587 -115.85 -1346.1)" gradientUnits="userSpaceOnUse" xlink:href="#al"/>
  <radialGradient id="bf" cx="345.19" cy="274.29" r="64.423" gradientTransform="matrix(9.546 0 0 5.9383 -115.85 -896.97)" gradientUnits="userSpaceOnUse" xlink:href="#an"/>
  <radialGradient id="as" cx="-38.954" cy="684.35" r="77.656" gradientTransform="matrix(.19805 -.23634 .042868 .26459 372.66 967.93)" gradientUnits="userSpaceOnUse" xlink:href="#a"/>
  <radialGradient id="bi" spreadMethod="reflect">
   <stop stop-color="#3f3f3f" offset="0"/>
   <stop stop-color="#c0c0c0" offset="1"/>
  </radialGradient>
  <radialGradient id="bb" cx="-38.954" cy="684.35" r="77.656" gradientTransform="matrix(.19805 -.23634 .042868 .26459 372.66 1360.1)" gradientUnits="userSpaceOnUse" xlink:href="#a"/>
  <radialGradient id="ar" cx="-38.954" cy="684.35" r="77.656" gradientTransform="matrix(.19805 -.23634 .042868 .26459 372.66 924.35)" gradientUnits="userSpaceOnUse" xlink:href="#a"/>
  <radialGradient id="aq" cx="345.19" cy="254.29" r="64.423" gradientTransform="matrix(1 0 0 .80597 1311 1942.3)" gradientUnits="userSpaceOnUse" xlink:href="#al"/>
  <radialGradient id="at" cx="-38.954" cy="684.35" r="77.656" gradientTransform="matrix(.19805 -.23634 .042868 .26459 372.66 1011.5)" gradientUnits="userSpaceOnUse" xlink:href="#a"/>
  <radialGradient id="ba" cx="-38.954" cy="684.35" r="77.656" gradientTransform="matrix(.19805 -.23634 .042868 .26459 372.66 1316.6)" gradientUnits="userSpaceOnUse" xlink:href="#a"/>
  <radialGradient id="az" cx="-38.954" cy="684.35" r="77.656" gradientTransform="matrix(.19805 -.23634 .042868 .26459 372.66 1273)" gradientUnits="userSpaceOnUse" xlink:href="#a"/>
  <radialGradient id="au" cx="-38.954" cy="684.35" r="77.656" gradientTransform="matrix(.19805 -.23634 .042868 .26459 372.66 1055.1)" gradientUnits="userSpaceOnUse" xlink:href="#a"/>
  <radialGradient id="ay" cx="-38.954" cy="684.35" r="77.656" gradientTransform="matrix(.19805 -.23634 .042868 .26459 372.66 1229.4)" gradientUnits="userSpaceOnUse" xlink:href="#a"/>
  <radialGradient id="aw" cx="-38.954" cy="684.35" r="77.656" gradientTransform="matrix(.19805 -.23634 .042868 .26459 372.66 1142.2)" gradientUnits="userSpaceOnUse" xlink:href="#a"/>
  <radialGradient id="av" cx="-38.954" cy="684.35" r="77.656" gradientTransform="matrix(.19805 -.23634 .042868 .26459 372.66 1098.7)" gradientUnits="userSpaceOnUse" xlink:href="#a"/>
  <radialGradient id="ax" cx="-38.954" cy="684.35" r="77.656" gradientTransform="matrix(.19805 -.23634 .042868 .26459 372.66 1185.8)" gradientUnits="userSpaceOnUse" xlink:href="#a"/>
 </defs>
 <path d="m980.6 37.417l-115.22 38.062-525.34 383.19c-3.7776-0.096558-7.4787 0.43298-10.969 1.5938-20.892-14.194-42.767-17.936-57.031-7.5312-0.57471 0.41919-1.1176 0.85632-1.6562 1.3125-1.2155-1.0781-2.0313-1.7812-2.0313-1.7812l-41.781-74.219-25.062 43.031c20.11 35.796 42.062 69.295 65.094 101.34 0.013489 0.018677 0.017883 0.043823 0.031311 0.0625 0.633 1.4534 1.2663 2.9194 1.9687 4.375-2.4995-0.058228-4.7807 0.53827-6.6562 1.9062-3.6446 2.6584-5.0399 7.6365-4.3438 13.469-5.3394-2.4427-10.512-2.6577-14.156 0-3.6449 2.6586-5.009 7.636-4.3125 13.469-5.339-2.4422-10.513-2.6263-14.156 0.03125-3.6448 2.6586-5.0402 7.636-4.3437 13.469-5.3395-2.4427-10.513-2.6578-14.156 0-3.6448 2.6586-5.0089 7.636-4.3125 13.469-5.3421-2.4459-10.511-2.659-14.156 0-3.6385 2.6539-5.0317 7.649-4.3438 13.469-5.3364-2.439-10.514-2.6251-14.156 0.03125-3.6449 2.6586-5.009 7.636-4.3125 13.469-5.3484-2.4537-10.507-2.6619-14.156 0-3.6385 2.6539-5.0317 7.649-4.3437 13.469-5.3364-2.439-10.514-2.6251-14.156 0.03125-3.6448 2.6586-5.009 7.636-4.3125 13.469-5.3483-2.4537-10.507-2.6619-14.156 0-3.6385 2.6539-5.0317 7.649-4.3438 13.469-5.3364-2.439-10.514-2.6251-14.156 0.03125-3.6449 2.6586-5.009 7.636-4.3125 13.469-5.3484-2.4537-10.507-2.6619-14.156 0-3.6448 2.6586-5.0402 7.636-4.3437 13.469-5.3364-2.439-10.514-2.6251-14.156 0.03125-7.0306 5.1282-5.7333 18.905 2.9063 30.75s21.376 17.284 28.406 12.156l0.0313-0.0312c3.6119-2.6638 4.9998-7.6376 4.3125-13.438 5.3274 2.4279 10.489 2.6208 14.125-0.03125l0.0625-0.0312c3.6171-2.6676 4.9756-7.6267 4.2812-13.438 5.3395 2.4427 10.513 2.6577 14.156 0l0.0312-0.0312c3.6102-2.6625 4.9976-7.6098 4.3125-13.406 5.3262 2.4264 10.49 2.6202 14.125-0.03125l0.0625-0.0312c3.6172-2.6676 4.9757-7.658 4.2813-13.469 5.3394 2.4427 10.512 2.6577 14.156 0l0.0313-0.0312c3.6102-2.6625 4.9976-7.6098 4.3125-13.406 5.3262 2.4264 10.49 2.6202 14.125-0.03125l0.0625-0.0312c3.6108-2.663 4.9672-7.6397 4.2812-13.438 5.3365 2.439 10.514 2.6251 14.156-0.03125l0.0312-0.0312c3.6166-2.6672 5.0061-7.628 4.3125-13.438 5.3331 2.4349 10.485 2.6547 14.125 0l0.0625-0.0312c3.6109-2.663 4.9672-7.6397 4.2813-13.438 5.3364 2.439 10.514 2.6251 14.156-0.03125l0.0313-0.0312c3.6165-2.6672 5.006-7.628 4.3125-13.438 5.3331 2.4349 10.485 2.6547 14.125 0l0.0625-0.0312c3.6125-2.6642 4.9694-7.6362 4.2812-13.438 5.3365 2.439 10.514 2.6251 14.156-0.03125l0.0312-0.0312c3.6166-2.6672 5.0061-7.628 4.3125-13.438 5.3331 2.4349 10.485 2.6547 14.125 0l0.0625-0.0312c1.8604-1.372 3.1107-3.3594 3.8125-5.75 2.0979 1.9936 4.2204 3.8789 6.375 5.6562 24.072 30.861 48.894 60.756 73.812 90.531l48.656-10.719-57.938-62.438s-0.40652-0.98065-1.0625-2.4688c0.60309-0.37579 1.2026-0.76544 1.7812-1.1875l0.125-0.0938c14.168-10.449 17.243-32.372 10.125-56.531 2.1654-2.9639 3.7836-6.3194 4.8438-9.9375l525.34-383.19 71.438-98.094z" filter="url(#bn)" stroke="#000" stroke-width="5.959"/>
 <g stroke-width="10">
  <g transform="matrix(.42128 .57756 -.80792 .5893 931.54 -155.87)" stroke="#000">
   <path d="m289.34 921.41a37.152 15.765 0 1 1 -1.83e-4 -0.049255" fill="url(#ar)"/>
   <path d="m289.34 944.29a37.152 15.765 0 1 1 -1.83e-4 -0.049255" fill="url(#as)"/>
   <path d="m289.34 967.17a37.152 15.765 0 1 1 -1.83e-4 -0.049255" fill="url(#at)"/>
   <path d="m289.34 990.05a37.152 15.765 0 1 1 -1.83e-4 -0.049255" fill="url(#au)"/>
   <path d="m289.34 1012.9a37.152 15.765 0 1 1 -1.83e-4 -0.049255" fill="url(#av)"/>
   <path d="m289.34 1035.8a37.152 15.765 0 1 1 -1.83e-4 -0.049316" fill="url(#aw)"/>
   <path d="m289.34 1058.7a37.152 15.765 0 1 1 -1.83e-4 -0.049316" fill="url(#ax)"/>
   <path d="m289.34 1081.6a37.152 15.765 0 1 1 -1.83e-4 -0.049316" fill="url(#ay)"/>
   <path d="m289.34 1104.4a37.152 15.765 0 1 1 -1.83e-4 -0.049194" fill="url(#az)"/>
   <path d="m289.34 1127.3a37.152 15.765 0 1 1 -1.83e-4 -0.049194" fill="url(#ba)"/>
   <path d="m289.34 1150.2a37.152 15.765 0 1 1 -1.83e-4 -0.049194" fill="url(#bb)"/>
   <path d="m289.34 1173.1a37.152 15.765 0 1 1 -1.83e-4 -0.049316" fill="url(#bc)"/>
  </g>
  <path d="m242.35 360.61l41.758 74.219s32.998 28.27 57.916 62.433 41.758 74.219 41.758 74.219l57.916 62.433-48.632 10.717c-62.758-74.987-125.01-150.62-175.78-240.99l25.06-43.034z" fill="url(#bp)" stroke="url(#bq)"/>
  <path d="m242.35 360.61l41.758 74.219s32.998 28.27 57.916 62.433 41.758 74.219 41.758 74.219l57.916 62.433-48.632 10.717c-62.758-74.987-125.01-150.62-175.78-240.99l25.06-43.034z" fill="url(#br)" filter="url(#bm)" opacity=".867"/>
  <path d="m384.49 567.81a48.336 28.646 0 1 1 0.12241 -0.089783" clip-path="url(#bj)" fill="url(#bd)" filter="url(#bl)"/>
 </g>
 <path d="m881.14 58.046l115.23-38.063-71.443 98.097-544.31 397.02-43.788-60.034 544.31-397.02z" fill="url(#bs)" stroke="url(#ap)" stroke-width="7.806"/>
 <rect transform="matrix(.23 .31533 -1.1306 .82468 1007.8 -155.54)" x="282.68" y="156.79" width="34.615" height="488.46" fill="#fff" filter="url(#bk)" stroke-width="9"/>
 <g transform="matrix(.12944 .17746 -.159 .11597 268.05 292.89)" fill="url(#bi)" stroke-width="9">
  <path d="m1149.2 317.14a199.04 179.75 0 1 1 -9.77e-4 -0.56131" stroke="url(#am)"/>
  <path d="m1149.2 178.67a199.04 179.75 0 1 1 -9.77e-4 -0.56128" clip-path="url(#ak)"/>
 </g>
 <g transform="matrix(.041145 .056409 -.056409 .041145 281.13 449.91)" stroke-width="9">
  <path d="m1265.3 513.32a199.04 179.75 0 1 1 -8.54e-4 -0.56128" fill="url(#be)" stroke="url(#am)"/>
  <path d="m1265.3 374.85a199.04 179.75 0 1 1 -8.54e-4 -0.56131" clip-path="url(#ak)" fill="url(#bf)"/>
 </g>
 <g transform="matrix(.053134 .072846 -.072846 .053134 58.606 589.04)" stroke-width="9">
  <path d="m1226.9 444.71a199.04 179.75 0 1 1 -9.77e-4 -0.56119" fill="url(#bg)" stroke="url(#am)"/>
  <path d="m1226.9 306.24a199.04 179.75 0 1 1 -9.77e-4 -0.56119" clip-path="url(#ak)" fill="url(#bh)"/>
 </g>
 <path d="m277.16 533.27l7.9656 11.662-188.82 132.23-7.9656-11.662 188.82-132.23z" fill="#fff" filter="url(#bo)" opacity=".617" stroke-width="10"/>
</svg>
