<?xml version="1.0" encoding="UTF-8"?>
<svg viewBox="0 0 1052.4 744.09" xmlns="http://www.w3.org/2000/svg" xmlns:xlink="http://www.w3.org/1999/xlink">
 <defs>
  <clipPath id="am">
   <path d="m85.999 842.18l84.57 10s42.285-10 84.57-10 84.57 10 84.57 10l84.57-10-20 65.606c-97.566 6.5134-195.36 12.237-298.28 0l-20-65.606z" fill="#5e5e5e" stroke-width="10"/>
  </clipPath>
  <clipPath id="d">
   <path d="m1098.8 1217.3a64.423 51.923 0 1 1 -2.44e-4 -0.16223" fill="url(#ab)" stroke-width="9"/>
  </clipPath>
  <filter id="ah">
   <feGaussianBlur stdDeviation="3.406858"/>
  </filter>
  <filter id="aj">
   <feGaussianBlur stdDeviation="1.95538"/>
  </filter>
  <filter id="ai">
   <feGaussianBlur stdDeviation="16.229403"/>
  </filter>
  <filter id="ak">
   <feGaussianBlur stdDeviation="1.123343"/>
  </filter>
  <filter id="al" x="-.68" y="-.048189" width="2.36" height="1.0964">
   <feGaussianBlur stdDeviation="11.769232"/>
  </filter>
  <linearGradient id="ad" x1="2.5e-5" x2=".50001" y1=".57319" y2=".57319" xlink:href="#h" spreadMethod="reflect"/>
  <linearGradient id="ac" x1=".74743" x2="1.0525" y1=".27675" y2=".60221" spreadMethod="reflect">
   <stop stop-color="#f8f5ec" offset="0"/>
   <stop offset="1"/>
  </linearGradient>
  <linearGradient id="ag" x1=".5" x2=".5" y1=".96123" y2=".16518" spreadMethod="reflect">
   <stop stop-color="#5e5e5e" offset="0"/>
   <stop stop-color="#c5c5c5" offset="1"/>
  </linearGradient>
  <linearGradient id="af" x1=".65188" x2=".83296" y1=".10693" y2="1.7184" xlink:href="#h" spreadMethod="reflect"/>
  <linearGradient id="ae" x1="1" y1=".37644" y2=".99998" spreadMethod="reflect">
   <stop stop-color="#fff" offset="0"/>
   <stop stop-color="#fff" stop-opacity="0" offset=".5"/>
   <stop stop-color="#fff" stop-opacity="0" offset="1"/>
  </linearGradient>
  <linearGradient id="c">
   <stop stop-color="#e80d0d" offset="0"/>
   <stop offset="1"/>
  </linearGradient>
  <linearGradient id="a">
   <stop stop-color="#b09957" offset="0"/>
   <stop stop-color="#2b281e" offset="1"/>
  </linearGradient>
  <linearGradient id="e">
   <stop stop-color="#fff" offset="0"/>
   <stop stop-color="#fff" stop-opacity="0" offset="1"/>
  </linearGradient>
  <linearGradient id="h">
   <stop stop-color="#292920" offset="0"/>
   <stop stop-color="#b6bbb8" offset=".76786"/>
   <stop offset="1"/>
  </linearGradient>
  <radialGradient id="b" cx="345.19" cy="254.29" r="68.923" gradientTransform="matrix(1 0 0 .81864 0 46.118)" gradientUnits="userSpaceOnUse">
   <stop stop-color="#cac45e" offset="0"/>
   <stop stop-color="#747134" offset=".76786"/>
   <stop stop-color="#1f1e0a" offset="1"/>
  </radialGradient>
  <radialGradient id="g" cx="345.19" cy="254.29" r="64.423" gradientTransform="matrix(9.546 0 0 9.6587 -267.82 -1931.4)" gradientUnits="userSpaceOnUse" xlink:href="#c"/>
  <radialGradient id="j" cx="345.19" cy="254.29" r="64.423" gradientTransform="matrix(9.546 0 0 9.6587 -226.42 -1583.2)" gradientUnits="userSpaceOnUse" xlink:href="#c"/>
  <radialGradient id="k" cx="345.19" cy="274.29" r="64.423" gradientTransform="matrix(9.546 0 0 5.9383 -89.327 -895.35)" gradientUnits="userSpaceOnUse" xlink:href="#e"/>
  <radialGradient id="f" cx="345.19" cy="274.29" r="64.423" gradientTransform="matrix(9.546 0 0 5.9383 -267.82 -1482.3)" gradientUnits="userSpaceOnUse" xlink:href="#e"/>
  <radialGradient id="l" cx="345.19" cy="254.29" r="64.423" gradientTransform="matrix(9.546 0 0 9.6587 -89.327 -1344.5)" gradientUnits="userSpaceOnUse" xlink:href="#c"/>
  <radialGradient id="m" cx="345.19" cy="274.29" r="64.423" gradientTransform="matrix(9.546 0 0 5.9383 -503.77 -1578.1)" gradientUnits="userSpaceOnUse" xlink:href="#e"/>
  <radialGradient id="n" cx="345.19" cy="254.29" r="64.423" gradientTransform="matrix(9.546 0 0 9.6587 -503.77 -2027.2)" gradientUnits="userSpaceOnUse" xlink:href="#c"/>
  <radialGradient id="w" cx="-38.954" cy="684.35" r="77.656" gradientTransform="matrix(.19805 -.23634 .042868 .26459 375.24 1098.8)" gradientUnits="userSpaceOnUse" xlink:href="#a"/>
  <radialGradient id="y" cx="-38.954" cy="684.35" r="77.656" gradientTransform="matrix(.19805 -.23634 .042868 .26459 375.24 1011.6)" gradientUnits="userSpaceOnUse" xlink:href="#a"/>
  <radialGradient id="z" cx="-38.954" cy="684.35" r="77.656" gradientTransform="matrix(.19805 -.23634 .042868 .26459 375.24 968.04)" gradientUnits="userSpaceOnUse" xlink:href="#a"/>
  <radialGradient id="o" cx="241.41" cy="786.46" r="90.721" gradientTransform="matrix(.81744 0 0 .47023 45.751 502.51)" gradientUnits="userSpaceOnUse">
   <stop offset="0"/>
   <stop stop-opacity=".196" offset="1"/>
  </radialGradient>
  <radialGradient id="aa" cx="-38.954" cy="684.35" r="77.656" gradientTransform="matrix(.19805 -.23634 .042868 .26459 375.24 924.46)" gradientUnits="userSpaceOnUse" xlink:href="#a"/>
  <radialGradient id="ab" cx="345.19" cy="254.29" r="64.423" gradientTransform="matrix(1 0 0 .80597 1378.4 1935.4)" gradientUnits="userSpaceOnUse" xlink:href="#c"/>
  <radialGradient id="x" cx="-38.954" cy="684.35" r="77.656" gradientTransform="matrix(.19805 -.23634 .042868 .26459 375.24 1055.2)" gradientUnits="userSpaceOnUse" xlink:href="#a"/>
  <radialGradient id="p" cx="-38.954" cy="684.35" r="77.656" gradientTransform="matrix(.19805 -.23634 .042868 .26459 375.24 1403.8)" gradientUnits="userSpaceOnUse" xlink:href="#a"/>
  <radialGradient id="q" cx="-38.954" cy="684.35" r="77.656" gradientTransform="matrix(.19805 -.23634 .042868 .26459 375.24 1360.2)" gradientUnits="userSpaceOnUse" xlink:href="#a"/>
  <radialGradient id="i" cx="345.19" cy="274.29" r="64.423" gradientTransform="matrix(9.546 0 0 5.9383 -226.42 -1134.1)" gradientUnits="userSpaceOnUse" xlink:href="#e"/>
  <radialGradient id="r" cx="-38.954" cy="684.35" r="77.656" gradientTransform="matrix(.19805 -.23634 .042868 .26459 375.24 1316.7)" gradientUnits="userSpaceOnUse" xlink:href="#a"/>
  <radialGradient id="s" cx="-38.954" cy="684.35" r="77.656" gradientTransform="matrix(.19805 -.23634 .042868 .26459 375.24 1273.1)" gradientUnits="userSpaceOnUse" xlink:href="#a"/>
  <radialGradient id="v" cx="-38.954" cy="684.35" r="77.656" gradientTransform="matrix(.19805 -.23634 .042868 .26459 375.24 1142.4)" gradientUnits="userSpaceOnUse" xlink:href="#a"/>
  <radialGradient id="t" cx="-38.954" cy="684.35" r="77.656" gradientTransform="matrix(.19805 -.23634 .042868 .26459 375.24 1229.5)" gradientUnits="userSpaceOnUse" xlink:href="#a"/>
  <radialGradient id="u" cx="-38.954" cy="684.35" r="77.656" gradientTransform="matrix(.19805 -.23634 .042868 .26459 375.24 1185.9)" gradientUnits="userSpaceOnUse" xlink:href="#a"/>
 </defs>
 <path d="m980.6 38.98l-115.22 38.062-525.34 383.19c-3.7776-0.096558-7.4787 0.43298-10.969 1.5938-20.892-14.194-42.767-17.936-57.031-7.5312-0.57471 0.41919-1.1176 0.85632-1.6562 1.3125-1.2155-1.0781-2.0313-1.7812-2.0313-1.7812l-41.781-74.219-25.062 43.031c20.11 35.796 42.062 69.295 65.094 101.34 0.013489 0.018677 0.017883 0.043823 0.031311 0.0625 0.633 1.4534 1.2663 2.9194 1.9687 4.375-2.4995-0.058228-4.7807 0.53827-6.6562 1.9062-3.6446 2.6584-5.0399 7.6365-4.3438 13.469-5.3394-2.4427-10.512-2.6577-14.156 0-3.6449 2.6586-5.009 7.636-4.3125 13.469-5.339-2.4422-10.513-2.6263-14.156 0.03125-3.6448 2.6586-5.0402 7.636-4.3437 13.469-5.3395-2.4427-10.513-2.6578-14.156 0-3.6448 2.6586-5.0089 7.636-4.3125 13.469-5.3421-2.4459-10.511-2.659-14.156 0-3.6385 2.6539-5.0317 7.649-4.3438 13.469-5.3364-2.439-10.514-2.6251-14.156 0.03125-3.6449 2.6586-5.009 7.636-4.3125 13.469-5.3484-2.4537-10.507-2.6619-14.156 0-3.6385 2.6539-5.0317 7.649-4.3437 13.469-5.3364-2.439-10.514-2.6251-14.156 0.03125-3.6448 2.6586-5.009 7.636-4.3125 13.469-5.3483-2.4537-10.507-2.6619-14.156 0-3.6385 2.6539-5.0317 7.649-4.3438 13.469-5.3364-2.439-10.514-2.6251-14.156 0.03125-3.6449 2.6586-5.009 7.636-4.3125 13.469-5.3484-2.4537-10.507-2.6619-14.156 0-3.6448 2.6586-5.0402 7.636-4.3437 13.469-5.3364-2.439-10.514-2.6251-14.156 0.03125-7.0306 5.1282-5.7333 18.905 2.9063 30.75s21.376 17.284 28.406 12.156l0.0313-0.0312c3.6119-2.6638 4.9998-7.6376 4.3125-13.438 5.3274 2.4279 10.489 2.6208 14.125-0.03125l0.0625-0.0312c3.6171-2.6676 4.9756-7.6267 4.2812-13.438 5.3395 2.4427 10.513 2.6577 14.156 0l0.0312-0.0312c3.6102-2.6625 4.9976-7.6098 4.3125-13.406 5.3262 2.4264 10.49 2.6202 14.125-0.03125l0.0625-0.0312c3.6172-2.6676 4.9757-7.658 4.2813-13.469 5.3394 2.4427 10.512 2.6577 14.156 0l0.0313-0.0312c3.6102-2.6625 4.9976-7.6098 4.3125-13.406 5.3262 2.4264 10.49 2.6202 14.125-0.03125l0.0625-0.0312c3.6108-2.663 4.9672-7.6397 4.2812-13.438 5.3365 2.439 10.514 2.6251 14.156-0.03125l0.0312-0.0312c3.6166-2.6672 5.0061-7.628 4.3125-13.438 5.3331 2.4349 10.485 2.6547 14.125 0l0.0625-0.0312c3.6109-2.663 4.9672-7.6397 4.2813-13.438 5.3364 2.439 10.514 2.6251 14.156-0.03125l0.0313-0.0312c3.6165-2.6672 5.006-7.628 4.3125-13.438 5.3331 2.4349 10.485 2.6547 14.125 0l0.0625-0.0312c3.6125-2.6642 4.9694-7.6362 4.2812-13.438 5.3365 2.439 10.514 2.6251 14.156-0.03125l0.0312-0.0312c3.6166-2.6672 5.0061-7.628 4.3125-13.438 5.3331 2.4349 10.485 2.6547 14.125 0l0.0625-0.0312c1.8604-1.372 3.1107-3.3594 3.8125-5.75 2.0979 1.9936 4.2204 3.8789 6.375 5.6562 24.072 30.861 48.894 60.756 73.812 90.531l48.656-10.719-57.938-62.438s-0.40652-0.98065-1.0625-2.4688c0.60309-0.37579 1.2026-0.76544 1.7812-1.1875l0.125-0.0938c14.168-10.449 17.243-32.372 10.125-56.531 2.1654-2.9639 3.7836-6.3194 4.8438-9.9375l525.34-383.19 71.438-98.094z" filter="url(#ai)" stroke="#000" stroke-width="5.959"/>
 <g transform="matrix(.5893 .80792 -.80792 .5893 882.87 -203.76)">
  <g stroke-width="10">
   <g transform="matrix(.71488 0 0 1 67.367 -11.101)" stroke="#000">
    <path d="m291.93 921.53a37.152 15.765 0 1 1 -1.83e-4 -0.049255" fill="url(#aa)"/>
    <path d="m291.93 944.41a37.152 15.765 0 1 1 -1.83e-4 -0.049255" fill="url(#z)"/>
    <path d="m291.93 967.28a37.152 15.765 0 1 1 -1.83e-4 -0.049255" fill="url(#y)"/>
    <path d="m291.93 990.16a37.152 15.765 0 1 1 -1.83e-4 -0.049255" fill="url(#x)"/>
    <path d="m291.93 1013a37.152 15.765 0 1 1 -1.83e-4 -0.049255" fill="url(#w)"/>
    <path d="m291.93 1035.9a37.152 15.765 0 1 1 -1.83e-4 -0.049316" fill="url(#v)"/>
    <path d="m291.93 1058.8a37.152 15.765 0 1 1 -1.83e-4 -0.049316" fill="url(#u)"/>
    <path d="m291.93 1081.7a37.152 15.765 0 1 1 -1.83e-4 -0.049316" fill="url(#t)"/>
    <path d="m291.93 1104.6a37.152 15.765 0 1 1 -1.83e-4 -0.049194" fill="url(#s)"/>
    <path d="m291.93 1127.4a37.152 15.765 0 1 1 -1.83e-4 -0.049194" fill="url(#r)"/>
    <path d="m291.93 1150.3a37.152 15.765 0 1 1 -1.83e-4 -0.049194" fill="url(#q)"/>
    <path d="m291.93 1173.2a37.152 15.765 0 1 1 -1.83e-4 -0.049316" fill="url(#p)"/>
   </g>
   <path d="m80.361 850.18l84.57 10s42.285-10 84.57-10 84.57 10 84.57 10l84.57-10-20 45.606c-97.566 6.5134-195.36 12.237-298.28 0l-20-45.606z" fill="url(#ag)" stroke="url(#af)"/>
   <path d="m80.361 850.18l84.57 10s42.285-10 84.57-10 84.57 10 84.57 10l84.57-10-20 45.606c-97.566 6.5134-195.36 12.237-298.28 0l-20-45.606z" fill="url(#ae)" filter="url(#aj)" opacity=".867"/>
   <path d="m331.52 857.45a82.023 48.611 0 1 1 -3.97e-4 -0.15179" clip-path="url(#am)" fill="url(#o)" filter="url(#ak)"/>
  </g>
  <path d="m212.35 155.79l37.153-115.53 37.153 115.53v673.72h-74.306v-673.72z" fill="url(#ad)" stroke="url(#ac)" stroke-width="7.806"/>
  <rect transform="matrix(.3903 0 0 1.3994 112.56 -72.508)" x="287.43" y="156.87" width="34.615" height="488.46" fill="#fff" filter="url(#al)" stroke-width="9"/>
  <g transform="matrix(.098864 0 0 .15678 147.18 585.03)" stroke-width="9">
   <path d="m1234 345.39a199.04 179.75 0 1 1 -9.77e-4 -0.56131" fill="url(#g)" stroke="url(#b)"/>
   <path d="m1234 206.92a199.04 179.75 0 1 1 -9.77e-4 -0.56128" clip-path="url(#d)" fill="url(#f)"/>
  </g>
  <g transform="matrix(.098864 0 0 .15678 147.18 496.08)" stroke-width="9">
   <path d="m1234 345.39a199.04 179.75 0 1 1 -9.77e-4 -0.56131" fill="url(#g)" stroke="url(#b)"/>
   <path d="m1234 206.92a199.04 179.75 0 1 1 -9.77e-4 -0.56119" clip-path="url(#d)" fill="url(#f)"/>
  </g>
  <g transform="matrix(.21965 0 0 .1968 38.941 789.4)" stroke-width="9">
   <path d="m1157.7 317.72a199.04 179.75 0 1 1 -9.77e-4 -0.56131" fill="url(#n)" stroke="url(#b)"/>
   <path d="m1157.7 179.24a199.04 179.75 0 1 1 -9.77e-4 -0.56128" clip-path="url(#d)" fill="url(#m)"/>
  </g>
  <g transform="matrix(.06982 0 0 .06982 173.51 871.36)" stroke-width="9">
   <path d="m1291.8 514.93a199.04 179.75 0 1 1 -8.54e-4 -0.56128" fill="url(#l)" stroke="url(#b)"/>
   <path d="m1291.8 376.46a199.04 179.75 0 1 1 -8.54e-4 -0.56131" clip-path="url(#d)" fill="url(#k)"/>
  </g>
  <g transform="matrix(.090166 0 0 .090166 154.78 1133.1)" stroke-width="9">
   <path d="m1247.4 445.96a199.04 179.75 0 1 1 -9.77e-4 -0.56119" fill="url(#j)" stroke="url(#b)"/>
   <path d="m1247.4 307.49a199.04 179.75 0 1 1 -9.77e-4 -0.56119" clip-path="url(#d)" fill="url(#i)"/>
  </g>
 </g>
 <path d="m277.16 533.27l7.9656 11.662-188.82 132.23-7.9656-11.662 188.82-132.23z" fill="#fff" filter="url(#ah)" opacity=".617" stroke-width="10"/>
</svg>
