<?xml version="1.0" encoding="UTF-8"?>
<svg width="210.01mm" height="210mm" clip-rule="evenodd" fill-rule="evenodd" image-rendering="optimizeQuality" shape-rendering="geometricPrecision" text-rendering="geometricPrecision" version="1.1" viewBox="0 0 21001 21000" xmlns="http://www.w3.org/2000/svg" xmlns:xlink="http://www.w3.org/1999/xlink">
 <defs>
  <style type="text/css">.fil3 {fill:#72371D} .fil4 {fill:#9A491F} .fil7 {fill:#A75F4A} .fil5 {fill:#BE5724} .fil1 {fill:#C5C6C6} .fil6 {fill:#CC6F3C} .fil0 {fill:#D9DADA} .fil8 {fill:url(#a)} .fil2 {fill:url(#b)}</style>
  <linearGradient id="a" x1="16052" x2="154.1" y1="153.32" y2="16051" gradientUnits="userSpaceOnUse">
   <stop stop-color="#C5C6C6" offset="0"/>
   <stop stop-color="#898989" offset="1"/>
  </linearGradient>
  <linearGradient id="b" x1="4949.2" x2="20847" y1="153.32" y2="16051" gradientUnits="userSpaceOnUse" xlink:href="#a"></linearGradient>
 </defs>
 <path class="fil0" d="m19156 726c479-469 1230-484 1845-726-242 614-258 1365-727 1844l-14112 14404-1410-1410 14404-14112z"/>
 <path class="fil1" d="m19118 957c470-463 1153-536 1730-803-268 576-342 1258-805 1728l-13926 14169-1168-1168 14169-13926z"/>
 <path class="fil2" d="m20821 213c-247 563-330 1215-778 1669l-13926 14169-567-567 15271-15271z"/>
 <polygon class="fil3" points="4597 15757 5244 16403 1685 19962 1039 19315"/>
 <circle class="fil3" transform="matrix(.66431 .66431 -.66431 .66431 906.6 20093)" r="965"/>
 <path class="fil4" d="m1510 19491c332 333 332 872 0 1206-334 332-873 332-1206 0-333-334-333-873 0-1206s872-333 1206 0z"/>
 <path class="fil5" d="m1391 19610c267 267 267 700 0 968-268 266-701 266-968 0-267-268-267-701 0-968s700-267 968 0z"/>
 <path class="fil6" d="m1227 19774c176 177 176 463 0 640-177 176-463 176-640 0-176-177-176-463 0-640 177-177 463-177 640 0z"/>
 <path class="fil3" d="m1023 19978c64 64 64 168 0 232-64 63-168 63-231 0-64-64-64-168 0-232 63-64 167-64 231 0z"/>
 <path class="fil4" d="m4391 15992l617 617c65 65 65 172 0 236s-170 64-235 0l-617-617c-65-65-65-171 0-236s170-65 235 0z"/>
 <path class="fil4" d="m2509 17874l618 617c65 64 170 64 235 0 64-65 64-170 0-235l-618-618c-65-64-170-64-235 0-64 65-64 171 0 236z"/>
 <path class="fil4" d="m2509 17874l618 617c65 64 65 171 0 236-65 64-171 64-236 0l-618-618c-64-65-64-170 0-235 65-65 172-65 236 0z"/>
 <path class="fil4" d="m3451 16933l616 618c65 64 171 64 236 0 65-65 65-172 0-236l-618-618c-64-63-170-63-234 0-65 65-65 171 0 236z"/>
 <path class="fil4" d="m3451 16933l616 618c65 64 65 170 0 234-65 65-170 65-235 0l-617-617c-65-65-65-170 0-235 64-65 171-65 236 0z"/>
 <path class="fil4" d="m1568 18814l618 618c64 65 171 65 234 0 65-65 65-170 0-235l-616-617c-65-65-171-65-236 0-65 64-65 170 0 234z"/>
 <path class="fil4" d="m1568 18814l618 618c64 65 64 171 0 236-65 65-170 65-235 0l-618-618c-64-65-64-171 0-236 65-64 170-64 235 0z"/>
 <path class="fil4" d="m3920 16462l618 618c64 65 171 65 235 0 65-65 65-171 0-235l-617-617c-65-65-171-65-236 0-65 64-65 170 0 234z"/>
 <path class="fil4" d="m2980 17404l617 617c65 65 65 170 0 235-64 65-171 65-235 0l-618-618c-65-64-65-170 0-234 65-65 171-65 236 0z"/>
 <path class="fil4" d="m2039 18344l617 617c65 65 170 65 235 0 65-64 65-170 0-234l-618-618c-64-65-170-65-234 0-65 65-65 170 0 235z"/>
 <path class="fil4" d="m3920 16462l618 618c64 65 64 170 0 235-65 64-170 64-235 0l-618-618c-64-63-64-170 0-235 65-64 170-64 235 0z"/>
 <path class="fil4" d="m2980 17404l617 617c65 65 171 65 235 0 65-65 65-171 0-236l-617-617c-65-65-170-65-235 0-65 64-65 171 0 236z"/>
 <path class="fil4" d="m2039 18344l617 617c65 65 65 171 0 236-64 65-171 65-236 0l-616-617c-65-65-65-172 0-236 65-65 170-65 235 0z"/>
 <polygon class="fil3" points="2395 12592 5699 15301 8408 18605 8165 18847 4843 16204 2153 12835"/>
 <polygon class="fil7" points="2683 12908 5655 15346 8093 18318 7875 18537 4884 16157 2464 13126"/>
 <polygon class="fil4" points="5655 15345 5655 15346 8093 18318 7875 18537 4884 16157 4866 16135"/>
 <circle class="fil3" transform="matrix(.2931 .2931 -.29311 .29311 8100.6 18582)" r="965"/>
 <path class="fil4" d="m8367 18316c147 147 147 385 0 532s-385 147-532 0-147-385 0-532 385-147 532 0z"/>
 <path class="fil5" d="m8314 18369c118 117 118 308 0 427-118 117-309 117-427 0-118-119-118-310 0-427 118-118 309-118 427 0z"/>
 <path class="fil6" d="m8242 18441c78 78 78 204 0 282s-204 78-282 0-78-204 0-282 204-78 282 0z"/>
 <path class="fil3" d="m8152 18531c28 28 28 74 0 102s-74 28-102 0-28-74 0-102 74-28 102 0z"/>
 <circle class="fil3" transform="matrix(.2931 .2931 -.29311 .29311 8100.6 18582)" r="965"/>
 <path class="fil4" d="m8367 18316c147 147 147 385 0 532s-385 147-532 0-147-385 0-532 385-147 532 0z"/>
 <path class="fil5" d="m8314 18369c118 117 118 308 0 427-118 117-309 117-427 0-118-119-118-310 0-427 118-118 309-118 427 0z"/>
 <path class="fil6" d="m8242 18441c78 78 78 204 0 282s-204 78-282 0-78-204 0-282 204-78 282 0z"/>
 <path class="fil3" d="m8152 18531c28 28 28 74 0 102s-74 28-102 0-28-74 0-102 74-28 102 0z"/>
 <circle class="fil3" transform="matrix(.2931 .2931 -.29311 .29311 8100.6 18582)" r="965"/>
 <path class="fil4" d="m8367 18316c147 147 147 385 0 532s-385 147-532 0-147-385 0-532 385-147 532 0z"/>
 <path class="fil5" d="m8314 18369c118 117 118 308 0 427-118 117-309 117-427 0-118-119-118-310 0-427 118-118 309-118 427 0z"/>
 <path class="fil6" d="m8242 18441c78 78 78 204 0 282s-204 78-282 0-78-204 0-282 204-78 282 0z"/>
 <path class="fil3" d="m8152 18531c28 28 28 74 0 102s-74 28-102 0-28-74 0-102 74-28 102 0z"/>
 <circle class="fil3" transform="matrix(.2931 .2931 -.29311 .29311 8100.6 18582)" r="965"/>
 <path class="fil4" d="m8367 18316c147 147 147 385 0 532s-385 147-532 0-147-385 0-532 385-147 532 0z"/>
 <path class="fil5" d="m8314 18369c118 117 118 308 0 427-118 117-309 117-427 0-118-119-118-310 0-427 118-118 309-118 427 0z"/>
 <path class="fil6" d="m8242 18441c78 78 78 204 0 282s-204 78-282 0-78-204 0-282 204-78 282 0z"/>
 <path class="fil3" d="m8152 18531c28 28 28 74 0 102s-74 28-102 0-28-74 0-102 74-28 102 0z"/>
 <circle class="fil3" transform="matrix(.2931 .2931 -.29311 .29311 2412.6 12894)" r="965"/>
 <path class="fil4" d="m2679 12628c146 147 146 385 0 532-147 147-385 147-532 0s-147-385 0-532 385-147 532 0z"/>
 <path class="fil5" d="m2626 12681c118 117 118 308 0 426s-309 118-427 0-118-309 0-426c118-119 309-119 427 0z"/>
 <path class="fil6" d="m2554 12753c78 78 78 204 0 282s-204 78-282 0-78-204 0-282 204-78 282 0z"/>
 <path class="fil3" d="m2464 12843c28 28 28 74 0 102s-74 28-102 0-28-74 0-102 74-28 102 0z"/>
 <circle class="fil3" transform="matrix(.2931 .2931 -.29311 .29311 2412.6 12894)" r="965"/>
 <path class="fil4" d="m2679 12628c146 147 146 385 0 532-147 147-385 147-532 0s-147-385 0-532 385-147 532 0z"/>
 <path class="fil5" d="m2626 12681c118 117 118 308 0 426s-309 118-427 0-118-309 0-426c118-119 309-119 427 0z"/>
 <path class="fil6" d="m2554 12753c78 78 78 204 0 282s-204 78-282 0-78-204 0-282 204-78 282 0z"/>
 <path class="fil3" d="m2464 12843c28 28 28 74 0 102s-74 28-102 0-28-74 0-102 74-28 102 0z"/>
 <path class="fil0" d="m1845 726c-478-469-1230-484-1845-726 242 614 258 1365 727 1844l14112 14404 1411-1410-14405-14112z"/>
 <path class="fil1" d="m1884 957c-471-463-1153-536-1730-803 267 576 341 1258 804 1728l13926 14169 1168-1168-14168-13926z"/>
 <path class="fil8" d="m180 213c247 563 331 1215 778 1669l13926 14169 567-567-15271-15271z"/>
 <polygon class="fil3" points="16404 15757 15757 16403 19316 19962 19962 19315"/>
 <circle class="fil3" transform="matrix(-.66431 .66431 .66431 .66431 20095 20093)" r="965"/>
 <path class="fil4" d="m19491 19491c-332 333-332 872 0 1206 334 332 874 332 1206 0 333-334 333-873 0-1206-332-333-872-333-1206 0z"/>
 <path class="fil5" d="m19610 19610c-266 267-266 700 0 968 268 266 701 266 968 0 268-268 268-701 0-968-267-267-700-267-968 0z"/>
 <path class="fil6" d="m19774 19774c-176 177-176 463 0 640 177 176 464 176 640 0 177-177 177-463 0-640-176-177-463-177-640 0z"/>
 <path class="fil3" d="m19979 19978c-64 64-64 168 0 232 64 63 167 63 231 0 64-64 64-168 0-232s-167-64-231 0z"/>
 <path class="fil4" d="m16611 15992l-618 617c-65 65-65 172 0 236s170 64 235 0l617-617c65-65 65-171 0-236-64-65-170-65-234 0z"/>
 <path class="fil4" d="m18492 17874l-618 617c-64 64-170 64-234 0-65-65-65-170 0-235l617-618c65-64 170-64 235 0 65 65 65 171 0 236z"/>
 <path class="fil4" d="m18492 17874l-618 617c-64 64-64 171 0 236 65 64 172 64 236 0l618-618c65-65 65-170 0-235s-171-65-236 0z"/>
 <path class="fil4" d="m17551 16933l-617 618c-64 64-171 64-236 0-64-65-64-172 0-236l618-618c65-63 170-63 235 0 65 65 65 171 0 236z"/>
 <path class="fil4" d="m17551 16933l-617 618c-64 64-64 170 0 234 65 65 170 65 235 0l618-617c64-65 64-170 0-235-65-65-171-65-236 0z"/>
 <path class="fil4" d="m19433 18814l-617 618c-65 65-171 65-235 0-65-65-65-170 0-235l616-617c65-65 172-65 236 0 65 64 65 170 0 234z"/>
 <path class="fil4" d="m19433 18814l-617 618c-65 65-65 171 0 236 64 65 170 65 234 0l618-618c65-65 65-171 0-236-65-64-170-64-235 0z"/>
 <path class="fil4" d="m17081 16462l-617 618c-65 65-171 65-236 0s-65-171 0-235l617-617c65-65 172-65 236 0 65 64 65 170 0 234z"/>
 <path class="fil4" d="m18021 17404l-617 617c-65 65-65 170 0 235s171 65 236 0l617-618c65-64 65-170 0-234-64-65-171-65-236 0z"/>
 <path class="fil4" d="m18963 18344l-618 617c-65 65-170 65-235 0-64-64-64-170 0-234l618-618c65-65 170-65 235 0 64 65 64 170 0 235z"/>
 <path class="fil4" d="m17081 16462l-617 618c-65 65-65 170 0 235 64 64 170 64 234 0l618-618c65-63 65-170 0-235-65-64-170-64-235 0z"/>
 <path class="fil4" d="m18021 17404l-617 617c-65 65-170 65-235 0s-65-171 0-236l618-617c64-65 170-65 234 0 65 64 65 171 0 236z"/>
 <path class="fil4" d="m18963 18344l-618 617c-65 65-65 171 0 236s171 65 236 0l616-617c65-65 65-172 0-236-64-65-170-65-234 0z"/>
 <polygon class="fil3" points="18606 12592 15302 15301 12594 18605 12836 18847 16159 16204 18849 12835"/>
 <polygon class="fil7" points="18319 12908 15346 15346 12908 18318 13127 18537 16117 16157 18537 13126"/>
 <polygon class="fil4" points="15346 15345 15346 15346 12908 18318 13127 18537 16117 16157 16135 16135"/>
 <circle class="fil3" transform="matrix(-.2931 .2931 .29311 .29311 12901 18582)" r="965"/>
 <path class="fil4" d="m12634 18316c-146 147-146 385 0 532 148 147 386 147 532 0 148-147 148-385 0-532-146-147-384-147-532 0z"/>
 <path class="fil5" d="m12687 18369c-118 117-118 308 0 427 118 117 309 117 427 0 118-119 118-310 0-427-118-118-309-118-427 0z"/>
 <path class="fil6" d="m12759 18441c-77 78-77 204 0 282 78 78 205 78 283 0s78-204 0-282-205-78-283 0z"/>
 <path class="fil3" d="m12849 18531c-28 28-28 74 0 102 29 28 74 28 102 0 29-28 29-74 0-102-28-28-73-28-102 0z"/>
 <circle class="fil3" transform="matrix(-.2931 .2931 .29311 .29311 12901 18582)" r="965"/>
 <path class="fil4" d="m12634 18316c-146 147-146 385 0 532 148 147 386 147 532 0 148-147 148-385 0-532-146-147-384-147-532 0z"/>
 <path class="fil5" d="m12687 18369c-118 117-118 308 0 427 118 117 309 117 427 0 118-119 118-310 0-427-118-118-309-118-427 0z"/>
 <path class="fil6" d="m12759 18441c-77 78-77 204 0 282 78 78 205 78 283 0s78-204 0-282-205-78-283 0z"/>
 <path class="fil3" d="m12849 18531c-28 28-28 74 0 102 29 28 74 28 102 0 29-28 29-74 0-102-28-28-73-28-102 0z"/>
 <circle class="fil3" transform="matrix(-.2931 .2931 .29311 .29311 12901 18582)" r="965"/>
 <path class="fil4" d="m12634 18316c-146 147-146 385 0 532 148 147 386 147 532 0 148-147 148-385 0-532-146-147-384-147-532 0z"/>
 <path class="fil5" d="m12687 18369c-118 117-118 308 0 427 118 117 309 117 427 0 118-119 118-310 0-427-118-118-309-118-427 0z"/>
 <path class="fil6" d="m12759 18441c-77 78-77 204 0 282 78 78 205 78 283 0s78-204 0-282-205-78-283 0z"/>
 <path class="fil3" d="m12849 18531c-28 28-28 74 0 102 29 28 74 28 102 0 29-28 29-74 0-102-28-28-73-28-102 0z"/>
 <circle class="fil3" transform="matrix(-.2931 .2931 .29311 .29311 12901 18582)" r="965"/>
 <path class="fil4" d="m12634 18316c-146 147-146 385 0 532 148 147 386 147 532 0 148-147 148-385 0-532-146-147-384-147-532 0z"/>
 <path class="fil5" d="m12687 18369c-118 117-118 308 0 427 118 117 309 117 427 0 118-119 118-310 0-427-118-118-309-118-427 0z"/>
 <path class="fil6" d="m12759 18441c-77 78-77 204 0 282 78 78 205 78 283 0s78-204 0-282-205-78-283 0z"/>
 <path class="fil3" d="m12849 18531c-28 28-28 74 0 102 29 28 74 28 102 0 29-28 29-74 0-102-28-28-73-28-102 0z"/>
 <circle class="fil3" transform="matrix(-.2931 .2931 .29311 .29311 18589 12894)" r="965"/>
 <path class="fil4" d="m18323 12628c-147 147-147 385 0 532s385 147 531 0c148-147 148-385 0-532-146-147-384-147-531 0z"/>
 <path class="fil5" d="m18375 12681c-118 117-118 308 0 426s309 118 427 0 118-309 0-426c-118-119-309-119-427 0z"/>
 <path class="fil6" d="m18447 12753c-77 78-77 204 0 282 78 78 205 78 283 0s78-204 0-282-205-78-283 0z"/>
 <path class="fil3" d="m18537 12843c-28 28-28 74 0 102 29 28 74 28 103 0 28-28 28-74 0-102-29-28-74-28-103 0z"/>
 <circle class="fil3" transform="matrix(-.2931 .2931 .29311 .29311 18589 12894)" r="965"/>
 <path class="fil4" d="m18323 12628c-147 147-147 385 0 532s385 147 531 0c148-147 148-385 0-532-146-147-384-147-531 0z"/>
 <path class="fil5" d="m18375 12681c-118 117-118 308 0 426s309 118 427 0 118-309 0-426c-118-119-309-119-427 0z"/>
 <path class="fil6" d="m18447 12753c-77 78-77 204 0 282 78 78 205 78 283 0s78-204 0-282-205-78-283 0z"/>
 <path class="fil3" d="m18537 12843c-28 28-28 74 0 102 29 28 74 28 103 0 28-28 28-74 0-102-29-28-74-28-103 0z"/>
</svg>
