<?xml version="1.0" encoding="UTF-8"?>
<svg viewBox="0 0 640 480" xmlns="http://www.w3.org/2000/svg">
 <defs>
  <linearGradient id="a" x1=".40234" x2=".40234" y1=".66016" y2=".98828">
   <stop stop-color="#567bff" offset="0"/>
   <stop stop-color="#fff" offset="1"/>
  </linearGradient>
 </defs>
 <path d="m207.5 13.507c-10.25 7.2556-6 21.767 6.75 23.745l7.5 1.0993 1.5 29.682c0.75 16.27 2.5 32.32 4 35.398 2.75 5.2768 1.75 6.8158-10 17.809-16.25 15.171-33.5 41.554-39.75 60.683-5 16.27-11.75 65.96-12 88.386 0 19.128-6.5 50.569-14 68.378-11.25 26.604-22.75 38.916-43.5 45.952-22 7.6953-30 14.291-30 24.845 0 12.752 21.5 16.93 50 9.4542 20.75-5.4966 25-4.8371 25 3.298 0 3.7377-1 8.3549-2.25 10.554-3 4.8371-1 7.4755 9 12.093 12.25 5.4966 27.75 4.3973 56.25-4.3973 34.75-10.334 41-10.334 66.75 0.21988 20.25 8.3549 22.5 8.7946 45.25 8.7946s25.25-0.43973 44.75-8.5747c26-10.773 33.5-10.773 66.5-0.43976 27.25 8.5748 42.75 9.894 57 4.6172 10.75-3.9576 12-6.8158 7.25-15.83-7.25-13.632 0-16.71 24.5-10.334 28.5 7.4754 50 3.298 50-9.4542 0-9.6741-5-14.071-26.75-23.086-24.5-10.554-34.25-19.568-44.25-40.895-8-16.93-16.5-55.186-16.5-74.974-0.25-22.646-7-72.336-12-88.606-6.25-19.568-23.75-45.952-39.75-60.463-12.25-11.213-12.75-12.312-10-17.809 1.5-3.298 3.5-18.688 4.25-34.519 1.25-26.384 1.75-28.582 6.25-29.242 7.75-1.3192 13.75-7.2556 13.75-13.632 0-11.213-15.5-17.15-26.5-10.114-4.25 2.8582-4.75 6.1562-5 36.937 0 27.703-0.75 34.959-4.5 40.895-4.25 7.0357-4.5 7.2555-9.75 3.9576-20.75-12.972-47.25-19.788-79.25-19.788-31.5 0-58.25 6.596-79.25 19.788-5.25 3.298-5.5 3.0781-9.75-3.9576s-5.75-22.206-6.25-63.321c0-7.6953-1.5-13.412-4-16.05-4.75-4.3973-15.5-4.837-21.25-1.0993zm75.75 189.96c5.75 2.4185 7.25 4.6172 7.25 10.334 0 16.49 16.75 28.802 39.25 28.582 10.25 0 15-1.3192 22.25-6.1562 9.5-6.3761 17.25-18.908 15.25-25.284-0.75-2.6384 1-4.837 4.5-6.1562 3-1.3192 9.75-5.4966 14.75-9.2343 5.75-4.6172 9.25-5.9364 9.25-4.1774 0.25 1.7589 0.75 4.6172 1 6.3761 0 1.7589 1.25 5.0569 2.25 7.2555 1.25 1.9788 1.25 7.4754 0.25 11.873-1.25 6.1562-2.25 7.2556-4 4.837-2-2.1986-2.25-1.7589-1 1.7589 1.75 5.4966-5.25 19.128-8.75 17.15-1.5-0.65958-1.75 0.21988-1 2.1987 1.25 2.4185 0.5 3.0781-3 1.7589-3-0.87942-3.75-0.65955-2.5 1.0993 1 1.5391 0.25 2.6384-2 2.6384-2 0-4.5 1.0993-5.5 2.6384-1 1.539-0.75 1.7589 1 0.87949 1.75-0.87949 3-1.0993 3-0.43976 0 3.298-20 12.532-24.5 11.433-2.75-0.87949-6-0.21988-7.75 1.539-3.5 3.7377-21.5 3.5178-29.5-0.21985-6.5-3.0781-11-3.5178-5.75-0.43973 2.25 1.3192 2.5 2.1987 0.75 2.1987s-4-1.5391-5.25-3.7377c-1.5-1.9788-4-3.0781-6.25-2.1987-2.25 0.65964-4.75 0.21988-5.75-1.0993-1.25-1.539-0.5-1.7589 1.75-0.65958 2.5 1.3192 2.75 1.0993 0.75-0.87946-1.5-1.5391-5.25-2.8583-8.25-3.0781-2.75-0.21985-5.25-1.3192-5.25-2.8582 0-1.3192-2-3.9576-4.25-5.4966-4.25-2.8582-4.25-2.8582-0.75 1.3192s3.5 4.1774-0.75 1.3192c-2.5-1.7589-4-4.3973-3.25-5.9364 0.75-1.7589 0-2.8582-1.75-2.4186-1.75 0.21988-2.75-1.3192-2.25-3.7376 0.5-2.1987-0.25-3.298-1.75-2.6384-4 2.1987-8.25-7.0357-6.5-14.731 1.25-5.2768 1-6.1562-1-3.7377-1.5 1.7589-2.75 2.1986-2.75 0.87944 0-1.0993 1.25-3.298 3-4.837 2.25-1.9788 2.25-2.6384 0-2.6384-3.75 0-4-7.9152-0.25-9.8939 1.5-0.87944 2-2.8582 1.25-4.3973-2.25-5.4966 1.75-5.2768 9.25 0.21986 4 2.8582 10.5 6.8158 14.5 8.7946z" fill="url(#a)" stroke="#99b0ff"/>
 <g stroke-width="null">
  <ellipse cx="327.88" cy="196.48" rx="68.5" ry="48" fill="#fff"/>
  <ellipse cx="327.88" cy="207.98" rx="28.5" ry="23.5"/>
 </g>
</svg>
