<?xml version="1.0" encoding="UTF-8"?>
<svg viewBox="0 0 232 298" xmlns="http://www.w3.org/2000/svg">
 <defs>
  <linearGradient id="b" x2="0" y1="1.6549" y2=".35174">
   <stop stop-color="#2e3436" offset="0"/>
   <stop stop-color="#d8571d" offset="1"/>
  </linearGradient>
  <linearGradient id="a" x1=".46977" x2=".25741" y1=".50531" y2="-.16924">
   <stop stop-color="#eb7331" offset="0"/>
   <stop stop-color="#cf4913" offset="1"/>
  </linearGradient>
 </defs>
 <path transform="translate(-484 -441.13)" d="m700.29 554.36c0 7.2352-0.62537 114.57-1.8207 121.43-9.1363 52.42-51.57-8.1905-102.54-8.1905-50.183 0-92.093 61.821-102.09 10.6-1.4847-7.606-2.2658-115.75-2.2658-123.83 0-62.538 46.722-113.23 104.36-113.23s104.36 50.697 104.36 113.23z" fill="#eb7331"/>
 <path transform="matrix(1.3547 0 0 1.3547 -312.38 -247.03)" d="m358.57 237.01c0 23.078-18.708 41.786-41.786 41.786s-41.786-18.708-41.786-41.786 18.708-41.786 41.786-41.786 41.786 18.708 41.786 41.786z" fill="url(#a)"/>
 <path transform="matrix(.93162 0 0 .93162 -180.48 -150.3)" d="m358.57 237.01c0 23.078-18.708 41.786-41.786 41.786s-41.786-18.708-41.786-41.786 18.708-41.786 41.786-41.786 41.786 18.708 41.786 41.786z" fill="#fff"/>
 <path transform="matrix(.44088 0 0 .44088 -25.022 -33.991)" d="m358.57 237.01c0 23.078-18.708 41.786-41.786 41.786s-41.786-18.708-41.786-41.786 18.708-41.786 41.786-41.786 41.786 18.708 41.786 41.786z" fill="#2e3436"/>
 <path transform="matrix(.13628 0 0 .13628 79.249 32.544)" d="m358.57 237.01c0 23.078-18.708 41.786-41.786 41.786s-41.786-18.708-41.786-41.786 18.708-41.786 41.786-41.786 41.786 18.708 41.786 41.786z" fill="#fff"/>
 <path transform="translate(-484 -441.13)" d="m672 601.57v9.9792c0 3.3298-14.272 6.0104-32 6.0104h-89c-17.728 0-32-2.6806-32-6.0104v-9.9792c29.769-1.1063 128.38-28.819 153 0z" fill="url(#b)"/>
 <path transform="translate(-484 -441.13)" d="m556.47 596.32c-7.6359 1.2697-14.707 2.438-20.938 3.375-0.01721 0.22674-0.03119 0.45514-0.03119 0.6875v20.344c0 4.0554 2.6702 7.3438 6 7.3438h10c3.3298 0 6-3.2883 6-7.3438v-20.344c0-1.5103-0.39258-2.8993-1.0312-4.0625h-6e-5z" fill="#fff"/>
 <path transform="translate(-484 -441.13)" d="m592.25 604.88c-14.774 0-26.989 5.5123-28.969 12.688h57.938c-1.9799-7.1752-14.195-12.688-28.969-12.688z" fill="#2e3436"/>
 <path transform="translate(-484 -441.13)" d="m626.1875,588.50586c-1.91193.00702-3.85254.02991-5.8125.09369-.02399.26709-.03119.53735-.03119.8125v20.375c0,4.05542 2.70148,7.3125 6.03125,7.3125h9.96875c3.32977,0 6-3.25708 6-7.3125v-20.375c0-.03162.00031-.0622 0-.09369-5.06683-.57465-10.49658-.83398-16.15625-.8125h-6e-005z" fill="#fff"/>
 <path transform="translate(-484 -441.13)" d="m527.64 473.48a6.0104 6.0104 0 1 1 -12.021 0 6.0104 6.0104 0 1 1 12.021 0z" fill="#eb7331"/>
 <path transform="translate(-484 -441.13)" d="m518.45 489.39a6.0104 6.0104 0 1 1 -12.021 0 6.0104 6.0104 0 1 1 12.021 0z" fill="#eb7331"/>
 <path transform="translate(-484 -441.13)" d="m528.8 479.98c0.14758 0.52139 0.25 1.0564 0.25 1.625 0 3.3194-2.6806 6.0312-6 6.0312-1.532 0-2.9385-0.58759-4-1.5312 0.72107 2.511 3.0072 4.3438 5.75 4.3438 3.3194 0 6.0312-2.6806 6.0312-6 0-1.7843-0.79651-3.368-2.0312-4.4688z" fill="#d9581e"/>
 <path transform="translate(-484 -441.13)" d="m518.46 495.89c0.10273 0.36291 0.17402 0.73526 0.17402 1.1311 0 2.3105-1.8658 4.1981-4.1763 4.1981-1.0664 0-2.0453-0.40897-2.7842-1.0658 0.50189 1.7478 2.0931 3.0235 4.0023 3.0235 2.3105 0 4.198-1.8658 4.198-4.1763 0-1.242-0.55438-2.3443-1.4138-3.1105z" fill="#d9581e"/>
 <path transform="matrix(-1 0 0 1 222.55 -1.4142)" d="m46.669 27.052a6.0104 6.0104 0 1 1 -12.021 0 6.0104 6.0104 0 1 1 12.021 0z" fill="#eb7331"/>
 <path transform="matrix(-1 0 0 1 231.74 14.496)" d="m46.669 27.052a6.0104 6.0104 0 1 1 -12.021 0 6.0104 6.0104 0 1 1 12.021 0z" fill="#eb7331"/>
 <path transform="translate(-484 -441.13)" d="m658.61 475.73c-0.16528 0.52139-0.28003 1.0563-0.28003 1.625 0 3.3195 3.0023 6.0312 6.7203 6.0312 1.7159 0 3.2912-0.58758 4.4802-1.5312-0.80768 2.511-3.3682 4.3438-6.4402 4.3438-3.718 0-6.7552-2.6805-6.7552-6 0-1.7843 0.89209-3.368 2.2751-4.4688z" fill="#d9581e"/>
 <path transform="translate(-484 -441.13)" d="m671.53 486.69c-0.10273 0.36291-0.17401 0.73526-0.17401 1.1311 0 2.3105 1.8658 4.1981 4.1763 4.1981 1.0663 0 2.0453-0.40897 2.7842-1.0658-0.5019 1.7478-2.0931 3.0235-4.0023 3.0235-2.3105 0-4.198-1.8658-4.198-4.1763 0-1.242 0.55438-2.3443 1.4138-3.1105z" fill="#d9581e"/>
 <path transform="matrix(-1 0 0 1 240.93 28.638)" d="m46.669 27.052a6.0104 6.0104 0 1 1 -12.021 0 6.0104 6.0104 0 1 1 12.021 0z" fill="#eb7331"/>
 <path transform="translate(-484 -441.13)" d="m676.75 503.66c-0.14758 0.52139-0.25 1.0564-0.25 1.625 0 3.3194 2.6805 6.0312 6 6.0312 1.532 0 2.9385-0.58759 4-1.5312-0.72107 2.511-3.0071 4.3438-5.75 4.3438-3.3195 0-6.0312-2.6806-6.0312-6 0-1.7843 0.79651-3.368 2.0312-4.4688z" fill="#d9581e"/>
</svg>
