<?xml version='1.0' encoding='utf-8'?>
<svg xmlns="http://www.w3.org/2000/svg" version="1.1" x="0px" y="0px" width="2834.643px" height="2313.811px" viewBox="0 0 2834.643 2313.811" enable-background="new 0 0 2834.643 2313.811"> <g id="color"> <path fill="#EB5D49" d="M893.226,1011.524c0,0,43.373-26.393-120.09-168.428c0,0-207.488-220.09-568.019,0 c0,0-287.891,251.138-94.636,663.145c0,0,82.922,253.505,663.166,462.067c0,0,188.255,79.626,420.407,59.616 c0,0,11.29,51.13,136.864-12.792c0,0,20.207-25.234,0.317-47.486c-3.911-4.381-1.09-5.766-1.09-5.766s74.644-6.507,80.583,87.208 c0,0,8.558,81.908-9.991,113.423c0,0-3.258,55.377,130.827,45.861h22.726c0,0-31.289,34.365,144.094,0 c0,0,66.341-13.764,137.44,17.014c0,0,111.594,5.207,56.123-40.1l-31.462-29.282c0,0,129.868-6.502,63.931-56.283 c0,0-83.905-37.374-257.037-15.557c0,0-64.45-22.22-18.465-99.348l13.134-39.731l2.508-7.581c0,0,170.189-6.41,278.534-30.663 c0,0,142.599-16.259,258.778-70.167c0,0,104.958-15.092,141.236-117.369c0,0,48.435-18.576,111.123-145.164 c0,0,13.494-25.194,30.419-24.284c16.925,0.928,8.531-7.883,8.531-7.883s-26.154-48.196,36.948-13.29 c0,0,21.656,94.137,64.263,84.549c0,0,43.988,1.185-20.751-87.252c0,0,119.876,74.77,141.649,12.18 c0,0,12.468-50.597-159.994-102.623c0,0,32.203-113.414-74.224-202.26c0,0-2.961-33.721-75.609-65.862 c0,0-2.921-23.849-62.355-46.087c0,0-157.655-75.672-221.071-78.858c0,0,12.743-26.455-187.443-48.844 c0,0-142.492,1.464-145.319-126.537c0,0,64.087-35.157,69.657-69.575c0,0,102.246,49.625,137.965-8.409 c0,0,37.285-15.469,84.526,17.286c0,0,52.994,58.991,77.141-79.207c0,0,35.448-16.277,49.407-36.806 c0,0,85.396-104.741-0.959-129.085l-43.552-20.605c0,0-1.878,32.731-53.358,22.502c0,0,40.317,47.612-4.403,34.225 c0,0-29.505,16.366-70.31-46.067c0,0-36.859-48.411-68.858-54.414c0,0-41.107-79.042-28.776-116.439 c0,0-53.047-84.211-267.389-63.514l-88.854,14.728c0,0,29.398-26.271,40.272-94.962c0,0-21.767,13.285-19.069-62.29 c0,0,6.023-135.088-21.204-114.446c0,0-13.081,0.326-11.181,105.908c0,0-48.058-37.187-33.885-129.293 c0,0-43.646-20.138-39.81,75.643c0,0,17.493,64.504,55.586,111.506c0,0,12.486,47.317,29.291,89.187 c0,0,35.363,21.624-16.947,9.734c0,0-65.662-24.302-55.116-158.582c0,0-8.145-73.834-43.513-47.177 c0,0-12.029,58.433-14.43,115.715c0,0-29.113-3.553-32.034-75.66c0,0,35.363-70.147-18.985-56.23c0,0-88.938-2.932-5.348,137.203 c0,0,57.512,45.031,77.695,79.018l12.038,29.693c0,0-69.386-27.296-77.03,20.449c0,0-16.654,42.244,70.904,10.973 c0,0-1.536,52.814,38.009,100.83c0,0-78.708,13.369-115.646,374.919c0,0,15.997,171.424,220.68,293.502 c0,0,246.789,134.023,205.726,249.132c0,0-44.356,297.221-837.589,165.822c0,0-474.894-77.762-622.697-282.382 c0,0-121.67-284.145,129.435-356.456C496.659,923.464,622.419,885.704,893.226,1011.524z"/> <path fill="#F2DBA7" d="M2120.661,571.975c0,0-90.164-46.977-10.555-87.532l61.414,51.547 C2171.52,535.99,2175.173,563.652,2120.661,571.975z"/> <path fill="#F2DBA7" d="M1726.161,312.88c0,0,3.244-182.452-34.782-192.83c0,0-28.652-6.773-54.849,37.457 c0,0-22.309,145.215-38.266,164.266C1598.264,321.773,1682.888,299.946,1726.161,312.88z"/> <path fill="#E52927" d="M1509.445,471.909c0,0-122.264-8.474-155.288,56.303c0,0-35.106,52.989,82.507,96.407 c0,0-95.51,35.412-95.51,100.455c0,0-15.009,51.245,54.03,90.667c0,0-61.718,59.43-49.37,105.462c0,0,11.159,48.029,78.798,26.015 c0,0-40.792,132.365,36.62,136.089c0,0,46.025,0,63.039-13.01c0,0-110.072-87.057-113.076-220.141 C1411.194,850.156,1396.568,608.998,1509.445,471.909z"/> <path fill="#F2DBA7" d="M2642.233,1559.351c0,0,59.288,12.087,78.059-31.351c0,0,39.78,71.233,10.764,99.96 C2731.057,1627.96,2707.088,1577.98,2642.233,1559.351z"/> <path fill="#F2DBA7" d="M2611.584,1606.206c0,0,32.416,67.487-60.651,44.467c0,0-38.018-17.675-7-19.841 c0,0,17.063-1.256,22.544-14.226C2566.478,1616.606,2599.187,1627.77,2611.584,1606.206z"/> <path fill="#F2DBA7" d="M2491.881,1549.422c0,0,44.813,39.634,0,39.216c0,0-42.013,2.814-28-19.61 C2463.881,1569.028,2467.854,1550.238,2491.881,1549.422z"/> <path fill="#F2DBA7" d="M1907.518,2143.998c0,0,40.388,4.674,28.199-34.187c0,0,62.013,19.708,42.922,68.477 C1978.64,2178.287,1920.528,2185.02,1907.518,2143.998z"/> <path fill="#F2DBA7" d="M1903.608,2188.03c0,0,40.934,31.08,26.925,59.568c0,0-42.314,16.011-94.704-29.784 C1835.828,2217.814,1929.725,2243.061,1903.608,2188.03z"/> <path fill="#F2DBA7" d="M1546.286,2202.039c0,0-27.019,61.037,32.021,79.049c0,0,10.906-48.546,16.96-57.792 C1595.267,2223.295,1562.297,2227.051,1546.286,2202.039z"/> <path fill="#F2DBA7" d="M1410.727,2126.749c0,0-37.556-12.229-52.563,0c0,0,4.086,30.263,42.572,35.763L1410.727,2126.749z"/> <path fill="#E83B3B" d="M1773.211,1259.467c0,0-77.833,44.982-96.839-55.076c0,0-21.017-22.3-66.048-17.657 c0,0-60.917-10.693-54.974-85.578C1555.35,1101.155,1726.529,1196.725,1773.211,1259.467z"/> <path fill="#E52927" d="M1820.586,1402.58c0,0-11.585,26.015-73.168,20.946c0,0-63.048-20.01-92.063,31.022 c0,0-29.709,29.02-100.409-44.028c0,0-113.733-6.002-116.734,81.056c0,0,5.628,73.851-53.029,39.021 c0,0-85.796-79.715-99.066-44.028c0,0-23.017,39.025-42.028,62.04c0,0-31.02,36.025-64.044-46.029c0,0-46.03-62.04-107.069,20.01 c0,0-77.143,5.029-93.058-37.019c0,0-19.016-94.065-156.105-23.015c0,0-81.051,66.163-73.046-59.976 c0,0,62.04-87.123-34.023-84.118c0,0-308.864,41.129-368.569-148.049c0,0-17.932,131.271,173.816,237.223 c0,0,279.755,141.404,557.961,168.21c0,0,432.139,64.699,633.856-51.312C1713.808,1524.534,1821.82,1472.641,1820.586,1402.58z"/> <path fill="#E52927" d="M951.67,938.174c0,0-65.709-69.659-21.069-108.352c0,0,99.341-64.046,146.041,150.763 c0,0-16.297,42.572,11.199,67.313c0,0,35.283,67.89-29.322,52.99c0,0,38.14,55.812,4.785,75.822c0,0-12.015,2.672-65.38-34.684 c0,0-26.683,61.374-149.432,21.35c0,0-94.723-18.709-77.38-80.07c0,0-9.337-85.374,128.083-41.347c0,0,32.017,17.342,42.692-5.34 c0,0,45.155,15.021,20.014-26.681C961.901,1009.939,916.089,941.126,951.67,938.174z"/> <path fill="#ED8A63" d="M1639.673,360.181c0,0,133.539-51.316,213.48,6.944c0,0,88.402,79.744,84.225,127.8 c0,0-98.904-96.043-188.295,6.692c0,0,61.654,15.839,71.521,26.597c0,0-19.73,18.23-74.979,12.493c0,0-29.904,16.235-5.886,31.269 c0,0,18.687,16.94,54.707,17.32c0,0-15.442,7.451-18.394,27.263c0,0,40.157,47.326,137.206-25.547c0,0-21.435-50.304,41.293-62.797 c0,0,65.369,9.404,58.702,46.107c0,0,49.363,8.686,50.694,34.034c0,0,30.343,67.164,91.886,34.249l15.687-12.903 c0,0-41.289-3.196-23.729-32.283c0,0,22.353-14.41,26.619-30.423c0,0,74.526,19.129,52.75,75.609c0,0,28.172-24.937,5.198-68.283 l-61.587-31.884c0,0-13.436,21.883-56.118,27.223c0,0,37.352,36.029-18.683,33.357l-62.706-46.238c0,0-16.077-39.171-66.736-59.843 c0,0-34.711-52.692-38.692-115.398c0,0-38.781-113.889-335.585-51.609L1639.673,360.181z"/> <path fill="#ED8A63" d="M1673.038,571.975c0,0-142.896-19.005-176.848,57.386c0,0-22.953,2.989,20.902-55.04 c0,0,82.551-70.039,153.269-11.334C1670.362,562.986,1691.947,573.557,1673.038,571.975z"/> <path fill="#ED8A63" d="M1680.802,642.604c0,0-99.818,28.452-110.502,85.825c0,0-14.67,56.037,42.7,40.026 C1613,768.455,1567.157,722.217,1680.802,642.604z"/> <path fill="#ED8A63" d="M1961.227,667.052c0,0,170.78,50.697,233.481,25.35c0,0-5.06,29.431-53.899,27.391 C2140.809,719.794,1967.889,729.76,1961.227,667.052z"/> <path fill="#EB7B49" d="M2486.412,1350.141c0,0-30.205,64.042,73.86,106.733c0,0,187.51,77.389,94.42,85.397 c0,0-20.032,2.104-63.229-16.29c0,0,85.774,76.79,124.018,9.845c0,0,8.065-21.568-39.549-48.932 C2675.932,1486.894,2509.946,1423.526,2486.412,1350.141z"/> <path fill="#EB7B49" d="M2573.637,1513.401c0,0-34.253-56.527-61.836-64.53c0,0,109.211,173.78,57.055,157.335 c0,0,27.29,36.779,46.043-11.581C2614.9,1594.625,2587.531,1533.86,2573.637,1513.401z"/> <path fill="#EB7B49" d="M2486.412,1549.422c0,0-47.792-35.093-25.39-100.55c0,0,4.532,61.37,36.553,64.042 C2497.575,1512.913,2472.585,1523.22,2486.412,1549.422z"/> <path fill="#ED8A63" d="M1410.727,1870.288c0,0,222.487-81.145,249.07,81.597c0,0-43.93,93.986,0,121.035 c0,0-2.77,16.526,114.643,4.439c0,0,147.011-6.88,164.233,37.21c0,0,21.474,37.885-54.029,38.99c0,0,47.232-48.741-75.52-53.837 c0,0-224.142,45.604-190.785-73.141C1618.34,2026.58,1598.046,1860.767,1410.727,1870.288z"/> <path fill="#ED8A63" d="M1817.15,1443.532c0,0-153.069,362.905-1028.674,118.771c0,0-456.203-122.327-453.578-385.379 c0,0,10.63,214.603,442.911,334.68c0,0,391.524,120.156,756.123,70.749c0,0,212.499-18.904,283.217-156.9 C1817.15,1425.453,1833.148,1392.806,1817.15,1443.532z"/> <path fill="#ED8A63" d="M1662.248,461.58c0,0-23.703-1.751-40.464,5.129c0,0-35.461-5.124-10.098-30.476 c0,0,31.866-19.848-13.423-17.264c0,0-30.01,24.646-29.646,47.638c0,0-27.924-41.054,8.904-75.742c0,0-19.685-16.581-59.235-14.674 c0,0,24.901-49.021-16.907-95.226c0,0-58.334-124.861-18.043-160.913c0,0,11.944-13.34,26.108,28.672 c0,0-10.795,164.06,82.805,181.206C1592.249,329.929,1676.789,370.852,1662.248,461.58z"/> <path fill="#ED8A63" d="M892.542,992.593c0,0-148.092-228.157-472.303-234.824c0,0,232.565-62.71,388.46,117.411 C808.699,875.18,912.006,982.828,892.542,992.593z"/> <path fill="#E5C880" d="M1862.492,795.118c0,0-24.537,98.422-120.605,78.408c0,0,78.716-42.379,51.84-113.489 C1793.727,760.037,1817.634,776.609,1862.492,795.118z"/> <path fill="#CE3736" d="M1862.492,647.027c0,0,122.735,23.499,152.097-62.564C2014.589,584.463,1999.906,687.055,1862.492,647.027z "/> <path fill="#CE3736" d="M1877.162,410.295c0,0-148.932-58.127-162.52,24.595C1714.642,434.889,1745.074,375.029,1877.162,410.295z"/> <path fill="#CE3736" d="M1955.878,675.046c0,0-8.007,48.251,113.41,68.822c0,0,75.432,1.975,71.521,27.462l15.025-48.142 C2155.834,723.189,1997.243,727.086,1955.878,675.046z"/> <path fill="#CE3736" d="M1787.029,753.217c0,0-12.486-19.231-3.875-30.028c0,0,80.661,83.06,199.41,58.813 c0,0,42.714-29.586,95.402,13.11l22.961,23.013c0,0-64.996-47.024-102.352-24.347 C1998.574,793.778,1946.388,856.748,1787.029,753.217z"/> <path fill="#CE3736" d="M1539.606,490.917c0,0-206.807,242.822-29.353,525.676c0,0,53.371,90.727,145.43,142.758 c0,0-134.493-56.039-217.342-206.802c0,0-63.012-93.753-14.554-258.835c0,0,42.439-182.616,93.133-220.057 c0,0-48.156-47.53-26.734-113.494c0,0-53.846,57.468-83.599,14.725c0,0-13.804-51.043,78.281-28.212 c0,0,6.769-43.713-59.972-77.152c0,0,76.932,3.225,76.484,102.648c0,0,14.212,148.045,134.293,99.374 C1635.673,471.547,1607.656,526.942,1539.606,490.917z"/> <path fill="#D7443C" d="M1490.185,635.697c0,0-13.573,27.964,95.312,3.633c0,0,62.444,33.898,90.994-41.913 c0,0-22.686,58.296-73.78,25.931c0,0-8.021-19.668-64.916,0C1537.795,623.349,1517.483,637.49,1490.185,635.697z"/> <path fill="#D7443C" d="M1572.475,760.037c0,0,6.995,51.542,73.114,10.62c0,0,31.95-54.459,69.053-93.051 c0,0-50.948,9.526-58.96,36.832C1655.683,714.438,1617.35,809.016,1572.475,760.037z"/> <path fill="#D7443C" d="M331.528,1183.622c0,0-55.393-203.049,128.725-276.434c0,0,192.13-92.057,417.608,88.055 c0,0-238.825-97.394-333.552-70.709c0,0-232.449-4.885-203.613,252.39L331.528,1183.622z"/> <path fill="#EB7B49" d="M1841.603,226.256c0,0,20.978,71.372-58.449,43.269c0,0-40.894-73.827,25.101-103.966 c0,0,48.888-53.684,68.907-13.596C1877.162,151.963,1920.781,176.407,1841.603,226.256z"/> <path fill="#EB7B49" d="M1963.824,395.787c0,0-0.582-16.523-22.598-29.027c0,0-6.285-40.439,81.571-31.52 c0,0,41.386,42.871-22.873,55.209h-24.018L1963.824,395.787z"/> <path fill="#CE3736" d="M1287.457,1913.189c0,0-94.724-102.734-145.424-14.679c0,0-32.025,20.01,134.751,73.381 c0,0,13.343,4.012-50.695,9.344c0,0-69.18,16.01-12.579,57.37c0,0,180.682-17.342,111.303-81.388c0,0,73.334-4.545,77.667,52.457 c0,0,27.471,51.272-1.745,152.839c0,0-5.207,68.214,148.223,33.53c0,0-17.342,52.013,142.767,5.997 c0,0,180.283,17.324,198.211,18.997c0,0-163.656-63.687-287.008-42.345c0,0-171.384-14.594-156.709-34.435 c0,0,26.02-237.414-137.416-203.045c0,0-149.425-10.679-110.733-53.371C1198.07,1887.839,1212.745,1869.161,1287.457,1913.189z"/> <path fill="#CE3736" d="M2435.083,1435.538c0,0-36.06,82.973,13.884,133.543c49.936,50.575,0,5.895,0,5.895 s-76.146-23.09-52.129-118.283l16.011-21.155c0,0-19.601-8.864-60.837,63.611c0,0-72.737,37.112-99.01-50.277l71.792-24.786 c0,0-60.038-74.602,0-80.607c0,0-13.481,44.644,37.285,68.352C2362.079,1411.83,2444.821,1401.781,2435.083,1435.538z"/> <path fill="#E3BF6F" d="M1660.796,1925.794c0,0,222.567-17.884,229.14-62.95l54.965,37.33c0,0,224.102-24.351,210.932-112.406 c0,0,16.77,42.044,54.885,42.026c0,0,104.066-28.017,98.065-124.084c0,0,131.954-57.743,140.184-130.734 c0,0-32.634,119.144-104.421,138.945c0,0-17.662,89.902-142.678,122.753c0,0-137.245,71.161-283.337,70.167l-256.483,38.244 L1660.796,1925.794z"/> <path fill="#E3BF6F" d="M2339.659,1120.051c-32.487-22.487-229.553-90.399-229.553-90.399 c-11.94-12.819-121.581-30.747-121.581-30.747c-110.125,15.664-159.878-31.575-159.878-31.575 c-35.847-25.92-38.746-89.065-38.746-89.065l-19.268-5.384c-43.686,9.812,25.265,123.286,25.265,123.286 c73.505-9.095,117.36,44.187,117.36,44.187c114.816-24.941,142.252,74.091,142.252,74.091 c169-44.911,266.354,62.479,266.354,62.479s-29.095,54.485,5.713,9.81c32.363-41.538,43.242,54.676,43.242,54.676 c50.033-46.029,84.229,28.146,84.229,28.146c86.227-13.884,82.44,142.274,82.44,142.274c26.575,30.33,25.864,7.692,25.864,7.692 c0.617-145.434-87.043-198.597-87.043-198.597c-0.586-30.494-70.851-53.509-70.851-53.509 c2.624-21.958-62.355-46.087-62.355-46.087L2339.659,1120.051z"/> <path fill="#CE3736" d="M375.203,760.037c0,0-405.944,159.383-265.853,667.608c0,0,183.923,469.999,1072.599,574.167l20.596,27.582 c0,0-164.721,38.901-472.859-77.349c0,0-475.014-143.335-649.74-501.034c0,0-111.969-233.605,29.766-496.782 C109.711,954.229,238.791,780.992,375.203,760.037z"/> <path fill="#EB7B49" d="M1609.374,269.525c0,0-44.01-27.302-23.876-95.082c0,0,10.014-117.846-3.99-114.43 c0,0,7.626-18.711,13.289,5.34c0,0,13.827,52.002,0,133.386c0,0,3.52,40.021,20.871,45.363L1609.374,269.525z"/> <path fill="#F2DBA7" d="M2122.033,1042.471c0,0,119.703,33.832,203.76,117.888l17.311-30.144c0,0,46.389,20.578,43.726,40.197 c0,0-9.344,24.968-9.344,55.644l36.22-55.644c0,0,49.936,62.47,34.542,87.243c0,0,16.632,1.771,18.638-30.254l44.915,36.415 c0,0-24.648-68.418-248.426-189.005L2122.033,1042.471z"/> <path fill="#EB5D49" d="M1981.867,2115.585c-12.681,19.029-77.349-15.864-77.349-15.864c-50.45-43.535-191.46-18.42-191.46-18.42 c-129.42,5.331-50.699-140.091-50.699-140.091l158.245-15.416c-71.49,70.687-16.827,100.253-16.827,100.253 c258.839,42.141,213.476,58.099,213.476,58.099s5.46,9.521-9.343,17.164C1999.032,2105.905,1989.879,2103.561,1981.867,2115.585z"/> <path fill="#F2DBA7" d="M1986.98,2109.81c0,0,14.275,28.133,36.943,25.159c0,0,15.203-19.757-3.613-46.336 C2020.311,2088.634,2002.045,2109.81,1986.98,2109.81z"/> <path fill="#F2DBA7" d="M2707.088,1223.042c0,0,39.696-14.874,21.603-58.591c0,0,68.702,9.747,69.097,50.579 C2797.788,1215.031,2773.189,1200.698,2707.088,1223.042z"/> <path fill="#EB5D49" d="M2471.653,1213.907c72.143,71.22,94.634,161.592,94.634,161.592l0,0l26.011-8.007 c0.666-20.01-2.663-45.355-2.663-45.355c-49.363-6.032,14.683-33.361,14.683-33.361c89.476,35.137,96.032,14.013,96.032,14.013 c38.652-44.032-62.013-51.374-62.013-51.374c31.35-3.329,81.943-40.024,81.943-40.024c35.261-64.038-28.581-52.643-28.581-52.643 c-150.766,64.095-224.595,49.598-224.595,49.598L2471.653,1213.907z"/> <path fill="#F2DBA7" d="M2589.635,1322.137c0,0,52.035-2.929,37.352,16.211l-28.674,25.815 C2598.312,1364.163,2581.632,1362.831,2589.635,1322.137z"/> <path fill="#F2DBA7" d="M2677.069,1312.123c0,0,33.77,9.761,43.211,26.224c0,0,7.057-44.849-16.392-66.182l5.934,25.026 L2677.069,1312.123z"/> <path fill="#CE3736" d="M1662.048,1945.085c-36.256,113.933-9.694,122.86-9.694,122.86c-28.021-71.073,168.25-142.15,168.25-142.15 L1662.048,1945.085z"/> <path fill="#CE3736" d="M2692.125,1305.257c0,0-194.762-69.453-212.677-82.214c0,0,79.316,65.56,81.225,152.457 c0,0-0.075-58.361,12.601-58.023c0,0,0.608-21.191,33.02-26.358C2606.293,1291.119,2672.222,1312.389,2692.125,1305.257z"/> </g> <g id="LINE"> <path d="M2202.352,697.784l5.615-7.404l33.965-49.958c33.366-65.46-17.799-82.379-17.799-82.379 c-81.42-30.516-107.83-75.265-107.83-75.265c-96.289,23.547-6.462,90.783-6.462,90.783c27.467,29.846-0.115,26.648-21.705,19.584 c-22.287-7.297-52.75-41.797-52.75-41.797c-6.672-24.974-48.737-50.817-48.737-50.817 c-44.108-21.692-48.897-120.034-48.897-120.034c-30.53-69.759-153.73-70.9-153.73-70.9 c-166.439-11.86-191.771,10.795-191.771,10.795c-25.687,4.932-43.025-18.481-43.025-18.481 c-44.494-71.792-39.78-137.798-39.78-137.798l-13.068,7.796c10.129,106.656,44.56,139.551,44.56,139.551 s15.629,20.751,54.508,26.697c0,0,22.309,13.232,35.15,31.011c23.659,32.738,28.341,64.757,28.341,64.757 c9.508,53.263,8.824,0.633,8.824,0.633c-18.518-95.734-64.57-101.558-64.57-101.558c33.836-24.622,167.855-8.316,167.855-8.316 c145.972,2.799,152.883,59.894,152.883,59.894c17.537,109.392,54.712,121.328,54.712,121.328 c49.807,30.201,47.636,60.003,47.636,60.003c25.194,1.8,42.851,29.069,52.133,33.306c75.942,34.678,45-26.382,45-26.382 c-84.682-56.727-12.091-79.429-12.091-79.429c59.243,65.296,95.69,67.891,95.69,67.891 c78.894,30.967-12.375,126.443-12.375,126.443c-10.919,34.708-52.763,30.088-52.763,30.088 c-153.473-4.177-167.459-33.055-167.459-33.055c-28.79-34.986-17.431-5.526-17.431-5.526 c34.964,55.786,189.325,49.032,189.325,49.032l-6.6,43.413c-14.333,71.692-58.285,34.702-58.285,34.702 c-46.78-42.192-91.034-14.029-91.034-14.029c-47.348,45.142-193.275-39.147-193.275-39.147 c-43.398-7.646,61.818,44.299,61.818,44.299c-5.162,24.97-69.657,69.575-69.657,69.575c-20.245,13.185-49.074,0.317-49.074,0.317 c-2.872,16.697,43.663,12.404,43.663,12.404c-2.992,42.033,29.806,79.848,29.806,79.848c-10.839,21.197-50.34,54.501-50.34,54.501 c14.248,4.394,63.305-46.822,63.305-46.822c35.31,26.164,88.623,36.724,88.623,36.724c-9.548,39.247-33.139,67.988-33.139,67.988 c19.93,4.794,46.473-65.338,46.473-65.338c95.677,0.066,167.451,21.355,167.451,21.355c16.925,5.304,5.34,23.055,5.34,23.055 c-21.075,32.079-56.523,66.741-56.523,66.741c21.856,1.558,77.176-75.392,77.176-75.392 c99.441,27.36,200.914,73.443,200.914,73.443c26.069,13.684-7.626,74.45-7.626,74.45c-25.474,45.235-22.509,49.079-6.791,33.095 c5.153-5.238,15.385-26.375,15.385-26.375l23.29-65.92c24.861,6.845,58.254,36.251,58.254,36.251 c-44.068,69.95-30.742,78.494-30.742,78.494l40.094-67.69l46.718,32.069c6.245,30.854-20.898,56.167-20.898,56.167 c-17.892,13.92-4.439,14.883-4.439,14.883c32.31-2.765,37.711-54.974,37.711-54.974c102.863,95.504,79.671,195.149,79.671,195.149 c-24.768-2.024-64.508-75.796-64.508-75.796c11.141,77.682,76.137,93.289,76.137,93.289 c109.082,54.676,144.68,82.978,144.68,82.978c4.869,11.896,3.143,14.115-1.394,19.539c-32.536,38.866-111.98-11.474-111.98-11.474 c-52.444-43.104-22.655,0.83-22.655,0.83c55.253,84.194,20.533,82.352,20.533,82.352c-35.789,7.657-64.263-84.549-64.263-84.549 c-7.328-13.059-38.2-16.698-46.127-16.898c-29.864-0.826,0.648,38.071,0.648,38.071c51.844,55.227-23.641,23.201-23.641,23.201 c-71.272-18.989-59.679-87.003-59.679-87.003c-33.805,83.133,66.958,105.007,66.958,105.007 c98.224,20.511,24.893-49.088,24.893-49.088c-4.945-12.97,1.433-13.205,4.669-14.191c29.757-9.064,54.303,70.829,54.303,70.829 c24.138,46.278,58.684,15.163,58.684,15.163c16.295-15.323-15.647-65.116-15.647-65.116c86.817,41.71,111.998,8.611,111.998,8.611 c49.971-40.792-59.155-88.579-59.155-88.579c-32.651-15.846-84.5-45.004-84.5-45.004l0.12-10.12 c24.835-135.306-133.33-239.292-133.33-239.292c-24.169-27.831-59.844-44.911-90.661-62.231 c-107.182-60.278-211.731-80.993-211.731-80.993c-41.666-31.697-193.338-37.423-193.338-37.423 c-160.54-23.274-136.579-119.362-136.579-119.362c51.014-31.419,67.948-73.45,67.948-73.45 c80.461,35.674,121.728,5.724,121.728,5.724c44.338-29.462,89.085,4.723,89.085,4.723c85.405,60.087,81.788-84.076,81.788-84.076 S2191.099,713.51,2202.352,697.784z"/> <path d="M2435.074,1391.736c0,0-120.197-91.362-136.06-35.039c0,0-7.515,35.013,16.339,55.231c0,0,1.962,15.868-57.344,30.623 c0,0-29.052,20.742,32.274,60.531c0,0,55.355,29.282,85.241-34.489c0,0,26.783-43.703,56.198-29.779l0.489-6.893 c0,0-32.319-20.729-71.947,37.276c0,0-34.089,64.388-89.591,1.283c0,0-23.587-24.48,57.468-36.819c0,0,20.462-1.558-5.211-33.024 c0,0-34.08-54.739,8.642-50.078c0,0,71.721,13.631,102.184,59.665L2435.074,1391.736z"/> <path d="M1941.221,497.36c0,0-113.054-119.557-197.932,4.49c0,0-9.064,8.646,55.902,21.725c0,0,30.902,11.075-32.332,15.181 c0,0-30.255-2.159-38.985,13.529c-6.414,11.516,3.622,25.601,55.959,43.684c0,0-25.27,35.39,10.431,42.987 c0,0,85.641,7.79,118.407-49.01c0,0,16.441-17.416-11.892,0.843c0,0-24.972,42.144-105.553,34.718c0,0-28.798-9.645,7.568-34.944 c0,0,38.79-10.753,40.166-36.005c0,0-40.556,38.246-78.862,22.929c-8.833-3.529-18.865-7.912-20.547-19.857 c0,0-1.811-10.269,23.423-8.025c15.025,1.338,48.955-11.181,71.947-14.324c0,0,23.521,1.671-51.378-26.057l-28.12-9.53 C1759.425,499.692,1807.47,410.77,1941.221,497.36z"/> <path d="M1496.377,171.911c0,0,6.13-76.845-24.719-44.07c0,0-20.64,16.923-10.422,110.584c0,0-14.159,32.791-42.63-41.897 c0,0-7.097-42.745,4.678-65.567c0,0,11.794-25.942-8.593-30.625c-8.283-1.904-21.479-0.899-32.483,14.178 c0,0-58.911,68.012,74.229,167.499c0,0,46.66,42.128,35.226,93.642c-0.484,2.233-1.096,4.477-1.833,6.736 c-17.391,54.525,73.052,160.666,142.43,87.885c0,0,21.017-10.338,7.812,9c0,0-45.022,62.686-123.321-0.346 c0,0-97.133,82.642-100.812,371.31c0,0-12.583,152.852,239.877,309.405c0,0,180.461,108.314,182.622,196.325 c0,0,25.496,202.286-359.026,236.73c0,0-336.24,41.311-738.599-83.044c0,0-338.17-103.316-390.354-266.075 c0,0-64.284-173.754,44.077-271.849c0,0,114.168-96.405,294.536-43.005l175.543,61.936c0,0,60.606,24.604,2.084-44.889l8.531-7.686 c0,0,92.687,111.871-23.818,59.876L687.506,941.92c0,0-174.455-50.453-284.083,38.683c0,0-98.843,70.896-39.196,259.337 c0,0,22.904,129.176,378.885,255.106c0,0,338.275,113.663,727.094,87.305c0,0,343.908-12.69,355.759-226.432 c0,0-3.236-81.912-177.731-184.993c0,0-239.1-126.255-248.204-331.564c0,0,11.181-278.408,108.793-367.757 c0,0-41.294-36.737-26.424-103.262c0,0,6.956-50.193-33.295-78.41c0,0-135.321-98.577-78.907-187.698 c0,0,19.322-22.065,45.306-13.247c17.009,5.777,23.09,13.687,20.139,34.402c0,0-28.088,85.856,15.859,109.262 c0,0-10.64-117.85,29.287-126.339c11.589-2.464,18.993,2.839,23.357,13.722c0,0,8.229,10.216,5.3,44.079 c-2.748,31.739-0.825,7.806-0.825,7.806L1496.377,171.911z"/> <path d="M2453.583,1583.151c0,0-48.342,108.176-98.819,138.994c-1.398,0.844-2.801,1.625-4.221,2.344 c0,0-47.65,99.681-136.757,116.983c0,0-160.282,67.997-263.434,69.093c0,0-250.961,36.189-285.059,40.508 c0,0-4.963,28.448-17.871,61.245c0,0-18.758,73.918,64.845,62.071c0,0,140.215-22.891,208.567,22.531 c0,0,54.099,38.493,0.391,56.567c0,0-32.571,7.075-49.385,5.877c0,0,33.419,18.221,38.244,44.125c0,0,16.082,34.928-78.437,21.341 c0,0-110.187-30.636-200.022-2.423c0,0-89.68,25.78-85.459-10.342c0,0-183.124,31.719-143.522-73.603 c0,0,15.34-59.79-6.951-126.442c0,0-16.601-47.889-64.459-44.374l-9.543-5.921c0,0,30.046-31.68,73.829,17.923 c0,0,47.987,48.542,18.785,174.029c0,0-22.456,65.986,140.747,40.437c0,0,10.338,32.918,119.801,2.26 c0,0,48.462-16.104,172.214,16.872c0,0,86.795,12.211,44.88-27.96l-40.219-24.937c0,0-21.413-11.647,41.373-15.615 c0,0,80.186-9.76,11.416-45.013c0,0-73.856-26.947-203.289-12.508c0,0-94.824,15.18-60.322-102.397 c0,0,33.921-60.149-49.336-107.63c0,0-56.683-40.126-172.582-2.801c0,0-29.899-7.208,15.123-22.584 c0,0,192.223-52.967,230.445,85.703c0,0,115.433-9.739,271.481-39.496c0,0-64.792-50.459-40.876-53.833 c0,0,9.01,2.863,67.762,55.755c0,0,162.36-25.896,230.938-63.256c0,0-47.996-25.332-28.963-55.24c0,0,8.411,47.911,51.645,45.031 c0,0,54.733,3.125,124.257-100.976c0,0-45.377-10.005-34.08-26.082c0,0-1.203-6.84,37.827,14.514c0,0,66.536-44.276,98.109-131.568 L2453.583,1583.151z"/> <path d="M733.751,810.767c-196.127-110.373-402.215-28.765-402.215-28.765c-210.176,75.161-266.217,319.153-266.217,319.153 s-39.347,126.912,8.685,301.025c0,0,44.056,145.825,162.777,258.174c0,0,154.729,156.82,539.065,299.96 c0,0,203.657,82.969,408.311,61.272c0,0-11.803-32.15,15.992-42.847c0,0,31.961-12.659,58.986-5.149c0,0,20.17,1.243-32.25-11.532 c0,0-45.402-15.065-72.436-27.129c0,0-59.969-23.708,4.809-67.251c0,0,65.01-35.066,112.335,12.242c0,0,29.062,30.8,9.073,38.666 c0,0-3.496,1.433-6.206-8.048c0,0-21.658-40.312-71.667-37.218c0,0-18.021-1.048-37.893,10.094c0,0-39.865,25.758,6.496,39.203 c0,0,42.745,16.561,98.415,41.657c0,0,42.96,24.178-10.631,18.665c0,0-63.704-1.984-57.686,27.151c0,0-2.847,37.845,54.883,24.187 c0,0,92.323-27.201,78.086-64.548c0,0,44.205,31.861-41.879,66.292c0,0-72.17,28.639-102.3,1.14c0,0-132.851,38.697-421.164-65.143 c0,0-308.412-94.212-537.172-298.89c0,0-262.693-231.59-181.309-571.974c0,0,37.358-227.112,261.507-323.377 c0,0,261.496-97.41,445.346,37.962c0,0,68.991,44.763,120.169,126.078l-10.968,3.955 C866.697,945.773,820.486,876.512,733.751,810.767L733.751,810.767z"/> <path d="M348.168,1168.925c0,0,64.925,148.112,249.192,139.78c0,0,119.157-9.241,144.503-0.466c0,0,73.401,28.026,29.74,71.814 c0,0-30.507,40.703-7.444,68.303c0,0,17.364,32.514,45.388,17.355c0,0,71.146-59.661,143.109-30.37 c0,0,24.582,10.435,37.501,54.445c0,0-0.149,15.687,41.728,25.39c0,0,28.606,7.741,42.705-3.285c0,0,28.352-51.196,93.569-33.903 c0,0,19.792,7.936,32.274,37.179c0,0,3.347,20.36,14.552,27.01c17.031,10.08,35.974,1.931,46.349-26.872 c0,0,6.161-30.534,23.268-42.931c12.28-8.922,31.433-6.427,52.226,13.849c0,0,24.95,17.493,31.515,23.157 c0,0,46.492,38.164,58.738,8.624c1.398-3.387,3.387-47.361,5.579-51.556c0,0,5.748-27.471,36.686-43.646 c0,0,65.187-34.64,89.738-14.51c0,0,73.23,66.048,94.971,36.548c0,0,30.876-47.822,95.37-31.217c0,0,77.904,18.212,76.542-57.703 c0,0,18.691,81.592-74.469,73.044c0,0-58.933-9.761-85.463,25.345c0,0-29.576,41.871-111.581-34.307 c0,0-18.026-13.951-78.401,15.313c0,0-36.397,14.941-34.529,84.354c0,0-2.352,64.486-80.576,1.9c0,0-48.606-47.943-71.08-28.377 c0,0-7.63,3.307-18.645,33.339c0,0-14.439,42.7-54.423,34.773c-8.525-1.674-20.538-14.133-26.859-29.406 c0,0-9.039-27.005-28.721-35.834c0,0-58.66-19.486-79.293,28.39c0,0-9.062,20.271-79.975-6.965c0,0-24.189-7.43-31.804-33.952 c0,0-8.431-40.668-59.856-40.379c0,0-38.173,2.353-86.806,35.638c0,0-57.857,47.188-88.089-35.425c0,0-10.72-32.447,15.589-67.327 c0,0,30.33-32.523-14.433-46.642c0,0-19.441-4.736-137.722-2.672C598.832,1326.731,379.861,1329.186,348.168,1168.925z"/> <path d="M923.52,1049.848c0,0-60.273-43.038-120.172-20.267c0,0-55.457,4.918-44.396,63.159c0,0-10.094,84.584,143.375,88.761 c0,0,97.117,0.471,89.425-22.043c0,0,8.891-14.066,51.993,17.236c0,0,47.854,28.332,40.159-29.668c0,0,6.503-14.626-10.948-36.717 c0,0,54.414,19.117,18.456-56.945c0,0-26.603-36.446-11.541-58.178c0,0,14.377-17.995-15.242-87.682 c0,0-31.744-76.202-74.022-87.74c0,0-58.809-27.973-77.038,14.652c0,0-20.64,28.304,6.645,72.42l19.888,34.875 c0,0-20.445-3.567,4.17,42.121c0,0,31.801,52.017,10.114,47.942c0,0-19.685-8.158-21.368,15.376c0,0,4.661-7.195,26.652-6.556 c0,0,33.648-3.849-2.597-58.48c0,0-16.909-29.425-8.677-32.23l7.836-4.183c0,0-53.897-85.017-24.542-93.91 c0,0-0.839-36.812,51.165-19.584c0,0,37.98,6.947,71.304,79.611c0,0,22.964,51.494,14.306,84.159c0,0-11.499,24.613,8.582,51.498 c0,0,44.853,63.487-18.527,53.416l-37.829-15.274c0,0,55.054,33.845,47.142,73.825c0,0-0.724,21.559-23.512,3.453 c0,0-45.939-42.665-57.91-22.819c0,0,11.721,25.025-86.038,21.457c0,0-141.209-10.063-122.924-67.855 c0,0-7.481-49.155,40.839-48.671C818.287,1045.005,850.574,1030.282,923.52,1049.848z"/> <path d="M1958.786,400.35c12.433,5.684,18.531-7.255,18.531-7.255c15.687,6.434,41.05-3.648,41.05-3.648 c33.903-11.035,19.135-42.266,19.135-42.266c-12.171-23.773-63.176-13.087-63.176-13.087c-54.046,14.011-32.86,34.309-32.86,34.309 C1960.232,381.492,1958.786,400.35,1958.786,400.35l5.038-4.563c1.323-21.297-8.389-25.929-8.389-25.929 c-15.198-8.598-8.03-14.976-8.03-14.976c31.701-23.672,68.698-12.968,68.698-12.968c20.272,4.578,16.379,23.638,16.379,23.638 c-3.742,27.667-60.375,18.958-60.375,18.958s-3.133,18.585-10.941,7.488L1958.786,400.35z"/> <path d="M1816.24,280.34c0,0-51.68,11.516-50.056-65.593c0,0-1.589-44.114,42.07-49.187c0,0,36.012-61.448,71.144-25.627 c0,0,43.797,45.654-37.796,86.324C1841.603,226.256,1865.466,273.431,1816.24,280.34l-3.271-9.546c0,0,40.508-5.227,15.473-48.781 c0,0,82.179-34.979,43.748-76.457c0,0-20.245-26.08-58.041,30.565c0,0-30.117-3.105-33.996,36.988c0,0-8.886,56.101,32.815,57.686 l4.062-1.105L1816.24,280.34L1816.24,280.34z"/> <path d="M2153.867,631.454c0,0-32.948-12.319-6.063-34.052c0,0-12.531,34.431,17.608,24.803c0,0,15.3-0.242,5.997,11.769 C2171.409,633.975,2164.826,639.164,2153.867,631.454z"/> <path d="M1783.15,1257.012c-6.126,1.704-85.392,53.584-110.911-43.992c0,0-3.245-24.741-61.73-19.668 c0,0-64.024,6.876-58.675-92.215l6.685,0.479c0,0,4.891,73.909,56.247,76.377c0,0,72.085,1.145,77.26,45.253 C1692.027,1223.247,1698.064,1280.697,1783.15,1257.012z"/> <path d="M1520.555,1065.339c0,0-82.977,38.391-98.406-17.99c0,0-10.546-37.347,5.677-89.121c0.28-0.861,0.559-1.7,0.852-2.508 c10.502-28.816-6.246-19.031-6.246-19.031s-65.487,29.968-68.696-31.932c0,0-0.304-43.113,54.749-92.408 c0,0-65.46-18.167-62.753-79.659c0,0-0.488-75.911,85.066-94.07l8.757-20.902c0,0-127.003-41.63-67.979-99.094 c0,0,51.36-45.943,137.281-41.535l3.733-7.79l0,0c0,0-117.555-20.605-159.392,51.86c0,0-38.506,57.411,33.652,85.366l42.332,19.486 c0,0-93.879,18.911-94.272,99.986c0,0-3.831,58.039,50.635,88.104c0,0-58.711,65.101-44.041,108.378 c0,0,17.589,46.017,74.154,30.634c0,0,9.477-10.311-1.385,19.333c0,0-33.268,98.318,33.797,117.457 c0,0,33.637,16.969,80.358-16.388L1520.555,1065.339z"/> <path d="M1592.249,320.393c0,0,22.735-55.582,35.785-130.838c0,0,6.756-73.285,63.691-72.61c0,0,44.751-6.374,40.432,196.362 l-9.108-0.648l-3.693-19.692c0,0-110.906,0.546-113.849-8.114l3.302-10.751c0,0,73.061,9.89,109.619,3.593 c0,0,0.693-59.785-2.73-68.986c0,0-85.863,2.133-80.35-29.042l3.329-10.746c0,0,9.987,29.24,74.438,24.271 c0,0-3.227-64.577-27.729-66.024c0,0-39.7-6.749-54.259,69.095c0,0-9.464,97.033-32.864,125.512L1592.249,320.393z"/> <path d="M1476.629,341.188c0,0-60.78-16.75-73.665,18.292c0,0-12.375,32.358,18.159,37.45c0,0,35.842,2.69,57.619-18.831 l5.025-10.178c0,0-89.511,36.231-74.509-6.565c0,0,22.522-31.741,76.923-5.842l-1.314-8.837L1476.629,341.188z"/> <path d="M1644.617,462.654c0,0,9.823-12.788-32.993,1.059c0,0-13.667-22.123,5.26-26.688c0,0,31.865-20.083-13.907-18.276 c0,0-30.654-1.782-32.15,31.055c0,0-19.619-39.425,16.219-56.305c0,0-12.61-26.957-62.781-20.227c0,0,10.515-17.289,1.864-26.351 c0,0,0.2,21.129-16.685,32.598c0,0,64.73,4.618,58.187,13.443c0,0-32.376,36.553,5.975,80.678c0,0,2.619-46.427,31.302-45.888 c0,0,29.722-2.11-1.416,7.923c0,0-14.382,12.069,7.515,36.231C1611.007,471.906,1633.019,459.291,1644.617,462.654z"/> <path d="M1937.138,552.831c-0.914,12.763-12.34,22.353-25.523,21.41c-13.187-0.936-23.152-12.049-22.238-24.815 c0.905-12.759,12.344-22.351,25.54-21.408C1928.092,528.955,1938.043,540.067,1937.138,552.831z"/> <path d="M1671.409,560.896c0,0-72.591-60.085-148.289,6.334c0,0-89.241,100.056,4.323,69.579c0,0,59.146-23.663,81.246-1.809 c0,0,44.396,28.951,69.612-40.441c0,0-31.733,54.274-66.443,31.444c0,0-16.13-31.233-79.178-0.24c0,0-85.694,28.96-6.929-48.211 C1525.753,577.552,1594.735,522.488,1671.409,560.896z"/> <path d="M1571.565,765.834c0,0-39.554-73.781,69.324-108.27c0,0-100.177,65.509-58.254,105.675c0,0,25.518,21.08,52.444-24.136 c0,0,40.077-76.559,88.992-63.776c0,0-43.322,3.658-75.88,68.927C1648.19,744.255,1616.32,812.108,1571.565,765.834z"/> <path d="M1757.001,758.77c0,0-71.907-34.447-112.144,68.041c0,0-16.992,36.815,37.773,50.85c0,0,49.097,10.633,70.07-58.598 c0,0,17.262-40.794,34.201-41.262c0,0-12.375-20.895-42.324,36.686c0,0-26.854,56.651-59.98,47.399c0,0-30.849-5.715-26.534-30.754 C1658.062,831.132,1675.222,768.153,1757.001,758.77z"/> <path d="M2110.097,563.193c0,0,40.481,0.726,53.358-22.502l8.065,4.621c0,0-5.726,25.472-48.112,27.522L2110.097,563.193z"/> <path d="M2465.812,1574.962c0,0,7.257-20.427,23.263-20.259l-4.43-4.847c0,0-19.557-5.837-30.419,24.284L2465.812,1574.962z"/> <path d="M2570.224,1619.749c0,0,2.282,13.227-32.474,14.981c0,0,82.147,44.724,73.834-28.523l3.316-11.581 c0,0,28.088,56.905-22.775,66.355c0,0-70.167,5.575-67.411-33.082c0,0,33.06-1.878,36.842-15.407L2570.224,1619.749z"/> <path d="M2654.693,1568.513c0,0,65.089,25.137,65.396,56.416c0.306,31.266,20.946,2.339,23.108-4.261 c0,0,11.891-41.466-24.249-94.704l-3.662,12.198c0,0,37.942,60.402,15.251,82.436c0,0-13.942-36.256-57.867-50.903 L2654.693,1568.513z"/> <path d="M2544.932,1202.718c-28.683,10.675-82.889-2.623-82.889-2.623c38.116,36.047,107.893,6.804,107.893,6.804 c102.57-38.452,142.936-44.618,142.936-44.618c10.808,4.057,11.208,6.547,12.024,12.855c5.73,45.137-75.902,66.727-75.902,66.727 c-60.398,8.207-13.29,15.416-13.29,15.416c89.156,15.012,66.763,36.744,66.763,36.744c-16.801,28.239-94.9-9.29-94.9-9.29 c-13.072-3.139-34.311,14.967-39.274,20.058c-18.78,19.158,25.469,22.815,25.469,22.815c67.997-0.435,0.834,29.721,0.834,29.721 c-13.169,8.31-25.336,11.949-36.233,12.65c-4.364,0.284-3.085,12.011,1.429,11.994c27.138-0.115,51.094-18.452,51.107-18.452 c73.452-52.155-17.138-46.344-17.138-46.344c-11.554-4.67-7.816-9.002-6.485-11.736c12.18-25.127,79.781,7.471,79.781,7.471 c45.204,12.353,45.794-29.385,45.794-29.385c-0.138-20.076-52.426-29.442-52.426-29.442c80.461-31.697,74.038-68.485,74.038-68.485 c3.64-57.801-94.429-15.118-94.429-15.118c-30.365,11.829-81.207,28.168-81.207,28.168l0,0L2544.932,1202.718z"/> <path d="M2709.822,1227.02c0,0,56.279-27.516,77.056-8.625c20.774,18.887,14.328-12.366,11.297-17.826 c0,0-20.041-33.126-77.158-41.822l5.797,9.849c0,0,62.932,11.891,63.594,40.277c0,0-32.38-12.943-68.827,7.031L2709.822,1227.02z"/> <path d="M1906.475,2194.643c0,0,21.474,18.43,18.905,42.745c0,0,0.644,25.474-76.164-10.462l-13.392-1.54 c0,0,84.988,52.683,103.147,22.913c0,0,13.498-38.861-44.059-71.108L1906.475,2194.643z"/> <path d="M1935.522,2118.985c0,0,48.764,11.079,37.645,52.524c0,0-18.451,9.938-56.421-17.107l-12.193,2.179 c0,0,61.006,47.064,74.087,21.705c0.364-0.701,0.684-1.469,0.977-2.282c10.609-30.303-15.997-71.912-84.154-91.859 L1935.522,2118.985z"/> <path d="M1546.166,2212.065c0,0-13.769,51.383,28.688,60.327c0,0-3.746-49.812,28.075-50.366c0,0-24.617,37.108-12.047,62.502 c0,0-61.68,21.927-59.257-70.487C1531.625,2214.041,1544.573,2202.708,1546.166,2212.065z"/> <path d="M1410.727,2121.298c0,0-42.731-16.57-59.607,6.733c0,0,20.258,41.658,46.18,42.408l6.845-15.82 c0,0-28.714-0.342-37.947-24.661c0,0,38.679-9.09,43.406,7.302L1410.727,2121.298z"/> <path d="M1621.78,236.749c0,0-13.587,1.567-20.116-48.357c0,0,20.587-187.614-31.169-137.197c0,0-17.005,54.39-0.169,114.725 c0,0-47.459-70.575-22.558-122.345c0,0-12.264-29.664-41.826-5.577c0,0-22.62,12.102-9.312,74.271l10.759,23.465 c0,0-22.935-89.986,16.743-92.219l9.162,1.504c0,0-22.069,96.564,46.207,134.378c0,0-12.238-148.702,10.888-117.236 c0,0,12.135,6.969,3.671,125.687c-2.002,28.135,4.603,66.266,26.375,67.817L1621.78,236.749z"/> <path d="M1592.249,320.393c0,0-43.025-18.481-40.033-96.618c0,0-50.304-41.123-49.767-96.603l-1.069-7.137 c0,0,27.644,80.024,57.956,93.218c0,0,6.707,80.11,43.37,102.04L1592.249,320.393z"/> <path d="M1740.196,867.407c0,0,83.203-42.088,46.717-112.555l17.586,13.365c0,0,16.104,53.591-50.171,103.453 C1743.898,879.51,1740.196,873.662,1740.196,867.407z"/> <path d="M1820.604,1929.199c0,0-68.121,85.388,6.893,98.731c0,0,176.412,8.362,199.099,56.217c0,0-1.531,32.456-44.729,31.439 c0,0,10.888,17.923-23.392,5.73l-13.573-11.505c0,0,29.66,15.172,26.987,0c0,0,74.597-11.944,24.018-39.189 c0,0-71.313-29.331-168.41-28.679c0,0-111.776-11.345-19.712-115.416L1820.604,1929.199z"/> <path d="M2023.258,2084.146c0,0,19.349,35.834,3.338,56.522c0,0-24.75-0.129-44.729-25.083l13.374-3.178 c0,0,5.451,18.918,25.07,19.584c0,0,13.729-15.34,0-43.357L2023.258,2084.146z"/> <path d="M2707.088,1280.764c0,0,31.768,21.355,13.192,62.715c0,0-9.472-19.375-48.045-29.367c0,0,19.006-12.664,43.246,15.354 C2715.481,1329.466,2728.487,1313.455,2707.088,1280.764z"/> <path d="M2587.464,1321.822c0,0-24.408,25.66,4.892,42.341h5.957c0,0-15.353-31.364-5.348-41.369L2587.464,1321.822z"/> </g> </svg>