<?xml version="1.0" encoding="UTF-8"?>
<svg viewBox="0 0 302.5 118.75" xmlns="http://www.w3.org/2000/svg">
 <g transform="matrix(1.25,0,0,-1.25,0,118.75)">
  <g transform="scale(.24)">
   <path d="m294.965,90.6094 .246-7.0664-.359-6.8477-.629-6.5703v-6.4648l.382-3.9688 .743-3.9726 1.121-4.1055 1.097-4.1094 1.122-4.082 1.011-4.1055 .606-4.3555 .136-4.3281 .11-2.7383 .383-2.1054 .875-1.5078 .988-.9844 1.23-.6328 1.508-.3555 1.613-.3828 1.481-.1094 1.504-.2461 1.617-.1367 1.48-.2461 1.477-.1367 1.508-.1094 1.476-.1367 1.508-.1094h2.985l1.48.1094 1.613.1367 1.618.2461 1.476.3828 1.754.3555 1.727.6289 1.613.7422-.492,6.707-.629,6.3281-.739,5.7227-.988,5.6953-1.367,5.3672-1.617,5.3398-2.11,5.586-2.492,5.6992-1.722,1.2578-1.618,1.3711-1.863,1.2305-1.75,1.3711-1.726,1.2304-1.754,1.3711-1.723,1.2305-1.863,1.3711-1.754,1.3672-1.723,1.2343-1.754,1.3672-1.726,1.125-1.75,1.3672-1.727,1.3711-1.754,1.2305-1.859,1.3711" fill="#3f5d64"/>
   <path d="m294.965,90.6094 .246-7.0664-.359-6.8477-.629-6.5703v-6.4648l.382-3.9688 .743-3.9726 1.121-4.1055 1.097-4.1094 1.122-4.082 1.011-4.1055 .606-4.3555 .136-4.3281 .11-2.7383 .383-2.1054 .875-1.5078 .988-.9844 1.23-.6328 1.508-.3555 1.613-.3828 1.481-.1094 1.504-.2461 1.617-.1367 1.48-.2461 1.477-.1367 1.508-.1094 1.476-.1367 1.508-.1094h2.985l1.48.1094 1.613.1367 1.618.2461 1.476.3828 1.754.3555 1.727.6289 1.613.7422-.492,6.707-.629,6.3281-.739,5.7227-.988,5.6953-1.367,5.3672-1.617,5.3398-2.11,5.586-2.492,5.6992-1.722,1.2578-1.618,1.3711-1.863,1.2305-1.75,1.3711-1.726,1.2304-1.754,1.3711-1.723,1.2305-1.863,1.3711-1.754,1.3672-1.723,1.2343-1.754,1.3672-1.726,1.125-1.75,1.3672-1.727,1.3711-1.754,1.2305-1.859,1.3711z" fill="none" stroke="#363639" stroke-width=".37917"/>
   <path d="m508.102,56.707-.383-2.3554v-6.3282l.273-3.4765 .11-3.6133-.11-3.2344-.519-2.8476-.989-2.2461-.984-1.6133-.383-1.4805v-1.1211l.629-.7422 .875-.7382 1.371-.7657 1.586-.3554 2-.4961 1.481-.2461 1.504-.1367 1.617-.1368 1.726-.2461h4.848l1.613.1368 1.508.2461 1.477.1367 1.48.2461 1.367.3593 1.371.2461 1.258.4922 1.098.5196 1.012.4921-1.122,2.4649-1.234,2.6289-1.258,2.7109-1.234,2.9844-1.367,2.7422-1.235,2.8477-1.121,2.6289-1.125,2.4648-1.121.3828-1.121.6289-.988.4922-1.121.3555-.989.4922-1.121.6328-1.121.3828-.988.4922-1.121.4922-.988.6289-1.122.3593-1.125.4922-1.121.5196-.984.4922-1.125.4921-.984.4961" fill="#3f5d64"/>
   <path d="m508.102,56.707-.383-2.3554v-6.3282l.273-3.4765 .11-3.6133-.11-3.2344-.519-2.8476-.989-2.2461-.984-1.6133-.383-1.4805v-1.1211l.629-.7422 .875-.7382 1.371-.7657 1.586-.3554 2-.4961 1.481-.2461 1.504-.1367 1.617-.1368 1.726-.2461h4.848l1.613.1368 1.508.2461 1.477.1367 1.48.2461 1.367.3593 1.371.2461 1.258.4922 1.098.5196 1.012.4921-1.122,2.4649-1.234,2.6289-1.258,2.7109-1.234,2.9844-1.367,2.7422-1.235,2.8477-1.121,2.6289-1.125,2.4648-1.121.3828-1.121.6289-.988.4922-1.121.3555-.989.4922-1.121.6328-1.121.3828-.988.4922-1.121.4922-.988.6289-1.122.3593-1.125.4922-1.121.5196-.984.4922-1.125.4921-.984.4961z" fill="none" stroke="#363639" stroke-width=".37917"/>
   <path d="m294.359,169.723-1.011.492-1.235.769-1.367.848-1.234.875-1.367.988-1.372.766-1.23.602-1.016.382-1.722.387-1.754.246-1.723.356-1.863.136-1.617.11-1.864.136-1.75.11-1.617.246h-1.863l-1.613.383-1.727.246-1.617.383-1.613.496-1.618.492-1.613.738-1.48.875-4,2.606-3.969,2.601-3.832,2.625-3.727,2.465-3.613,2.492-3.48,2.492-3.477,2.493-3.34,2.464-3.48,2.493-3.367,2.492-3.34,2.465-3.371,2.629-3.34,2.464-3.367,2.739-3.34,2.601-3.481,2.739-5.23,4.109-4.957,4.219-4.848,4.105-4.707,4.219-4.602,4.105-4.355,4.082-4.215,4.219-4.219,4.106-3.863,4.109-3.969,4.215-3.726,4.219-3.586,4.109-3.75,4.352-3.481,4.218-3.476,4.215-3.34,4.356-3.234,4.328-3.231,4.492-3.23,4.324-3.231,4.492-3.234,4.602-3.231,4.574-3.093,4.734-3.094,4.711-3.234,4.848-3.231,4.848-3.2304,4.847-3.2305,5.094-3.3438,5.094-3.3671,5.094-3.4766,5.203-3.4805,5.34-1.1211,1.476-.9843,1.371-1.125,1.258-1.1211,1.371-1.2344,1.231-1.2305,1.125-1.125.984-1.3672.988-1.3711,1.012-1.3671.848-1.4805.879-1.5039.875-1.4805.738-1.6172.738-1.6133.633-1.4804.629-1.3672.492-1.5078.492-1.4766.387-1.6172.355-1.6172.383-1.8593.246-1.7539.246-1.7266.11h-3.3672l-1.7266-.11-1.6132-.246-1.4805-.383-1.3672-.492-1.2617-.633-1.1211-.847-.9883-.766-.7383-.742-.9843-.984-.879-.875-.9843-.879-1.0157-.985-1.0937-.984-1.1211-.988-1.2617-1.012-1.3399-.848-1.5078-.879-1.4804-.984-1.6133-.769-1.8633-.848-2-.766-1.9688-.738-1.2617-.496-.875-.985-.7383-1.257-.496-1.371-.3829-1.59 .1368-1.504 .3828-1.371 .7422-1.231 .875-.988 .9843-.875 1.125-.738 1.3672-.52 1.3438-.496 1.3672-.355 1.5078-.246 1.4804-.247 1.5039-.136 1.6172-.246 1.4766-.137 1.4805-.246 1.5039-.11 1.4804-.382 1.3711-.36 1.3672-.383 .9844-.382 1.125-.356 1.1211-.246 1.125-.246 1.2305-.246 1.3711-.137 1.2304-.109 1.5078-.137h1.3672l1.6172.137 1.4805.109 1.75.246 1.8633.246 1.9726.383 1.9961.356 2.2188.629 1.6171-.247 1.8633-.875 2.2461-1.617 2.4922-2.219 2.8477-2.875 2.9843-3.476 3.2305-4.082 3.3399-4.488 3.6171-4.821 3.7227-5.34 3.9727-5.722 3.9687-5.836 4.2188-6.352 4.2462-6.437 4.324-6.598 4.356-6.82 4.464-6.848 4.352-6.953 4.465-6.957 4.492-6.816 4.215-6.711 4.355-6.711 4.328-6.461 4.106-6.328 3.973-5.969 3.968-5.695 3.727-5.34 3.613-4.985 3.34-4.601 3.125-3.969 2.957-3.48 2.738-2.985 3.367-3.34 3.231-3.48 3.234-3.477 3.203-3.476 3.231-3.481 3.121-3.476 3.344-3.477 3.23-3.48 3.231-3.367 3.476-3.477 3.481-3.344 3.613-3.476 3.727-3.231 3.722-3.34 4.082-3.234 4.106-3.23 1.617-1.258 1.613-1.235 1.727-1.121 1.617-1.125 1.754-1.23 1.613-1.125 1.727-1.121 1.75-1.094 1.48-1.125 1.754-1.121 1.613-1.235 1.618-1.121 1.617-1.371 1.613-1.23 1.617-1.371 1.477-1.367 1.617-1.618 1.48-1.754 1.614-1.859 1.617-1.863 1.504-1.864 1.48-1.859 1.508-1.973 1.477-2 1.48-1.972 1.504-2 1.617-1.8596 1.617-1.8633 1.614-1.8633 1.617-1.75 1.613-1.8632 1.727-1.6172 1.754-1.4766 1.968-1.6172 2-1.4765 1.973-1.6172 2.246-1.5078 2.246-1.4766 2.356-1.5078 2.218-1.4766 2.379-1.5078 2.356-1.3437 2.355-1.3672 2.356-1.3711 2.246-1.2578 2.355-1.3438 2.246-1.2578 2.11-1.2344 1.367-1.5039 1.098-2.2187 .765-3.1211 .492-3.3438 .356-3.4765 .383-3.3399 .386-2.9843 .493-2.2461 1.367-3.4766 1.234-3.0977 1.367-2.6289 1.235-2.4648 1.121-2.7383 .988-2.8476 .875-3.4766 .738-4.1094 .246-2 .247-1.6133 .523-.9882 .602-.875 .738-.4922 1.012-.3555 1.125-.3828 1.476-.3867 1.617-.4922 1.727-.3555 1.613-.2461 1.617-.1367 1.754-.2461 1.723-.1367h3.234l1.75.1367 1.481.1367 1.754.1094 1.613.3828 1.727.1094 1.613.3828 1.617.3555 1.754.3867 1.34.4922 1.125.6289 .875.7383 .629.8789 .355.9843 .246,1.125-.109,1.3672-.383,1.3711-1.613,5.0938-1.371,4.707-.985,4.4648-.492,4.1094-.137,3.8594 .274,3.5898 .601,3.4766 1.121,3.3672 1.754-1.3672 1.864-1.3711 1.968-1.1211 2.246-.9883 2.219-.875 2.492-.9843 2.602-.7696 2.629-.7383 2.601-.6289 2.739-.6015 2.711-.4961 2.738-.3828 2.738-.3828 2.602-.3555 2.601-.2461 2.493-.1367 3.371-.2461 3.476-.1094h6.821l3.367.2461 3.449.1094 3.371.3828 3.34.2461 3.367.3828 3.34.3555 3.371.3828 3.477.3594 3.339.3828 3.481.4922 3.476.246 3.477.3829 2.492.2461 2.356.3554 2.355.3867 2.492.3829 2.356.3554 2.492.3828 2.492.3555 2.465.5195 2.355.3555 2.493.3867 2.355.3555 2.492.2734 2.492.3555 2.465.1367 2.493.1094 2.355.1367h1.367l1.262-.1367 1.23-.1094 1.371-.1367 1.231-.1094 1.371-.2461 1.23-.1367 1.368-.2461 1.261-.3828 1.231-.3594 1.234-.4922 1.258-.5195 1.125-.4922 1.231-.4922 1.125-.6328 .984-.7383 1.726-1.6171 1.618-2.1055 1.504-2.6016 1.371-2.8476 1.367-2.9883 1.234-3.1211 .985-2.6016 1.011-2.3554 .606-1.2305 .629-1.2617 .738-.8477 .875-.875 .988-.6328 1.121-.6289 1.235-.6016 1.367-.3828 1.617-.3554 1.863-.2735 1.86-.25 1.863-.2461 2.109-.1094 2.137-.246h4.324l2.246.1093 2.247.1367 2.218.1094 2.11.2461 2.109.25 1.996.3828 1.863.3828 1.727.4922 .875.3555 .738.3828 .387.6328 .492.6016 .246.7656 .383.7383 .109.8789 .247.8477 .273.7656 .109.9883-.246,1.2304-.383,2.1094-.847,2.875-1.371,4.082-2.11,5.3399-2.629,6.8437 2.493-1.2578 2.847-1.2344 3.125-.9843 3.34-1.1211 3.477-.8789 3.726-.875 3.723-.7383 4-.7422 3.969-.6289 4.082-.6016 3.968-.6289 4.246-.6328 3.969-.3555 3.973-.3828 3.863-.3828 3.723-.3555 2.847-.3828 2.848-.1093 2.738-.2461 2.848-.25 2.738-.1368 2.989-.246 2.738-.1368 2.848-.1093 2.847-.2461h2.739l2.984-.2461 2.738-.1367h2.848l2.847-.1094 2.875-.1367h2.711l2.989-.1094h8.461l2.847-.1367h5.723l2.848-.1094h29.55l6.954-.1367h13.804l6.817-.2461 6.711-.1367 6.847-.1094 6.817-.25 6.847-.1367 6.68-.2461 6.711-.2461 6.711-.2461 6.844-.3828 6.711-.2461 6.707-.2461 6.683-.2461 6.848-.3594 6.57-.3828 6.711-.3828 6.844-.3555 6.711-.3828 6.707-.3555 6.82-.3828 6.711-.3828 6.707-.3594 6.82-.4921 6.711-.3829 6.844-.3828 6.82-.4922 6.821-.3554 6.843-.4961 6.957-.3828 2.11-.1368 2.355-.246 2.242-.1094 2.11-.3828 2.355-.2461 2.246-.3828 2.219-.3594 2.246-.3828 2.356-.3555 2.246-.3828 2.351-.4922 2.246-.3828 2.356-.3555 2.219-.3867 2.246-.3828 2.246-.4922 2.219-.3555 2.109-.3828 2.379-.3554 2.109-.3829 1.973-.25 2.246-.2461 2-.246 2.106-.2461 1.972-.1368 2-.1093h5.586l1.727.1093 1.75.1368 1.617.2461-2.356,1.125-2.382,1.2304-2.356,1.125-2.355,1.1211-2.352,1.0938-2.355,1.2617-2.356,1.1211-2.383,1.2344-2.465,1.121-2.246,1.0977-2.492,1.1211-2.355,1.0117-2.356,1.0977-2.492.875-2.465.8789-2.383.875-8.05,2.3554-8.215,2.2188-8.188,2-8.324,1.8594-8.574,1.4804-8.57,1.5039-8.571,1.2344-8.82,1.1211-8.816,1.125-8.817.875-8.93.7383-8.953.7422-8.929.7383-9.09.7656-9.067.4922-9.062.6054-8.93.629-9.062.4921-8.957.7383-9.063.6328-8.957.7383-8.926.875-8.82.8789-8.816,1.1211-8.707,1.0938-8.684,1.125-8.57,1.5039-8.571,1.6172-8.324,1.8632-8.191,1.8594-8.078,2.2188-8.079,2.3554-2.601.8789-2.602.875-2.629.875-2.601.8516-2.602,1.0117-2.492.8477-2.738,1.125-2.465.875-2.602.9844-2.492,1.0156-2.601.9844-2.629.9882-2.465,1.1211-2.629.9844-2.602,1.0156-2.492,1.0938-2.465,1.125-2.628,1.1211-2.602.9843-2.465,1.125-2.492.9844-2.602,1.125-2.492,1.1211-2.492,1.125-2.602,1.1211-2.492,1.1216-2.492.988-2.601,1.121-2.465,1.098-2.629,1.011-2.465,1.125-2.492,1.094-3.231,1.371-3.23,1.367-3.231,1.371-3.093,1.368-3.235,1.48-3.23,1.504-3.231,1.48-3.23,1.368-3.098,1.507-3.23,1.481-3.231,1.476-3.121,1.508-3.207,1.367-3.121,1.618-3.23,1.476-3.231,1.481-3.094,1.504-3.234,1.48-3.231,1.371-3.093,1.504-3.231,1.371-3.125,1.477-3.34,1.371-3.093,1.367-3.231,1.48-3.234,1.368-3.231,1.234-3.23,1.367-3.367,1.371-3.098,1.121-3.34,1.235-3.23,1.258-2.11.742-2,.738-2.109.629-2.106.738-2.109.742-2.109.629-2.137.629-2.109.602-2.106.742-2.109.629-2.11.492-2.246.77-2.109.492-2.109.601-2.215.493-2,.628-2.246.497-2.219.492-2.109.519-2.137.492-2.215.493-2.109.492-2.11.496-2.246.383-2.246.355-2.109.52-2.215.355-2.11.383-2.136.359-2.219.383-2.246.383-2.11.355-3.585.629-3.75.493-3.836.386-3.723.356-3.727.383-3.722.355-3.727.246-3.722.137-3.754.246-3.832.137-3.864.109-3.722.137h-3.723l-3.727.109h-9.941l-2.355-.109-2.602-.137-2.602-.109-2.738-.137-2.738-.109-2.738-.137-2.848-.383-2.848-.109-2.875-.246-2.847-.247-2.985-.246-2.738-.246-2.852-.273-2.738-.113-2.848-.383-2.738-.11-2.601-.246-2.602-.246-2.492-.137-2.356-.109-2.355-.246h-4.352l-2-.137h-1.863l-1.723.137h-1.507l-1.368.109-1.234.246-1.121.247-.852.246" fill="#6f878e"/>
   <path d="m294.359,169.723-1.011.492-1.235.769-1.367.848-1.234.875-1.367.988-1.372.766-1.23.602-1.016.382-1.722.387-1.754.246-1.723.356-1.863.136-1.617.11-1.864.136-1.75.11-1.617.246h-1.863l-1.613.383-1.727.246-1.617.383-1.613.496-1.618.492-1.613.738-1.48.875-4,2.606-3.969,2.601-3.832,2.625-3.727,2.465-3.613,2.492-3.48,2.492-3.477,2.493-3.34,2.464-3.48,2.493-3.367,2.492-3.34,2.465-3.371,2.629-3.34,2.464-3.367,2.739-3.34,2.601-3.481,2.739-5.23,4.109-4.957,4.219-4.848,4.105-4.707,4.219-4.602,4.105-4.355,4.082-4.215,4.219-4.219,4.106-3.863,4.109-3.969,4.215-3.726,4.219-3.586,4.109-3.75,4.352-3.481,4.218-3.476,4.215-3.34,4.356-3.234,4.328-3.231,4.492-3.23,4.324-3.231,4.492-3.234,4.602-3.231,4.574-3.093,4.734-3.094,4.711-3.234,4.848-3.231,4.848-3.2304,4.847-3.2305,5.094-3.3438,5.094-3.3671,5.094-3.4766,5.203-3.4805,5.34-1.1211,1.476-.9843,1.371-1.125,1.258-1.1211,1.371-1.2344,1.231-1.2305,1.125-1.125.984-1.3672.988-1.3711,1.012-1.3671.848-1.4805.879-1.5039.875-1.4805.738-1.6172.738-1.6133.633-1.4804.629-1.3672.492-1.5078.492-1.4766.387-1.6172.355-1.6172.383-1.8593.246-1.7539.246-1.7266.11h-3.3672l-1.7266-.11-1.6132-.246-1.4805-.383-1.3672-.492-1.2617-.633-1.1211-.847-.9883-.766-.7383-.742-.9843-.984-.879-.875-.9843-.879-1.0157-.985-1.0937-.984-1.1211-.988-1.2617-1.012-1.3399-.848-1.5078-.879-1.4804-.984-1.6133-.769-1.8633-.848-2-.766-1.9688-.738-1.2617-.496-.875-.985-.7383-1.257-.496-1.371-.3829-1.59 .1368-1.504 .3828-1.371 .7422-1.231 .875-.988 .9843-.875 1.125-.738 1.3672-.52 1.3438-.496 1.3672-.355 1.5078-.246 1.4804-.247 1.5039-.136 1.6172-.246 1.4766-.137 1.4805-.246 1.5039-.11 1.4804-.382 1.3711-.36 1.3672-.383 .9844-.382 1.125-.356 1.1211-.246 1.125-.246 1.2305-.246 1.3711-.137 1.2304-.109 1.5078-.137h1.3672l1.6172.137 1.4805.109 1.75.246 1.8633.246 1.9726.383 1.9961.356 2.2188.629 1.6171-.247 1.8633-.875 2.2461-1.617 2.4922-2.219 2.8477-2.875 2.9843-3.476 3.2305-4.082 3.3399-4.488 3.6171-4.821 3.7227-5.34 3.9727-5.722 3.9687-5.836 4.2188-6.352 4.2462-6.437 4.324-6.598 4.356-6.82 4.464-6.848 4.352-6.953 4.465-6.957 4.492-6.816 4.215-6.711 4.355-6.711 4.328-6.461 4.106-6.328 3.973-5.969 3.968-5.695 3.727-5.34 3.613-4.985 3.34-4.601 3.125-3.969 2.957-3.48 2.738-2.985 3.367-3.34 3.231-3.48 3.234-3.477 3.203-3.476 3.231-3.481 3.121-3.476 3.344-3.477 3.23-3.48 3.231-3.367 3.476-3.477 3.481-3.344 3.613-3.476 3.727-3.231 3.722-3.34 4.082-3.234 4.106-3.23 1.617-1.258 1.613-1.235 1.727-1.121 1.617-1.125 1.754-1.23 1.613-1.125 1.727-1.121 1.75-1.094 1.48-1.125 1.754-1.121 1.613-1.235 1.618-1.121 1.617-1.371 1.613-1.23 1.617-1.371 1.477-1.367 1.617-1.618 1.48-1.754 1.614-1.859 1.617-1.863 1.504-1.864 1.48-1.859 1.508-1.973 1.477-2 1.48-1.972 1.504-2 1.617-1.8596 1.617-1.8633 1.614-1.8633 1.617-1.75 1.613-1.8632 1.727-1.6172 1.754-1.4766 1.968-1.6172 2-1.4765 1.973-1.6172 2.246-1.5078 2.246-1.4766 2.356-1.5078 2.218-1.4766 2.379-1.5078 2.356-1.3437 2.355-1.3672 2.356-1.3711 2.246-1.2578 2.355-1.3438 2.246-1.2578 2.11-1.2344 1.367-1.5039 1.098-2.2187 .765-3.1211 .492-3.3438 .356-3.4765 .383-3.3399 .386-2.9843 .493-2.2461 1.367-3.4766 1.234-3.0977 1.367-2.6289 1.235-2.4648 1.121-2.7383 .988-2.8476 .875-3.4766 .738-4.1094 .246-2 .247-1.6133 .523-.9882 .602-.875 .738-.4922 1.012-.3555 1.125-.3828 1.476-.3867 1.617-.4922 1.727-.3555 1.613-.2461 1.617-.1367 1.754-.2461 1.723-.1367h3.234l1.75.1367 1.481.1367 1.754.1094 1.613.3828 1.727.1094 1.613.3828 1.617.3555 1.754.3867 1.34.4922 1.125.6289 .875.7383 .629.8789 .355.9843 .246,1.125-.109,1.3672-.383,1.3711-1.613,5.0938-1.371,4.707-.985,4.4648-.492,4.1094-.137,3.8594 .274,3.5898 .601,3.4766 1.121,3.3672 1.754-1.3672 1.864-1.3711 1.968-1.1211 2.246-.9883 2.219-.875 2.492-.9843 2.602-.7696 2.629-.7383 2.601-.6289 2.739-.6015 2.711-.4961 2.738-.3828 2.738-.3828 2.602-.3555 2.601-.2461 2.493-.1367 3.371-.2461 3.476-.1094h6.821l3.367.2461 3.449.1094 3.371.3828 3.34.2461 3.367.3828 3.34.3555 3.371.3828 3.477.3594 3.339.3828 3.481.4922 3.476.246 3.477.3829 2.492.2461 2.356.3554 2.355.3867 2.492.3829 2.356.3554 2.492.3828 2.492.3555 2.465.5195 2.355.3555 2.493.3867 2.355.3555 2.492.2734 2.492.3555 2.465.1367 2.493.1094 2.355.1367h1.367l1.262-.1367 1.23-.1094 1.371-.1367 1.231-.1094 1.371-.2461 1.23-.1367 1.368-.2461 1.261-.3828 1.231-.3594 1.234-.4922 1.258-.5195 1.125-.4922 1.231-.4922 1.125-.6328 .984-.7383 1.726-1.6171 1.618-2.1055 1.504-2.6016 1.371-2.8476 1.367-2.9883 1.234-3.1211 .985-2.6016 1.011-2.3554 .606-1.2305 .629-1.2617 .738-.8477 .875-.875 .988-.6328 1.121-.6289 1.235-.6016 1.367-.3828 1.617-.3554 1.863-.2735 1.86-.25 1.863-.2461 2.109-.1094 2.137-.246h4.324l2.246.1093 2.247.1367 2.218.1094 2.11.2461 2.109.25 1.996.3828 1.863.3828 1.727.4922 .875.3555 .738.3828 .387.6328 .492.6016 .246.7656 .383.7383 .109.8789 .247.8477 .273.7656 .109.9883-.246,1.2304-.383,2.1094-.847,2.875-1.371,4.082-2.11,5.3399-2.629,6.8437 2.493-1.2578 2.847-1.2344 3.125-.9843 3.34-1.1211 3.477-.8789 3.726-.875 3.723-.7383 4-.7422 3.969-.6289 4.082-.6016 3.968-.6289 4.246-.6328 3.969-.3555 3.973-.3828 3.863-.3828 3.723-.3555 2.847-.3828 2.848-.1093 2.738-.2461 2.848-.25 2.738-.1368 2.989-.246 2.738-.1368 2.848-.1093 2.847-.2461h2.739l2.984-.2461 2.738-.1367h2.848l2.847-.1094 2.875-.1367h2.711l2.989-.1094h8.461l2.847-.1367h5.723l2.848-.1094h29.55l6.954-.1367h13.804l6.817-.2461 6.711-.1367 6.847-.1094 6.817-.25 6.847-.1367 6.68-.2461 6.711-.2461 6.711-.2461 6.844-.3828 6.711-.2461 6.707-.2461 6.683-.2461 6.848-.3594 6.57-.3828 6.711-.3828 6.844-.3555 6.711-.3828 6.707-.3555 6.82-.3828 6.711-.3828 6.707-.3594 6.82-.4921 6.711-.3829 6.844-.3828 6.82-.4922 6.821-.3554 6.843-.4961 6.957-.3828 2.11-.1368 2.355-.246 2.242-.1094 2.11-.3828 2.355-.2461 2.246-.3828 2.219-.3594 2.246-.3828 2.356-.3555 2.246-.3828 2.351-.4922 2.246-.3828 2.356-.3555 2.219-.3867 2.246-.3828 2.246-.4922 2.219-.3555 2.109-.3828 2.379-.3554 2.109-.3829 1.973-.25 2.246-.2461 2-.246 2.106-.2461 1.972-.1368 2-.1093h5.586l1.727.1093 1.75.1368 1.617.2461-2.356,1.125-2.382,1.2304-2.356,1.125-2.355,1.1211-2.352,1.0938-2.355,1.2617-2.356,1.1211-2.383,1.2344-2.465,1.121-2.246,1.0977-2.492,1.1211-2.355,1.0117-2.356,1.0977-2.492.875-2.465.8789-2.383.875-8.05,2.3554-8.215,2.2188-8.188,2-8.324,1.8594-8.574,1.4804-8.57,1.5039-8.571,1.2344-8.82,1.1211-8.816,1.125-8.817.875-8.93.7383-8.953.7422-8.929.7383-9.09.7656-9.067.4922-9.062.6054-8.93.629-9.062.4921-8.957.7383-9.063.6328-8.957.7383-8.926.875-8.82.8789-8.816,1.1211-8.707,1.0938-8.684,1.125-8.57,1.5039-8.571,1.6172-8.324,1.8632-8.191,1.8594-8.078,2.2188-8.079,2.3554-2.601.8789-2.602.875-2.629.875-2.601.8516-2.602,1.0117-2.492.8477-2.738,1.125-2.465.875-2.602.9844-2.492,1.0156-2.601.9844-2.629.9882-2.465,1.1211-2.629.9844-2.602,1.0156-2.492,1.0938-2.465,1.125-2.628,1.1211-2.602.9843-2.465,1.125-2.492.9844-2.602,1.125-2.492,1.1211-2.492,1.125-2.602,1.1211-2.492,1.1216-2.492.988-2.601,1.121-2.465,1.098-2.629,1.011-2.465,1.125-2.492,1.094-3.231,1.371-3.23,1.367-3.231,1.371-3.093,1.368-3.235,1.48-3.23,1.504-3.231,1.48-3.23,1.368-3.098,1.507-3.23,1.481-3.231,1.476-3.121,1.508-3.207,1.367-3.121,1.618-3.23,1.476-3.231,1.481-3.094,1.504-3.234,1.48-3.231,1.371-3.093,1.504-3.231,1.371-3.125,1.477-3.34,1.371-3.093,1.367-3.231,1.48-3.234,1.368-3.231,1.234-3.23,1.367-3.367,1.371-3.098,1.121-3.34,1.235-3.23,1.258-2.11.742-2,.738-2.109.629-2.106.738-2.109.742-2.109.629-2.137.629-2.109.602-2.106.742-2.109.629-2.11.492-2.246.77-2.109.492-2.109.601-2.215.493-2,.628-2.246.497-2.219.492-2.109.519-2.137.492-2.215.493-2.109.492-2.11.496-2.246.383-2.246.355-2.109.52-2.215.355-2.11.383-2.136.359-2.219.383-2.246.383-2.11.355-3.585.629-3.75.493-3.836.386-3.723.356-3.727.383-3.722.355-3.727.246-3.722.137-3.754.246-3.832.137-3.864.109-3.722.137h-3.723l-3.727.109h-9.941l-2.355-.109-2.602-.137-2.602-.109-2.738-.137-2.738-.109-2.738-.137-2.848-.383-2.848-.109-2.875-.246-2.847-.247-2.985-.246-2.738-.246-2.852-.273-2.738-.113-2.848-.383-2.738-.11-2.601-.246-2.602-.246-2.492-.137-2.356-.109-2.355-.246h-4.352l-2-.137h-1.863l-1.723.137h-1.507l-1.368.109-1.234.246-1.121.247-.852.246z" fill="none" stroke="#363639" stroke-width=".37917"/>
   <path d="m42.582,374.426 .4922-.137 .5196-.109 .496-.137 .4922-.109 .3555-.274 .2461-.246 .2734-.246 .1094-.246-.4922-.109-.4922-.137-.3828-.246-.3554-.25-.3868-.246-.3828-.246-.4922-.137h-.3554l-.875.383-.6328.496-.3555.492-.5195.492-.2461.137v.246l.3828.246 .3828.137 .4922.109 .6054.137h1.1211" fill="#363639"/>
  </g>
 </g>
</svg>
