<svg width="113" height="142" viewBox="0 0 113 142" fill="none" xmlns="http://www.w3.org/2000/svg">
<path d="M40.8462 121.025C12.3846 131.013 12.3846 104.38 1 101.051M80.6923 141V115.233C80.9058 112.058 80.5391 108.866 79.6165 105.87C78.694 102.874 77.2367 100.142 75.3415 97.8551C93.2154 95.5247 112 87.6015 112 51.2478C111.999 41.9519 108.941 33.0124 103.462 26.2797C106.056 18.1468 105.873 9.15721 102.949 1.17839C102.949 1.17839 96.2323 -1.15197 80.6923 11.0325C67.6456 6.89658 53.8929 6.89658 40.8462 11.0325C25.3062 -1.15197 18.5892 1.17839 18.5892 1.17839C15.6655 9.15721 15.4821 18.1468 18.0769 26.2797C12.5561 33.0624 9.4959 42.0826 9.53846 51.4476C9.53846 87.5349 28.3231 95.4581 46.1969 98.0548C44.3241 100.318 42.8798 103.018 41.9579 105.977C41.036 108.937 40.6572 112.091 40.8462 115.233V141" stroke="black" stroke-width="2" stroke-linecap="round" stroke-linejoin="round"/>
</svg>
