<svg width="87" height="189" viewBox="0 0 87 189" fill="none" xmlns="http://www.w3.org/2000/svg">
<path d="M27.8935 84.3032C30.4835 82.7432 33.8535 83.5732 35.4135 86.1732C36.9735 88.7632 36.1435 92.1332 33.5435 93.6932C30.9535 95.2532 27.5835 94.4232 26.0235 91.8232C24.4635 89.2432 25.3035 85.8732 27.8935 84.3032Z" fill="#FCC9A7"/>
<path d="M34.1035 84.6932C33.9235 84.5532 24.3035 73.2532 24.3035 73.2532L20.3735 78.0132L29.0535 89.0032L34.1035 84.6932Z" fill="#FCC9A7"/>
<path d="M25.9935 172.793L23.5435 183.983L15.8035 182.823L18.3035 171.783L25.9935 172.793Z" fill="#FCC9A7"/>
<path d="M60.6935 171.793L60.7835 183.253L52.9935 183.833L52.9735 172.513L60.6935 171.793Z" fill="#FCC9A7"/>
<path d="M24.5235 182.163C24.3635 181.693 23.7935 181.493 23.3835 181.793C22.5835 182.373 21.1735 183.053 19.1335 182.813C17.0135 182.563 16.2535 181.443 15.9935 180.643C15.8535 180.223 15.4035 180.003 14.9935 180.163L1.86354 185.423C1.06354 185.743 0.423517 186.363 0.0935171 187.153C-0.226483 187.893 0.313546 188.723 1.12355 188.723L23.4335 188.883C24.3135 188.893 25.0135 188.163 24.9735 187.283L24.7835 182.973C24.7835 182.903 24.7635 182.833 24.7435 182.763L24.5235 182.163Z" fill="#0C0C0C"/>
<path d="M52.2035 182.163C52.3635 181.693 52.9435 181.493 53.3435 181.793C54.1435 182.373 55.5535 183.053 57.5935 182.813C59.7135 182.563 60.4635 181.443 60.7335 180.643C60.8735 180.223 61.3235 180.003 61.7335 180.163L74.8635 185.423C75.6635 185.743 76.3035 186.363 76.6335 187.153C76.9535 187.893 76.4135 188.723 75.6035 188.723L53.2935 188.883C52.4135 188.893 51.7135 188.163 51.7535 187.283L51.9435 182.973C51.9435 182.903 51.9635 182.833 51.9835 182.763L52.2035 182.163Z" fill="#0C0C0C"/>
<path d="M52.1035 28.1232L45.1735 28.7232L34.1535 34.9332V79.0932H63.5635V34.9332L52.1035 28.1232Z" fill="#54585A"/>
<path d="M50.2035 32.5732H48.2135C46.1535 32.5732 44.4835 30.9032 44.4835 28.8432V21.3632H53.9235V28.8432C53.9335 30.9032 52.2635 32.5732 50.2035 32.5732Z" fill="#FCC9A7"/>
<path d="M44.4835 25.1732C44.4835 25.1732 45.9535 28.1232 49.2935 28.1232C52.6335 28.1232 53.9235 25.1132 53.9235 25.1132L44.4835 25.1732Z" fill="#F4BE9A"/>
<path d="M49.3135 26.3932H49.0035C44.1935 26.3932 40.2335 22.5932 40.0435 17.7832L39.8735 12.9932C39.6735 7.90322 43.7435 3.67322 48.8335 3.67322H49.4835C53.3335 3.67322 58.6435 7.90322 58.4435 12.9932L58.2735 17.7832C58.0835 22.5932 54.1235 26.3932 49.3135 26.3932Z" fill="#FCC9A7"/>
<path d="M42.7935 16.6232C42.9035 18.2432 41.6835 19.6432 40.0635 19.7532C38.4435 19.8632 37.0435 18.6432 36.9335 17.0232C36.8235 15.4032 38.0435 14.0032 39.6635 13.8932C41.2835 13.7932 42.6835 15.0132 42.7935 16.6232Z" fill="#FCC9A7"/>
<path d="M61.3735 16.6232C61.4835 18.2432 60.2635 19.6432 58.6435 19.7532C57.0235 19.8632 55.6235 18.6432 55.5135 17.0232C55.4035 15.4032 56.6235 14.0032 58.2435 13.8932C59.8635 13.7932 61.2635 15.0132 61.3735 16.6232Z" fill="#FCC9A7"/>
<path d="M34.1535 78.8832L15.8635 176.113L26.3735 176.013L53.1135 79.0732L34.1535 78.8832Z" fill="#0C0C0C"/>
<path d="M63.5635 79.0932L62.4135 176.213H51.3035L46.8735 79.7032L63.5635 79.0932Z" fill="#0C0C0C"/>
<path d="M34.1535 34.9332C34.1535 34.9332 9.59354 49.7532 3.62354 60.0332C2.45354 62.0432 3.97352 64.6432 6.03352 65.7132C8.31352 66.9032 11.1235 66.0932 12.4335 63.8832L35.1535 50.7032C35.1635 50.7032 34.1535 39.3832 34.1535 34.9332Z" fill="#54585A"/>
<path d="M39.3635 7.55322L40.0535 14.9132H41.1635L41.3035 11.0532C41.3035 11.0532 41.8835 9.57322 44.4735 6.39322C44.4735 6.39322 46.1635 10.7132 56.6335 9.87322L57.2435 14.7532L58.3235 14.6332L58.8935 9.39322C59.2735 7.62322 59.4035 5.97322 59.0835 4.19322C58.4335 0.59322 55.5035 -1.39678 47.0435 1.14322C46.3435 1.35322 47.7735 1.21322 47.0435 1.14322C44.6235 0.873221 38.2435 0.843221 39.3635 7.55322Z" fill="#2E2A33"/>
<path d="M51.8235 78.3932L49.4435 103.853C49.3535 104.813 50.0035 105.683 50.9535 105.863L80.1535 111.443C81.2235 111.653 82.2435 110.893 82.3635 109.813L85.0335 85.6132C85.1335 84.6732 84.5235 83.8032 83.5935 83.5832L54.1035 76.7432C53.0035 76.4832 51.9335 77.2632 51.8235 78.3932Z" fill="#AFAFAF"/>
<path d="M53.4435 78.8432L51.0635 104.303C50.9735 105.263 51.6235 106.133 52.5735 106.313L81.7735 111.893C82.8435 112.093 83.8635 111.343 83.9835 110.263L86.6535 86.0632C86.7535 85.1232 86.1435 84.2532 85.2135 84.0332L55.7235 77.1932C54.6335 76.9332 53.5535 77.7132 53.4435 78.8432Z" fill="#D1D1D1"/>
<path d="M68.6435 104.833C71.5435 105.693 73.2035 108.743 72.3435 111.643C71.4835 114.543 68.4335 116.203 65.5335 115.353C62.6335 114.493 60.9735 111.443 61.8235 108.543C62.6935 105.633 65.7335 103.973 68.6435 104.833Z" fill="#FCC9A7"/>
<path d="M72.5535 109.673C72.5335 109.443 71.5935 94.1832 71.5935 94.1832L66.4035 95.1232L67.0935 108.133L72.5535 109.673Z" fill="#FCC9A7"/>
<path d="M63.5635 34.9332C63.5635 34.9332 71.4235 40.5632 71.9235 48.5832L74.3835 67.3332C74.5235 68.4332 74.5835 69.5332 74.5435 70.6432L73.5935 99.1632H62.8035L62.6035 68.2932L63.5635 34.9332Z" fill="#54585A"/>
<path d="M46.0035 28.1232C45.1635 28.7332 41.1135 31.0132 41.1135 31.0132C41.1135 31.0132 41.2235 36.7132 49.8035 36.2532C57.3535 35.8532 57.3035 31.2232 57.3035 31.2232L52.0935 28.1232H46.0035Z" fill="#FCC9A7"/>
<path d="M15.7235 56.3332L30.4035 79.7932L23.4435 86.3832L3.66351 63.2932L15.7235 56.3332Z" fill="#54585A"/>
<path d="M62.5935 78.7832V68.2832L60.1535 49.1332" stroke="#424647" stroke-width="0.7693" stroke-miterlimit="10" stroke-linecap="round" stroke-linejoin="round"/>
</svg>
