<svg width="34" height="35" viewBox="0 0 34 35" fill="none" xmlns="http://www.w3.org/2000/svg">
<path d="M22.6667 5.83334H25.5C26.2515 5.83334 26.9721 6.14063 27.5035 6.68761C28.0348 7.23459 28.3333 7.97645 28.3333 8.75V29.1667C28.3333 29.9402 28.0348 30.6821 27.5035 31.2291C26.9721 31.776 26.2515 32.0833 25.5 32.0833H8.50001C7.74856 32.0833 7.02789 31.776 6.49654 31.2291C5.96518 30.6821 5.66667 29.9402 5.66667 29.1667V8.75C5.66667 7.97645 5.96518 7.23459 6.49654 6.68761C7.02789 6.14063 7.74856 5.83334 8.50001 5.83334H11.3333" stroke="black" stroke-width="2" stroke-linecap="round" stroke-linejoin="round"/>
<path d="M21.25 2.91667H12.75C11.9676 2.91667 11.3333 3.56959 11.3333 4.375V7.29167C11.3333 8.09708 11.9676 8.75 12.75 8.75H21.25C22.0324 8.75 22.6667 8.09708 22.6667 7.29167V4.375C22.6667 3.56959 22.0324 2.91667 21.25 2.91667Z" stroke="black" stroke-width="2" stroke-linecap="round" stroke-linejoin="round"/>
</svg>
